%TF.GenerationSoftware,KiCad,Pcbnew,(6.0.4-0)*%
%TF.CreationDate,2023-08-08T13:47:07-06:00*%
%TF.ProjectId,usb_pd,7573625f-7064-42e6-9b69-6361645f7063,rev?*%
%TF.SameCoordinates,Original*%
%TF.FileFunction,Paste,Top*%
%TF.FilePolarity,Positive*%
%FSLAX46Y46*%
G04 Gerber Fmt 4.6, Leading zero omitted, Abs format (unit mm)*
G04 Created by KiCad (PCBNEW (6.0.4-0)) date 2023-08-08 13:47:07*
%MOMM*%
%LPD*%
G01*
G04 APERTURE LIST*
G04 Aperture macros list*
%AMRoundRect*
0 Rectangle with rounded corners*
0 $1 Rounding radius*
0 $2 $3 $4 $5 $6 $7 $8 $9 X,Y pos of 4 corners*
0 Add a 4 corners polygon primitive as box body*
4,1,4,$2,$3,$4,$5,$6,$7,$8,$9,$2,$3,0*
0 Add four circle primitives for the rounded corners*
1,1,$1+$1,$2,$3*
1,1,$1+$1,$4,$5*
1,1,$1+$1,$6,$7*
1,1,$1+$1,$8,$9*
0 Add four rect primitives between the rounded corners*
20,1,$1+$1,$2,$3,$4,$5,0*
20,1,$1+$1,$4,$5,$6,$7,0*
20,1,$1+$1,$6,$7,$8,$9,0*
20,1,$1+$1,$8,$9,$2,$3,0*%
G04 Aperture macros list end*
%ADD10RoundRect,0.175000X0.175000X0.200000X-0.175000X0.200000X-0.175000X-0.200000X0.175000X-0.200000X0*%
%ADD11RoundRect,0.100000X0.612500X0.100000X-0.612500X0.100000X-0.612500X-0.100000X0.612500X-0.100000X0*%
%ADD12RoundRect,0.250000X0.337500X0.475000X-0.337500X0.475000X-0.337500X-0.475000X0.337500X-0.475000X0*%
%ADD13RoundRect,0.237500X-0.300000X-0.237500X0.300000X-0.237500X0.300000X0.237500X-0.300000X0.237500X0*%
%ADD14RoundRect,0.237500X-0.237500X0.300000X-0.237500X-0.300000X0.237500X-0.300000X0.237500X0.300000X0*%
%ADD15RoundRect,0.250000X-0.337500X-0.475000X0.337500X-0.475000X0.337500X0.475000X-0.337500X0.475000X0*%
%ADD16RoundRect,0.237500X0.250000X0.237500X-0.250000X0.237500X-0.250000X-0.237500X0.250000X-0.237500X0*%
%ADD17RoundRect,0.237500X-0.250000X-0.237500X0.250000X-0.237500X0.250000X0.237500X-0.250000X0.237500X0*%
%ADD18RoundRect,0.237500X0.287500X0.237500X-0.287500X0.237500X-0.287500X-0.237500X0.287500X-0.237500X0*%
%ADD19RoundRect,0.237500X0.237500X-0.250000X0.237500X0.250000X-0.237500X0.250000X-0.237500X-0.250000X0*%
%ADD20R,0.600000X1.500000*%
%ADD21R,3.300000X2.100000*%
%ADD22R,1.240000X0.600000*%
%ADD23R,1.240000X0.300000*%
%ADD24O,2.100000X1.000000*%
%ADD25O,1.800000X1.000000*%
%ADD26RoundRect,0.237500X0.237500X-0.300000X0.237500X0.300000X-0.237500X0.300000X-0.237500X-0.300000X0*%
%ADD27RoundRect,0.147500X-0.172500X0.147500X-0.172500X-0.147500X0.172500X-0.147500X0.172500X0.147500X0*%
%ADD28O,0.560000X2.655000*%
%ADD29RoundRect,0.237500X-0.237500X0.250000X-0.237500X-0.250000X0.237500X-0.250000X0.237500X0.250000X0*%
G04 APERTURE END LIST*
%TO.C,J1*%
G36*
X131120000Y-90200000D02*
G01*
X129880000Y-90200000D01*
X129880000Y-89600000D01*
X131120000Y-89600000D01*
X131120000Y-90200000D01*
G37*
G36*
X131120000Y-83800000D02*
G01*
X129880000Y-83800000D01*
X129880000Y-83200000D01*
X131120000Y-83200000D01*
X131120000Y-83800000D01*
G37*
G36*
X126125000Y-90521000D02*
G01*
X126150000Y-90523000D01*
X126174000Y-90526000D01*
X126199000Y-90530000D01*
X126247000Y-90542000D01*
X126271000Y-90550000D01*
X126294000Y-90559000D01*
X126317000Y-90570000D01*
X126339000Y-90581000D01*
X126361000Y-90593000D01*
X126382000Y-90607000D01*
X126402000Y-90622000D01*
X126421000Y-90637000D01*
X126440000Y-90654000D01*
X126458000Y-90671000D01*
X126475000Y-90689000D01*
X126491000Y-90708000D01*
X126506000Y-90728000D01*
X126520000Y-90749000D01*
X126533000Y-90770000D01*
X126545000Y-90792000D01*
X126556000Y-90814000D01*
X126565000Y-90837000D01*
X126574000Y-90861000D01*
X126581000Y-90885000D01*
X126587000Y-90909000D01*
X126592000Y-90933000D01*
X126596000Y-90958000D01*
X126599000Y-90983000D01*
X126600000Y-91008000D01*
X126600000Y-91033000D01*
X126599000Y-91057000D01*
X126596000Y-91082000D01*
X126592000Y-91107000D01*
X126587000Y-91131000D01*
X126581000Y-91155000D01*
X126574000Y-91179000D01*
X126565000Y-91203000D01*
X126556000Y-91226000D01*
X126545000Y-91248000D01*
X126533000Y-91270000D01*
X126520000Y-91291000D01*
X126506000Y-91312000D01*
X126491000Y-91332000D01*
X126475000Y-91351000D01*
X126458000Y-91369000D01*
X126440000Y-91387000D01*
X126402000Y-91419000D01*
X126382000Y-91433000D01*
X126361000Y-91447000D01*
X126317000Y-91471000D01*
X126294000Y-91481000D01*
X126271000Y-91490000D01*
X126247000Y-91498000D01*
X126223000Y-91505000D01*
X126199000Y-91510000D01*
X126174000Y-91514000D01*
X126150000Y-91518000D01*
X126100000Y-91520000D01*
X125300000Y-91520000D01*
X125250000Y-91518000D01*
X125225000Y-91514000D01*
X125201000Y-91510000D01*
X125177000Y-91505000D01*
X125153000Y-91498000D01*
X125129000Y-91490000D01*
X125106000Y-91481000D01*
X125083000Y-91471000D01*
X125039000Y-91447000D01*
X125018000Y-91433000D01*
X124998000Y-91419000D01*
X124960000Y-91387000D01*
X124942000Y-91369000D01*
X124925000Y-91351000D01*
X124909000Y-91332000D01*
X124894000Y-91312000D01*
X124880000Y-91291000D01*
X124867000Y-91270000D01*
X124855000Y-91248000D01*
X124844000Y-91226000D01*
X124834000Y-91203000D01*
X124826000Y-91179000D01*
X124812000Y-91131000D01*
X124807000Y-91107000D01*
X124801000Y-91057000D01*
X124800000Y-91033000D01*
X124800000Y-91008000D01*
X124801000Y-90983000D01*
X124807000Y-90933000D01*
X124812000Y-90909000D01*
X124826000Y-90861000D01*
X124834000Y-90837000D01*
X124844000Y-90814000D01*
X124855000Y-90792000D01*
X124867000Y-90770000D01*
X124880000Y-90749000D01*
X124894000Y-90728000D01*
X124909000Y-90708000D01*
X124925000Y-90689000D01*
X124942000Y-90671000D01*
X124960000Y-90654000D01*
X124979000Y-90637000D01*
X124998000Y-90622000D01*
X125018000Y-90607000D01*
X125039000Y-90593000D01*
X125061000Y-90581000D01*
X125083000Y-90570000D01*
X125106000Y-90559000D01*
X125129000Y-90550000D01*
X125153000Y-90542000D01*
X125201000Y-90530000D01*
X125225000Y-90526000D01*
X125250000Y-90523000D01*
X125275000Y-90521000D01*
X125300000Y-90520000D01*
X126100000Y-90520000D01*
X126125000Y-90521000D01*
G37*
G36*
X131120000Y-88100000D02*
G01*
X129880000Y-88100000D01*
X129880000Y-87800000D01*
X131120000Y-87800000D01*
X131120000Y-88100000D01*
G37*
G36*
X131120000Y-86100000D02*
G01*
X129880000Y-86100000D01*
X129880000Y-85800000D01*
X131120000Y-85800000D01*
X131120000Y-86100000D01*
G37*
G36*
X131120000Y-87600000D02*
G01*
X129880000Y-87600000D01*
X129880000Y-87300000D01*
X131120000Y-87300000D01*
X131120000Y-87600000D01*
G37*
G36*
X131120000Y-87100000D02*
G01*
X129880000Y-87100000D01*
X129880000Y-86800000D01*
X131120000Y-86800000D01*
X131120000Y-87100000D01*
G37*
G36*
X131120000Y-88600000D02*
G01*
X129880000Y-88600000D01*
X129880000Y-88300000D01*
X131120000Y-88300000D01*
X131120000Y-88600000D01*
G37*
G36*
X131120000Y-85100000D02*
G01*
X129880000Y-85100000D01*
X129880000Y-84800000D01*
X131120000Y-84800000D01*
X131120000Y-85100000D01*
G37*
G36*
X130455000Y-90521000D02*
G01*
X130480000Y-90523000D01*
X130505000Y-90526000D01*
X130529000Y-90530000D01*
X130577000Y-90542000D01*
X130601000Y-90550000D01*
X130624000Y-90559000D01*
X130647000Y-90570000D01*
X130669000Y-90581000D01*
X130691000Y-90593000D01*
X130712000Y-90607000D01*
X130732000Y-90622000D01*
X130751000Y-90637000D01*
X130770000Y-90654000D01*
X130788000Y-90671000D01*
X130805000Y-90689000D01*
X130821000Y-90708000D01*
X130836000Y-90728000D01*
X130850000Y-90749000D01*
X130863000Y-90770000D01*
X130875000Y-90792000D01*
X130886000Y-90814000D01*
X130895000Y-90837000D01*
X130904000Y-90861000D01*
X130911000Y-90885000D01*
X130917000Y-90909000D01*
X130922000Y-90933000D01*
X130926000Y-90958000D01*
X130929000Y-90983000D01*
X130930000Y-91008000D01*
X130930000Y-91033000D01*
X130929000Y-91057000D01*
X130926000Y-91082000D01*
X130922000Y-91107000D01*
X130917000Y-91131000D01*
X130911000Y-91155000D01*
X130904000Y-91179000D01*
X130895000Y-91203000D01*
X130886000Y-91226000D01*
X130875000Y-91248000D01*
X130863000Y-91270000D01*
X130850000Y-91291000D01*
X130836000Y-91312000D01*
X130821000Y-91332000D01*
X130805000Y-91351000D01*
X130788000Y-91369000D01*
X130770000Y-91387000D01*
X130732000Y-91419000D01*
X130712000Y-91433000D01*
X130691000Y-91447000D01*
X130647000Y-91471000D01*
X130624000Y-91481000D01*
X130601000Y-91490000D01*
X130577000Y-91498000D01*
X130553000Y-91505000D01*
X130529000Y-91510000D01*
X130505000Y-91514000D01*
X130480000Y-91518000D01*
X130430000Y-91520000D01*
X129330000Y-91520000D01*
X129280000Y-91518000D01*
X129255000Y-91514000D01*
X129231000Y-91510000D01*
X129207000Y-91505000D01*
X129183000Y-91498000D01*
X129159000Y-91490000D01*
X129136000Y-91481000D01*
X129113000Y-91471000D01*
X129069000Y-91447000D01*
X129048000Y-91433000D01*
X129028000Y-91419000D01*
X128990000Y-91387000D01*
X128972000Y-91369000D01*
X128955000Y-91351000D01*
X128939000Y-91332000D01*
X128924000Y-91312000D01*
X128910000Y-91291000D01*
X128897000Y-91270000D01*
X128885000Y-91248000D01*
X128874000Y-91226000D01*
X128865000Y-91203000D01*
X128856000Y-91179000D01*
X128842000Y-91131000D01*
X128838000Y-91107000D01*
X128834000Y-91082000D01*
X128831000Y-91057000D01*
X128830000Y-91033000D01*
X128830000Y-91008000D01*
X128831000Y-90983000D01*
X128834000Y-90958000D01*
X128838000Y-90933000D01*
X128842000Y-90909000D01*
X128856000Y-90861000D01*
X128865000Y-90837000D01*
X128874000Y-90814000D01*
X128885000Y-90792000D01*
X128897000Y-90770000D01*
X128910000Y-90749000D01*
X128924000Y-90728000D01*
X128939000Y-90708000D01*
X128955000Y-90689000D01*
X128972000Y-90671000D01*
X128990000Y-90654000D01*
X129009000Y-90637000D01*
X129028000Y-90622000D01*
X129048000Y-90607000D01*
X129069000Y-90593000D01*
X129091000Y-90581000D01*
X129113000Y-90570000D01*
X129136000Y-90559000D01*
X129159000Y-90550000D01*
X129183000Y-90542000D01*
X129231000Y-90530000D01*
X129255000Y-90526000D01*
X129280000Y-90523000D01*
X129305000Y-90521000D01*
X129330000Y-90520000D01*
X130430000Y-90520000D01*
X130455000Y-90521000D01*
G37*
G36*
X130480000Y-81882000D02*
G01*
X130505000Y-81886000D01*
X130529000Y-81890000D01*
X130553000Y-81895000D01*
X130577000Y-81902000D01*
X130601000Y-81910000D01*
X130624000Y-81919000D01*
X130647000Y-81929000D01*
X130691000Y-81953000D01*
X130712000Y-81967000D01*
X130732000Y-81981000D01*
X130770000Y-82013000D01*
X130788000Y-82031000D01*
X130805000Y-82049000D01*
X130821000Y-82068000D01*
X130836000Y-82088000D01*
X130850000Y-82109000D01*
X130863000Y-82130000D01*
X130875000Y-82152000D01*
X130886000Y-82174000D01*
X130895000Y-82197000D01*
X130904000Y-82221000D01*
X130911000Y-82245000D01*
X130917000Y-82269000D01*
X130922000Y-82293000D01*
X130926000Y-82318000D01*
X130929000Y-82343000D01*
X130930000Y-82367000D01*
X130930000Y-82392000D01*
X130929000Y-82417000D01*
X130926000Y-82442000D01*
X130922000Y-82467000D01*
X130917000Y-82491000D01*
X130911000Y-82515000D01*
X130904000Y-82539000D01*
X130895000Y-82563000D01*
X130886000Y-82586000D01*
X130875000Y-82608000D01*
X130863000Y-82630000D01*
X130850000Y-82651000D01*
X130836000Y-82672000D01*
X130821000Y-82692000D01*
X130805000Y-82711000D01*
X130788000Y-82729000D01*
X130770000Y-82746000D01*
X130751000Y-82763000D01*
X130732000Y-82779000D01*
X130712000Y-82793000D01*
X130691000Y-82807000D01*
X130669000Y-82819000D01*
X130647000Y-82830000D01*
X130624000Y-82841000D01*
X130601000Y-82850000D01*
X130577000Y-82858000D01*
X130553000Y-82865000D01*
X130529000Y-82870000D01*
X130505000Y-82874000D01*
X130480000Y-82878000D01*
X130430000Y-82880000D01*
X129330000Y-82880000D01*
X129280000Y-82878000D01*
X129255000Y-82874000D01*
X129231000Y-82870000D01*
X129207000Y-82865000D01*
X129183000Y-82858000D01*
X129159000Y-82850000D01*
X129136000Y-82841000D01*
X129113000Y-82830000D01*
X129091000Y-82819000D01*
X129069000Y-82807000D01*
X129048000Y-82793000D01*
X129028000Y-82779000D01*
X129009000Y-82763000D01*
X128990000Y-82746000D01*
X128972000Y-82729000D01*
X128955000Y-82711000D01*
X128939000Y-82692000D01*
X128924000Y-82672000D01*
X128910000Y-82651000D01*
X128897000Y-82630000D01*
X128885000Y-82608000D01*
X128874000Y-82586000D01*
X128865000Y-82563000D01*
X128856000Y-82539000D01*
X128842000Y-82491000D01*
X128838000Y-82467000D01*
X128834000Y-82442000D01*
X128831000Y-82417000D01*
X128830000Y-82392000D01*
X128830000Y-82367000D01*
X128831000Y-82343000D01*
X128834000Y-82318000D01*
X128838000Y-82293000D01*
X128842000Y-82269000D01*
X128856000Y-82221000D01*
X128865000Y-82197000D01*
X128874000Y-82174000D01*
X128885000Y-82152000D01*
X128897000Y-82130000D01*
X128910000Y-82109000D01*
X128924000Y-82088000D01*
X128939000Y-82068000D01*
X128955000Y-82049000D01*
X128972000Y-82031000D01*
X128990000Y-82013000D01*
X129028000Y-81981000D01*
X129048000Y-81967000D01*
X129069000Y-81953000D01*
X129113000Y-81929000D01*
X129136000Y-81919000D01*
X129159000Y-81910000D01*
X129183000Y-81902000D01*
X129207000Y-81895000D01*
X129231000Y-81890000D01*
X129255000Y-81886000D01*
X129280000Y-81882000D01*
X129330000Y-81880000D01*
X130430000Y-81880000D01*
X130480000Y-81882000D01*
G37*
G36*
X131120000Y-89400000D02*
G01*
X129880000Y-89400000D01*
X129880000Y-88800000D01*
X131120000Y-88800000D01*
X131120000Y-89400000D01*
G37*
G36*
X131120000Y-86600000D02*
G01*
X129880000Y-86600000D01*
X129880000Y-86300000D01*
X131120000Y-86300000D01*
X131120000Y-86600000D01*
G37*
G36*
X131120000Y-85600000D02*
G01*
X129880000Y-85600000D01*
X129880000Y-85300000D01*
X131120000Y-85300000D01*
X131120000Y-85600000D01*
G37*
G36*
X131120000Y-84600000D02*
G01*
X129880000Y-84600000D01*
X129880000Y-84000000D01*
X131120000Y-84000000D01*
X131120000Y-84600000D01*
G37*
G36*
X126150000Y-81882000D02*
G01*
X126174000Y-81886000D01*
X126199000Y-81890000D01*
X126223000Y-81895000D01*
X126247000Y-81902000D01*
X126271000Y-81910000D01*
X126294000Y-81919000D01*
X126317000Y-81929000D01*
X126361000Y-81953000D01*
X126382000Y-81967000D01*
X126402000Y-81981000D01*
X126440000Y-82013000D01*
X126458000Y-82031000D01*
X126475000Y-82049000D01*
X126491000Y-82068000D01*
X126506000Y-82088000D01*
X126520000Y-82109000D01*
X126533000Y-82130000D01*
X126545000Y-82152000D01*
X126556000Y-82174000D01*
X126565000Y-82197000D01*
X126574000Y-82221000D01*
X126581000Y-82245000D01*
X126587000Y-82269000D01*
X126592000Y-82293000D01*
X126596000Y-82318000D01*
X126599000Y-82343000D01*
X126600000Y-82367000D01*
X126600000Y-82392000D01*
X126599000Y-82417000D01*
X126596000Y-82442000D01*
X126592000Y-82467000D01*
X126587000Y-82491000D01*
X126581000Y-82515000D01*
X126574000Y-82539000D01*
X126565000Y-82563000D01*
X126556000Y-82586000D01*
X126545000Y-82608000D01*
X126533000Y-82630000D01*
X126520000Y-82651000D01*
X126506000Y-82672000D01*
X126491000Y-82692000D01*
X126475000Y-82711000D01*
X126458000Y-82729000D01*
X126440000Y-82746000D01*
X126421000Y-82763000D01*
X126402000Y-82779000D01*
X126382000Y-82793000D01*
X126361000Y-82807000D01*
X126339000Y-82819000D01*
X126317000Y-82830000D01*
X126294000Y-82841000D01*
X126271000Y-82850000D01*
X126247000Y-82858000D01*
X126223000Y-82865000D01*
X126199000Y-82870000D01*
X126174000Y-82874000D01*
X126150000Y-82878000D01*
X126100000Y-82880000D01*
X125300000Y-82880000D01*
X125250000Y-82878000D01*
X125225000Y-82874000D01*
X125201000Y-82870000D01*
X125177000Y-82865000D01*
X125153000Y-82858000D01*
X125129000Y-82850000D01*
X125106000Y-82841000D01*
X125083000Y-82830000D01*
X125061000Y-82819000D01*
X125039000Y-82807000D01*
X125018000Y-82793000D01*
X124998000Y-82779000D01*
X124979000Y-82763000D01*
X124960000Y-82746000D01*
X124942000Y-82729000D01*
X124925000Y-82711000D01*
X124909000Y-82692000D01*
X124894000Y-82672000D01*
X124880000Y-82651000D01*
X124867000Y-82630000D01*
X124855000Y-82608000D01*
X124844000Y-82586000D01*
X124834000Y-82563000D01*
X124826000Y-82539000D01*
X124812000Y-82491000D01*
X124807000Y-82467000D01*
X124801000Y-82417000D01*
X124800000Y-82392000D01*
X124800000Y-82367000D01*
X124801000Y-82343000D01*
X124807000Y-82293000D01*
X124812000Y-82269000D01*
X124826000Y-82221000D01*
X124834000Y-82197000D01*
X124844000Y-82174000D01*
X124855000Y-82152000D01*
X124867000Y-82130000D01*
X124880000Y-82109000D01*
X124894000Y-82088000D01*
X124909000Y-82068000D01*
X124925000Y-82049000D01*
X124942000Y-82031000D01*
X124960000Y-82013000D01*
X124998000Y-81981000D01*
X125018000Y-81967000D01*
X125039000Y-81953000D01*
X125083000Y-81929000D01*
X125106000Y-81919000D01*
X125129000Y-81910000D01*
X125153000Y-81902000D01*
X125177000Y-81895000D01*
X125201000Y-81890000D01*
X125225000Y-81886000D01*
X125250000Y-81882000D01*
X125300000Y-81880000D01*
X126100000Y-81880000D01*
X126150000Y-81882000D01*
G37*
%TD*%
D10*
%TO.C,U2*%
X152300000Y-85990000D03*
X152300000Y-85070000D03*
X153160000Y-85070000D03*
X153160000Y-85990000D03*
D11*
X154892500Y-86505000D03*
X154892500Y-85855000D03*
X154892500Y-85205000D03*
X154892500Y-84555000D03*
X150567500Y-84555000D03*
X150567500Y-85205000D03*
X150567500Y-85855000D03*
X150567500Y-86505000D03*
%TD*%
D12*
%TO.C,C5*%
X155137500Y-88800000D03*
X153062500Y-88800000D03*
%TD*%
D13*
%TO.C,C4*%
X157137500Y-87400000D03*
X158862500Y-87400000D03*
%TD*%
D14*
%TO.C,C3*%
X147700000Y-83437500D03*
X147700000Y-85162500D03*
%TD*%
D15*
%TO.C,C2*%
X150462500Y-82600000D03*
X152537500Y-82600000D03*
%TD*%
D16*
%TO.C,R7*%
X158912500Y-84200000D03*
X157087500Y-84200000D03*
%TD*%
D17*
%TO.C,R8*%
X157087500Y-85800000D03*
X158912500Y-85800000D03*
%TD*%
D18*
%TO.C,F1*%
X158875000Y-89000000D03*
X157125000Y-89000000D03*
%TD*%
D19*
%TO.C,R1*%
X138800000Y-92012500D03*
X138800000Y-90187500D03*
%TD*%
D20*
%TO.C,U1*%
X137700000Y-82280000D03*
X136700000Y-82280000D03*
X135700000Y-82280000D03*
X134700000Y-82280000D03*
X133700000Y-82280000D03*
X133700000Y-88280000D03*
X134700000Y-88280000D03*
X135700000Y-88280000D03*
X136700000Y-88280000D03*
X137700000Y-88280000D03*
D21*
X135700000Y-85280000D03*
%TD*%
D22*
%TO.C,J1*%
X130500000Y-83500000D03*
X130500000Y-84300000D03*
D23*
X130500000Y-85450000D03*
X130500000Y-86450000D03*
X130500000Y-86950000D03*
X130500000Y-87950000D03*
D22*
X130500000Y-89900000D03*
X130500000Y-89100000D03*
D23*
X130500000Y-88450000D03*
X130500000Y-87450000D03*
X130500000Y-85950000D03*
X130500000Y-84950000D03*
D24*
X129880000Y-91020000D03*
D25*
X125700000Y-91020000D03*
X125700000Y-82380000D03*
%TD*%
D26*
%TO.C,C1*%
X138600000Y-80262500D03*
X138600000Y-78537500D03*
%TD*%
D27*
%TO.C,D1*%
X142300000Y-91115000D03*
X142300000Y-92085000D03*
%TD*%
D28*
%TO.C,SW1*%
X142230000Y-88803000D03*
X143500000Y-88803000D03*
X144770000Y-88803000D03*
X144770000Y-81197000D03*
X143500000Y-81197000D03*
X142230000Y-81197000D03*
%TD*%
D19*
%TO.C,R3*%
X135200000Y-80312500D03*
X135200000Y-78487500D03*
%TD*%
D29*
%TO.C,R5*%
X137200000Y-90187500D03*
X137200000Y-92012500D03*
%TD*%
%TO.C,R2*%
X135500000Y-90187500D03*
X135500000Y-92012500D03*
%TD*%
D19*
%TO.C,R4*%
X136900000Y-80312500D03*
X136900000Y-78487500D03*
%TD*%
D29*
%TO.C,R6*%
X140500000Y-90187500D03*
X140500000Y-92012500D03*
%TD*%
M02*
