%TF.GenerationSoftware,KiCad,Pcbnew,(6.0.4-0)*%
%TF.CreationDate,2023-08-08T13:47:07-06:00*%
%TF.ProjectId,usb_pd,7573625f-7064-42e6-9b69-6361645f7063,rev?*%
%TF.SameCoordinates,Original*%
%TF.FileFunction,Legend,Top*%
%TF.FilePolarity,Positive*%
%FSLAX46Y46*%
G04 Gerber Fmt 4.6, Leading zero omitted, Abs format (unit mm)*
G04 Created by KiCad (PCBNEW (6.0.4-0)) date 2023-08-08 13:47:07*
%MOMM*%
%LPD*%
G01*
G04 APERTURE LIST*
G04 Aperture macros list*
%AMRoundRect*
0 Rectangle with rounded corners*
0 $1 Rounding radius*
0 $2 $3 $4 $5 $6 $7 $8 $9 X,Y pos of 4 corners*
0 Add a 4 corners polygon primitive as box body*
4,1,4,$2,$3,$4,$5,$6,$7,$8,$9,$2,$3,0*
0 Add four circle primitives for the rounded corners*
1,1,$1+$1,$2,$3*
1,1,$1+$1,$4,$5*
1,1,$1+$1,$6,$7*
1,1,$1+$1,$8,$9*
0 Add four rect primitives between the rounded corners*
20,1,$1+$1,$2,$3,$4,$5,0*
20,1,$1+$1,$4,$5,$6,$7,0*
20,1,$1+$1,$6,$7,$8,$9,0*
20,1,$1+$1,$8,$9,$2,$3,0*%
G04 Aperture macros list end*
%ADD10C,0.150000*%
%ADD11C,0.152000*%
%ADD12C,0.120000*%
%ADD13C,0.100000*%
%ADD14C,0.300000*%
%ADD15RoundRect,0.100000X0.612500X0.100000X-0.612500X0.100000X-0.612500X-0.100000X0.612500X-0.100000X0*%
%ADD16R,1.730000X1.850000*%
%ADD17RoundRect,0.250000X0.337500X0.475000X-0.337500X0.475000X-0.337500X-0.475000X0.337500X-0.475000X0*%
%ADD18RoundRect,0.237500X-0.300000X-0.237500X0.300000X-0.237500X0.300000X0.237500X-0.300000X0.237500X0*%
%ADD19RoundRect,0.237500X-0.237500X0.300000X-0.237500X-0.300000X0.237500X-0.300000X0.237500X0.300000X0*%
%ADD20RoundRect,0.250000X-0.337500X-0.475000X0.337500X-0.475000X0.337500X0.475000X-0.337500X0.475000X0*%
%ADD21RoundRect,0.237500X0.250000X0.237500X-0.250000X0.237500X-0.250000X-0.237500X0.250000X-0.237500X0*%
%ADD22RoundRect,0.237500X-0.250000X-0.237500X0.250000X-0.237500X0.250000X0.237500X-0.250000X0.237500X0*%
%ADD23RoundRect,0.237500X0.287500X0.237500X-0.287500X0.237500X-0.287500X-0.237500X0.287500X-0.237500X0*%
%ADD24RoundRect,0.237500X0.237500X-0.250000X0.237500X0.250000X-0.237500X0.250000X-0.237500X-0.250000X0*%
%ADD25R,0.600000X1.500000*%
%ADD26R,3.300000X2.100000*%
%ADD27C,0.650000*%
%ADD28R,1.240000X0.600000*%
%ADD29R,1.240000X0.300000*%
%ADD30O,2.100000X1.000000*%
%ADD31O,1.800000X1.000000*%
%ADD32RoundRect,0.237500X0.237500X-0.300000X0.237500X0.300000X-0.237500X0.300000X-0.237500X-0.300000X0*%
%ADD33RoundRect,0.147500X-0.172500X0.147500X-0.172500X-0.147500X0.172500X-0.147500X0.172500X0.147500X0*%
%ADD34RoundRect,0.250000X0.625000X-0.350000X0.625000X0.350000X-0.625000X0.350000X-0.625000X-0.350000X0*%
%ADD35O,1.750000X1.200000*%
%ADD36O,0.560000X2.655000*%
%ADD37RoundRect,0.237500X-0.237500X0.250000X-0.237500X-0.250000X0.237500X-0.250000X0.237500X0.250000X0*%
G04 APERTURE END LIST*
D10*
X150219047Y-75547380D02*
X150219047Y-76356904D01*
X150266666Y-76452142D01*
X150314285Y-76499761D01*
X150409523Y-76547380D01*
X150600000Y-76547380D01*
X150695238Y-76499761D01*
X150742857Y-76452142D01*
X150790476Y-76356904D01*
X150790476Y-75547380D01*
X151219047Y-76499761D02*
X151361904Y-76547380D01*
X151600000Y-76547380D01*
X151695238Y-76499761D01*
X151742857Y-76452142D01*
X151790476Y-76356904D01*
X151790476Y-76261666D01*
X151742857Y-76166428D01*
X151695238Y-76118809D01*
X151600000Y-76071190D01*
X151409523Y-76023571D01*
X151314285Y-75975952D01*
X151266666Y-75928333D01*
X151219047Y-75833095D01*
X151219047Y-75737857D01*
X151266666Y-75642619D01*
X151314285Y-75595000D01*
X151409523Y-75547380D01*
X151647619Y-75547380D01*
X151790476Y-75595000D01*
X152552380Y-76023571D02*
X152695238Y-76071190D01*
X152742857Y-76118809D01*
X152790476Y-76214047D01*
X152790476Y-76356904D01*
X152742857Y-76452142D01*
X152695238Y-76499761D01*
X152600000Y-76547380D01*
X152219047Y-76547380D01*
X152219047Y-75547380D01*
X152552380Y-75547380D01*
X152647619Y-75595000D01*
X152695238Y-75642619D01*
X152742857Y-75737857D01*
X152742857Y-75833095D01*
X152695238Y-75928333D01*
X152647619Y-75975952D01*
X152552380Y-76023571D01*
X152219047Y-76023571D01*
X153219047Y-76166428D02*
X153980952Y-76166428D01*
X154457142Y-76547380D02*
X154457142Y-75547380D01*
X154838095Y-75547380D01*
X154933333Y-75595000D01*
X154980952Y-75642619D01*
X155028571Y-75737857D01*
X155028571Y-75880714D01*
X154980952Y-75975952D01*
X154933333Y-76023571D01*
X154838095Y-76071190D01*
X154457142Y-76071190D01*
X155457142Y-76547380D02*
X155457142Y-75547380D01*
X155695238Y-75547380D01*
X155838095Y-75595000D01*
X155933333Y-75690238D01*
X155980952Y-75785476D01*
X156028571Y-75975952D01*
X156028571Y-76118809D01*
X155980952Y-76309285D01*
X155933333Y-76404523D01*
X155838095Y-76499761D01*
X155695238Y-76547380D01*
X155457142Y-76547380D01*
X150576190Y-77585952D02*
X150480952Y-77538333D01*
X150433333Y-77490714D01*
X150385714Y-77395476D01*
X150385714Y-77347857D01*
X150433333Y-77252619D01*
X150480952Y-77205000D01*
X150576190Y-77157380D01*
X150766666Y-77157380D01*
X150861904Y-77205000D01*
X150909523Y-77252619D01*
X150957142Y-77347857D01*
X150957142Y-77395476D01*
X150909523Y-77490714D01*
X150861904Y-77538333D01*
X150766666Y-77585952D01*
X150576190Y-77585952D01*
X150480952Y-77633571D01*
X150433333Y-77681190D01*
X150385714Y-77776428D01*
X150385714Y-77966904D01*
X150433333Y-78062142D01*
X150480952Y-78109761D01*
X150576190Y-78157380D01*
X150766666Y-78157380D01*
X150861904Y-78109761D01*
X150909523Y-78062142D01*
X150957142Y-77966904D01*
X150957142Y-77776428D01*
X150909523Y-77681190D01*
X150861904Y-77633571D01*
X150766666Y-77585952D01*
X152100000Y-77109761D02*
X151242857Y-78395476D01*
X152385714Y-77252619D02*
X152433333Y-77205000D01*
X152528571Y-77157380D01*
X152766666Y-77157380D01*
X152861904Y-77205000D01*
X152909523Y-77252619D01*
X152957142Y-77347857D01*
X152957142Y-77443095D01*
X152909523Y-77585952D01*
X152338095Y-78157380D01*
X152957142Y-78157380D01*
X153576190Y-77157380D02*
X153671428Y-77157380D01*
X153766666Y-77205000D01*
X153814285Y-77252619D01*
X153861904Y-77347857D01*
X153909523Y-77538333D01*
X153909523Y-77776428D01*
X153861904Y-77966904D01*
X153814285Y-78062142D01*
X153766666Y-78109761D01*
X153671428Y-78157380D01*
X153576190Y-78157380D01*
X153480952Y-78109761D01*
X153433333Y-78062142D01*
X153385714Y-77966904D01*
X153338095Y-77776428D01*
X153338095Y-77538333D01*
X153385714Y-77347857D01*
X153433333Y-77252619D01*
X153480952Y-77205000D01*
X153576190Y-77157380D01*
X154290476Y-77252619D02*
X154338095Y-77205000D01*
X154433333Y-77157380D01*
X154671428Y-77157380D01*
X154766666Y-77205000D01*
X154814285Y-77252619D01*
X154861904Y-77347857D01*
X154861904Y-77443095D01*
X154814285Y-77585952D01*
X154242857Y-78157380D01*
X154861904Y-78157380D01*
X155195238Y-77157380D02*
X155814285Y-77157380D01*
X155480952Y-77538333D01*
X155623809Y-77538333D01*
X155719047Y-77585952D01*
X155766666Y-77633571D01*
X155814285Y-77728809D01*
X155814285Y-77966904D01*
X155766666Y-78062142D01*
X155719047Y-78109761D01*
X155623809Y-78157380D01*
X155338095Y-78157380D01*
X155242857Y-78109761D01*
X155195238Y-78062142D01*
%TO.C,U2*%
X154038095Y-91452380D02*
X154038095Y-92261904D01*
X154085714Y-92357142D01*
X154133333Y-92404761D01*
X154228571Y-92452380D01*
X154419047Y-92452380D01*
X154514285Y-92404761D01*
X154561904Y-92357142D01*
X154609523Y-92261904D01*
X154609523Y-91452380D01*
X155038095Y-91547619D02*
X155085714Y-91500000D01*
X155180952Y-91452380D01*
X155419047Y-91452380D01*
X155514285Y-91500000D01*
X155561904Y-91547619D01*
X155609523Y-91642857D01*
X155609523Y-91738095D01*
X155561904Y-91880952D01*
X154990476Y-92452380D01*
X155609523Y-92452380D01*
%TO.C,C5*%
X153933333Y-90837142D02*
X153885714Y-90884761D01*
X153742857Y-90932380D01*
X153647619Y-90932380D01*
X153504761Y-90884761D01*
X153409523Y-90789523D01*
X153361904Y-90694285D01*
X153314285Y-90503809D01*
X153314285Y-90360952D01*
X153361904Y-90170476D01*
X153409523Y-90075238D01*
X153504761Y-89980000D01*
X153647619Y-89932380D01*
X153742857Y-89932380D01*
X153885714Y-89980000D01*
X153933333Y-90027619D01*
X154838095Y-89932380D02*
X154361904Y-89932380D01*
X154314285Y-90408571D01*
X154361904Y-90360952D01*
X154457142Y-90313333D01*
X154695238Y-90313333D01*
X154790476Y-90360952D01*
X154838095Y-90408571D01*
X154885714Y-90503809D01*
X154885714Y-90741904D01*
X154838095Y-90837142D01*
X154790476Y-90884761D01*
X154695238Y-90932380D01*
X154457142Y-90932380D01*
X154361904Y-90884761D01*
X154314285Y-90837142D01*
%TO.C,C4*%
X156933333Y-91157142D02*
X156885714Y-91204761D01*
X156742857Y-91252380D01*
X156647619Y-91252380D01*
X156504761Y-91204761D01*
X156409523Y-91109523D01*
X156361904Y-91014285D01*
X156314285Y-90823809D01*
X156314285Y-90680952D01*
X156361904Y-90490476D01*
X156409523Y-90395238D01*
X156504761Y-90300000D01*
X156647619Y-90252380D01*
X156742857Y-90252380D01*
X156885714Y-90300000D01*
X156933333Y-90347619D01*
X157790476Y-90585714D02*
X157790476Y-91252380D01*
X157552380Y-90204761D02*
X157314285Y-90919047D01*
X157933333Y-90919047D01*
%TO.C,C3*%
X147957142Y-87066666D02*
X148004761Y-87114285D01*
X148052380Y-87257142D01*
X148052380Y-87352380D01*
X148004761Y-87495238D01*
X147909523Y-87590476D01*
X147814285Y-87638095D01*
X147623809Y-87685714D01*
X147480952Y-87685714D01*
X147290476Y-87638095D01*
X147195238Y-87590476D01*
X147100000Y-87495238D01*
X147052380Y-87352380D01*
X147052380Y-87257142D01*
X147100000Y-87114285D01*
X147147619Y-87066666D01*
X147052380Y-86733333D02*
X147052380Y-86114285D01*
X147433333Y-86447619D01*
X147433333Y-86304761D01*
X147480952Y-86209523D01*
X147528571Y-86161904D01*
X147623809Y-86114285D01*
X147861904Y-86114285D01*
X147957142Y-86161904D01*
X148004761Y-86209523D01*
X148052380Y-86304761D01*
X148052380Y-86590476D01*
X148004761Y-86685714D01*
X147957142Y-86733333D01*
%TO.C,C2*%
X151333333Y-81277142D02*
X151285714Y-81324761D01*
X151142857Y-81372380D01*
X151047619Y-81372380D01*
X150904761Y-81324761D01*
X150809523Y-81229523D01*
X150761904Y-81134285D01*
X150714285Y-80943809D01*
X150714285Y-80800952D01*
X150761904Y-80610476D01*
X150809523Y-80515238D01*
X150904761Y-80420000D01*
X151047619Y-80372380D01*
X151142857Y-80372380D01*
X151285714Y-80420000D01*
X151333333Y-80467619D01*
X151714285Y-80467619D02*
X151761904Y-80420000D01*
X151857142Y-80372380D01*
X152095238Y-80372380D01*
X152190476Y-80420000D01*
X152238095Y-80467619D01*
X152285714Y-80562857D01*
X152285714Y-80658095D01*
X152238095Y-80800952D01*
X151666666Y-81372380D01*
X152285714Y-81372380D01*
%TO.C,R7*%
X156633333Y-83052380D02*
X156300000Y-82576190D01*
X156061904Y-83052380D02*
X156061904Y-82052380D01*
X156442857Y-82052380D01*
X156538095Y-82100000D01*
X156585714Y-82147619D01*
X156633333Y-82242857D01*
X156633333Y-82385714D01*
X156585714Y-82480952D01*
X156538095Y-82528571D01*
X156442857Y-82576190D01*
X156061904Y-82576190D01*
X156966666Y-82052380D02*
X157633333Y-82052380D01*
X157204761Y-83052380D01*
%TO.C,R8*%
X158833333Y-83052380D02*
X158500000Y-82576190D01*
X158261904Y-83052380D02*
X158261904Y-82052380D01*
X158642857Y-82052380D01*
X158738095Y-82100000D01*
X158785714Y-82147619D01*
X158833333Y-82242857D01*
X158833333Y-82385714D01*
X158785714Y-82480952D01*
X158738095Y-82528571D01*
X158642857Y-82576190D01*
X158261904Y-82576190D01*
X159404761Y-82480952D02*
X159309523Y-82433333D01*
X159261904Y-82385714D01*
X159214285Y-82290476D01*
X159214285Y-82242857D01*
X159261904Y-82147619D01*
X159309523Y-82100000D01*
X159404761Y-82052380D01*
X159595238Y-82052380D01*
X159690476Y-82100000D01*
X159738095Y-82147619D01*
X159785714Y-82242857D01*
X159785714Y-82290476D01*
X159738095Y-82385714D01*
X159690476Y-82433333D01*
X159595238Y-82480952D01*
X159404761Y-82480952D01*
X159309523Y-82528571D01*
X159261904Y-82576190D01*
X159214285Y-82671428D01*
X159214285Y-82861904D01*
X159261904Y-82957142D01*
X159309523Y-83004761D01*
X159404761Y-83052380D01*
X159595238Y-83052380D01*
X159690476Y-83004761D01*
X159738095Y-82957142D01*
X159785714Y-82861904D01*
X159785714Y-82671428D01*
X159738095Y-82576190D01*
X159690476Y-82528571D01*
X159595238Y-82480952D01*
%TO.C,F1*%
X158766666Y-90728571D02*
X158433333Y-90728571D01*
X158433333Y-91252380D02*
X158433333Y-90252380D01*
X158909523Y-90252380D01*
X159814285Y-91252380D02*
X159242857Y-91252380D01*
X159528571Y-91252380D02*
X159528571Y-90252380D01*
X159433333Y-90395238D01*
X159338095Y-90490476D01*
X159242857Y-90538095D01*
%TO.C,R1*%
X139252380Y-93854166D02*
X138776190Y-94187500D01*
X139252380Y-94425595D02*
X138252380Y-94425595D01*
X138252380Y-94044642D01*
X138300000Y-93949404D01*
X138347619Y-93901785D01*
X138442857Y-93854166D01*
X138585714Y-93854166D01*
X138680952Y-93901785D01*
X138728571Y-93949404D01*
X138776190Y-94044642D01*
X138776190Y-94425595D01*
X139252380Y-92901785D02*
X139252380Y-93473214D01*
X139252380Y-93187500D02*
X138252380Y-93187500D01*
X138395238Y-93282738D01*
X138490476Y-93377976D01*
X138538095Y-93473214D01*
D11*
%TO.C,U1*%
X138574071Y-83112657D02*
X139499357Y-83112657D01*
X139608214Y-83058228D01*
X139662642Y-83003800D01*
X139717071Y-82894942D01*
X139717071Y-82677228D01*
X139662642Y-82568371D01*
X139608214Y-82513942D01*
X139499357Y-82459514D01*
X138574071Y-82459514D01*
X139717071Y-81316514D02*
X139717071Y-81969657D01*
X139717071Y-81643085D02*
X138574071Y-81643085D01*
X138737357Y-81751942D01*
X138846214Y-81860800D01*
X138900642Y-81969657D01*
%TO.C,J1*%
X129474071Y-95259514D02*
X130290500Y-95259514D01*
X130453785Y-95313942D01*
X130562642Y-95422800D01*
X130617071Y-95586085D01*
X130617071Y-95694942D01*
X130617071Y-94116514D02*
X130617071Y-94769657D01*
X130617071Y-94443085D02*
X129474071Y-94443085D01*
X129637357Y-94551942D01*
X129746214Y-94660800D01*
X129800642Y-94769657D01*
D10*
%TO.C,C1*%
X139057142Y-76866666D02*
X139104761Y-76914285D01*
X139152380Y-77057142D01*
X139152380Y-77152380D01*
X139104761Y-77295238D01*
X139009523Y-77390476D01*
X138914285Y-77438095D01*
X138723809Y-77485714D01*
X138580952Y-77485714D01*
X138390476Y-77438095D01*
X138295238Y-77390476D01*
X138200000Y-77295238D01*
X138152380Y-77152380D01*
X138152380Y-77057142D01*
X138200000Y-76914285D01*
X138247619Y-76866666D01*
X139152380Y-75914285D02*
X139152380Y-76485714D01*
X139152380Y-76200000D02*
X138152380Y-76200000D01*
X138295238Y-76295238D01*
X138390476Y-76390476D01*
X138438095Y-76485714D01*
%TO.C,D1*%
X142952380Y-94438095D02*
X141952380Y-94438095D01*
X141952380Y-94200000D01*
X142000000Y-94057142D01*
X142095238Y-93961904D01*
X142190476Y-93914285D01*
X142380952Y-93866666D01*
X142523809Y-93866666D01*
X142714285Y-93914285D01*
X142809523Y-93961904D01*
X142904761Y-94057142D01*
X142952380Y-94200000D01*
X142952380Y-94438095D01*
X142952380Y-92914285D02*
X142952380Y-93485714D01*
X142952380Y-93200000D02*
X141952380Y-93200000D01*
X142095238Y-93295238D01*
X142190476Y-93390476D01*
X142238095Y-93485714D01*
%TO.C,J2*%
X160952380Y-82433333D02*
X161666666Y-82433333D01*
X161809523Y-82480952D01*
X161904761Y-82576190D01*
X161952380Y-82719047D01*
X161952380Y-82814285D01*
X161047619Y-82004761D02*
X161000000Y-81957142D01*
X160952380Y-81861904D01*
X160952380Y-81623809D01*
X161000000Y-81528571D01*
X161047619Y-81480952D01*
X161142857Y-81433333D01*
X161238095Y-81433333D01*
X161380952Y-81480952D01*
X161952380Y-82052380D01*
X161952380Y-81433333D01*
D11*
%TO.C,SW1*%
X143816514Y-79874642D02*
X143979800Y-79929071D01*
X144251942Y-79929071D01*
X144360800Y-79874642D01*
X144415228Y-79820214D01*
X144469657Y-79711357D01*
X144469657Y-79602500D01*
X144415228Y-79493642D01*
X144360800Y-79439214D01*
X144251942Y-79384785D01*
X144034228Y-79330357D01*
X143925371Y-79275928D01*
X143870942Y-79221500D01*
X143816514Y-79112642D01*
X143816514Y-79003785D01*
X143870942Y-78894928D01*
X143925371Y-78840500D01*
X144034228Y-78786071D01*
X144306371Y-78786071D01*
X144469657Y-78840500D01*
X144850657Y-78786071D02*
X145122800Y-79929071D01*
X145340514Y-79112642D01*
X145558228Y-79929071D01*
X145830371Y-78786071D01*
X146864514Y-79929071D02*
X146211371Y-79929071D01*
X146537942Y-79929071D02*
X146537942Y-78786071D01*
X146429085Y-78949357D01*
X146320228Y-79058214D01*
X146211371Y-79112642D01*
D10*
%TO.C,R3*%
X135752380Y-76966666D02*
X135276190Y-77300000D01*
X135752380Y-77538095D02*
X134752380Y-77538095D01*
X134752380Y-77157142D01*
X134800000Y-77061904D01*
X134847619Y-77014285D01*
X134942857Y-76966666D01*
X135085714Y-76966666D01*
X135180952Y-77014285D01*
X135228571Y-77061904D01*
X135276190Y-77157142D01*
X135276190Y-77538095D01*
X134752380Y-76633333D02*
X134752380Y-76014285D01*
X135133333Y-76347619D01*
X135133333Y-76204761D01*
X135180952Y-76109523D01*
X135228571Y-76061904D01*
X135323809Y-76014285D01*
X135561904Y-76014285D01*
X135657142Y-76061904D01*
X135704761Y-76109523D01*
X135752380Y-76204761D01*
X135752380Y-76490476D01*
X135704761Y-76585714D01*
X135657142Y-76633333D01*
%TO.C,R5*%
X137552380Y-93966666D02*
X137076190Y-94300000D01*
X137552380Y-94538095D02*
X136552380Y-94538095D01*
X136552380Y-94157142D01*
X136600000Y-94061904D01*
X136647619Y-94014285D01*
X136742857Y-93966666D01*
X136885714Y-93966666D01*
X136980952Y-94014285D01*
X137028571Y-94061904D01*
X137076190Y-94157142D01*
X137076190Y-94538095D01*
X136552380Y-93061904D02*
X136552380Y-93538095D01*
X137028571Y-93585714D01*
X136980952Y-93538095D01*
X136933333Y-93442857D01*
X136933333Y-93204761D01*
X136980952Y-93109523D01*
X137028571Y-93061904D01*
X137123809Y-93014285D01*
X137361904Y-93014285D01*
X137457142Y-93061904D01*
X137504761Y-93109523D01*
X137552380Y-93204761D01*
X137552380Y-93442857D01*
X137504761Y-93538095D01*
X137457142Y-93585714D01*
%TO.C,R2*%
X135952380Y-93876666D02*
X135476190Y-94210000D01*
X135952380Y-94448095D02*
X134952380Y-94448095D01*
X134952380Y-94067142D01*
X135000000Y-93971904D01*
X135047619Y-93924285D01*
X135142857Y-93876666D01*
X135285714Y-93876666D01*
X135380952Y-93924285D01*
X135428571Y-93971904D01*
X135476190Y-94067142D01*
X135476190Y-94448095D01*
X135047619Y-93495714D02*
X135000000Y-93448095D01*
X134952380Y-93352857D01*
X134952380Y-93114761D01*
X135000000Y-93019523D01*
X135047619Y-92971904D01*
X135142857Y-92924285D01*
X135238095Y-92924285D01*
X135380952Y-92971904D01*
X135952380Y-93543333D01*
X135952380Y-92924285D01*
%TO.C,R4*%
X137352380Y-76966666D02*
X136876190Y-77300000D01*
X137352380Y-77538095D02*
X136352380Y-77538095D01*
X136352380Y-77157142D01*
X136400000Y-77061904D01*
X136447619Y-77014285D01*
X136542857Y-76966666D01*
X136685714Y-76966666D01*
X136780952Y-77014285D01*
X136828571Y-77061904D01*
X136876190Y-77157142D01*
X136876190Y-77538095D01*
X136685714Y-76109523D02*
X137352380Y-76109523D01*
X136304761Y-76347619D02*
X137019047Y-76585714D01*
X137019047Y-75966666D01*
%TO.C,R6*%
X140952380Y-93966666D02*
X140476190Y-94300000D01*
X140952380Y-94538095D02*
X139952380Y-94538095D01*
X139952380Y-94157142D01*
X140000000Y-94061904D01*
X140047619Y-94014285D01*
X140142857Y-93966666D01*
X140285714Y-93966666D01*
X140380952Y-94014285D01*
X140428571Y-94061904D01*
X140476190Y-94157142D01*
X140476190Y-94538095D01*
X139952380Y-93109523D02*
X139952380Y-93300000D01*
X140000000Y-93395238D01*
X140047619Y-93442857D01*
X140190476Y-93538095D01*
X140380952Y-93585714D01*
X140761904Y-93585714D01*
X140857142Y-93538095D01*
X140904761Y-93490476D01*
X140952380Y-93395238D01*
X140952380Y-93204761D01*
X140904761Y-93109523D01*
X140857142Y-93061904D01*
X140761904Y-93014285D01*
X140523809Y-93014285D01*
X140428571Y-93061904D01*
X140380952Y-93109523D01*
X140333333Y-93204761D01*
X140333333Y-93395238D01*
X140380952Y-93490476D01*
X140428571Y-93538095D01*
X140523809Y-93585714D01*
D12*
%TO.C,U2*%
X152730000Y-83920000D02*
X151230000Y-83920000D01*
X152730000Y-87140000D02*
X155605000Y-87140000D01*
X152730000Y-83920000D02*
X154230000Y-83920000D01*
X152730000Y-87140000D02*
X151230000Y-87140000D01*
%TO.C,C5*%
X154361252Y-89535000D02*
X153838748Y-89535000D01*
X154361252Y-88065000D02*
X153838748Y-88065000D01*
%TO.C,C4*%
X157853733Y-86890000D02*
X158146267Y-86890000D01*
X157853733Y-87910000D02*
X158146267Y-87910000D01*
%TO.C,C3*%
X148210000Y-84153733D02*
X148210000Y-84446267D01*
X147190000Y-84153733D02*
X147190000Y-84446267D01*
%TO.C,C2*%
X151238748Y-81865000D02*
X151761252Y-81865000D01*
X151238748Y-83335000D02*
X151761252Y-83335000D01*
%TO.C,R7*%
X158254724Y-84722500D02*
X157745276Y-84722500D01*
X158254724Y-83677500D02*
X157745276Y-83677500D01*
%TO.C,R8*%
X157745276Y-85277500D02*
X158254724Y-85277500D01*
X157745276Y-86322500D02*
X158254724Y-86322500D01*
%TO.C,F1*%
X158171267Y-89510000D02*
X157828733Y-89510000D01*
X158171267Y-88490000D02*
X157828733Y-88490000D01*
%TO.C,R1*%
X138277500Y-91354724D02*
X138277500Y-90845276D01*
X139322500Y-91354724D02*
X139322500Y-90845276D01*
D10*
%TO.C,U1*%
X138200000Y-84800000D02*
X138100000Y-84800000D01*
X138200000Y-85860000D02*
X138200000Y-86100000D01*
X138200000Y-86100000D02*
X138200000Y-87230000D01*
X138160000Y-85820000D02*
X138200000Y-85860000D01*
X138200000Y-87230000D02*
X133200000Y-87230000D01*
X138200000Y-83330000D02*
X138200000Y-84800000D01*
X138200000Y-83330000D02*
X133200000Y-83330000D01*
X133200000Y-83330000D02*
X133200000Y-87230000D01*
X138100000Y-84800000D02*
G75*
G03*
X137620000Y-85280000I1J-480001D01*
G01*
X137619986Y-85280154D02*
G75*
G03*
X138160000Y-85820000I496014J-43846D01*
G01*
X137984000Y-83880000D02*
G75*
G03*
X137984000Y-83880000I-284000J0D01*
G01*
D12*
%TO.C,C1*%
X139110000Y-79546267D02*
X139110000Y-79253733D01*
X138090000Y-79546267D02*
X138090000Y-79253733D01*
D13*
%TO.C,D1*%
X142350000Y-90510000D02*
G75*
G03*
X142350000Y-90510000I-50000J0D01*
G01*
D12*
%TO.C,J2*%
X166450000Y-87800000D02*
X168710000Y-87800000D01*
X162490000Y-84360000D02*
X162490000Y-84640000D01*
X166450000Y-87800000D02*
X164850000Y-87800000D01*
X164850000Y-85200000D02*
X164850000Y-84200000D01*
X164850000Y-84200000D02*
X166450000Y-84200000D01*
X168710000Y-83440000D02*
X160890000Y-83440000D01*
X168710000Y-87000000D02*
X164350000Y-87000000D01*
X164350000Y-86000000D02*
X168710000Y-86000000D01*
X160890000Y-89560000D02*
X168710000Y-89560000D01*
X162490000Y-88360000D02*
X161275000Y-88360000D01*
X164350000Y-87000000D02*
X164350000Y-86000000D01*
X162490000Y-88360000D02*
X162490000Y-88640000D01*
X166450000Y-88800000D02*
X166450000Y-87800000D01*
X164850000Y-88800000D02*
X166450000Y-88800000D01*
X160890000Y-83440000D02*
X160890000Y-84360000D01*
X166450000Y-84200000D02*
X166450000Y-85200000D01*
X162490000Y-83440000D02*
X162490000Y-84360000D01*
X160890000Y-84360000D02*
X162490000Y-84360000D01*
X168710000Y-89560000D02*
X168710000Y-83440000D01*
X166450000Y-88300000D02*
X168710000Y-88300000D01*
X164850000Y-87800000D02*
X164850000Y-88800000D01*
X160890000Y-88640000D02*
X160890000Y-89560000D01*
X166450000Y-85200000D02*
X164850000Y-85200000D01*
X162490000Y-88640000D02*
X160890000Y-88640000D01*
X162490000Y-89560000D02*
X162490000Y-88640000D01*
D11*
%TO.C,SW1*%
X140719000Y-82753000D02*
X146281000Y-82753000D01*
X146281000Y-87246000D02*
X140719000Y-87246000D01*
X146281000Y-82753000D02*
X146281000Y-87246000D01*
X140719000Y-87246000D02*
X140719000Y-82753000D01*
D14*
X141648000Y-88803000D02*
G75*
G03*
X141648000Y-88803000I-150000J0D01*
G01*
X142380000Y-86494000D02*
G75*
G03*
X142380000Y-86494000I-150000J0D01*
G01*
D12*
%TO.C,R3*%
X135722500Y-79654724D02*
X135722500Y-79145276D01*
X134677500Y-79654724D02*
X134677500Y-79145276D01*
%TO.C,R5*%
X136677500Y-90845276D02*
X136677500Y-91354724D01*
X137722500Y-90845276D02*
X137722500Y-91354724D01*
%TO.C,R2*%
X136022500Y-90845276D02*
X136022500Y-91354724D01*
X134977500Y-90845276D02*
X134977500Y-91354724D01*
%TO.C,R4*%
X136377500Y-79654724D02*
X136377500Y-79145276D01*
X137422500Y-79654724D02*
X137422500Y-79145276D01*
%TO.C,R6*%
X141022500Y-90845276D02*
X141022500Y-91354724D01*
X139977500Y-90845276D02*
X139977500Y-91354724D01*
%TD*%
%LPC*%
D15*
%TO.C,U2*%
X154892500Y-86505000D03*
X154892500Y-85855000D03*
X154892500Y-85205000D03*
X154892500Y-84555000D03*
X150567500Y-84555000D03*
X150567500Y-85205000D03*
X150567500Y-85855000D03*
X150567500Y-86505000D03*
D16*
X152730000Y-85530000D03*
%TD*%
D17*
%TO.C,C5*%
X155137500Y-88800000D03*
X153062500Y-88800000D03*
%TD*%
D18*
%TO.C,C4*%
X157137500Y-87400000D03*
X158862500Y-87400000D03*
%TD*%
D19*
%TO.C,C3*%
X147700000Y-83437500D03*
X147700000Y-85162500D03*
%TD*%
D20*
%TO.C,C2*%
X150462500Y-82600000D03*
X152537500Y-82600000D03*
%TD*%
D21*
%TO.C,R7*%
X158912500Y-84200000D03*
X157087500Y-84200000D03*
%TD*%
D22*
%TO.C,R8*%
X157087500Y-85800000D03*
X158912500Y-85800000D03*
%TD*%
D23*
%TO.C,F1*%
X158875000Y-89000000D03*
X157125000Y-89000000D03*
%TD*%
D24*
%TO.C,R1*%
X138800000Y-92012500D03*
X138800000Y-90187500D03*
%TD*%
D25*
%TO.C,U1*%
X137700000Y-82280000D03*
X136700000Y-82280000D03*
X135700000Y-82280000D03*
X134700000Y-82280000D03*
X133700000Y-82280000D03*
X133700000Y-88280000D03*
X134700000Y-88280000D03*
X135700000Y-88280000D03*
X136700000Y-88280000D03*
X137700000Y-88280000D03*
D26*
X135700000Y-85280000D03*
%TD*%
D27*
%TO.C,J1*%
X129380000Y-83800000D03*
X129380000Y-89590000D03*
D28*
X130500000Y-83500000D03*
X130500000Y-84300000D03*
D29*
X130500000Y-85450000D03*
X130500000Y-86450000D03*
X130500000Y-86950000D03*
X130500000Y-87950000D03*
D28*
X130500000Y-89900000D03*
X130500000Y-89100000D03*
D29*
X130500000Y-88450000D03*
X130500000Y-87450000D03*
X130500000Y-85950000D03*
X130500000Y-84950000D03*
D30*
X129880000Y-82380000D03*
X129880000Y-91020000D03*
D31*
X125700000Y-91020000D03*
X125700000Y-82380000D03*
%TD*%
D32*
%TO.C,C1*%
X138600000Y-80262500D03*
X138600000Y-78537500D03*
%TD*%
D33*
%TO.C,D1*%
X142300000Y-91115000D03*
X142300000Y-92085000D03*
%TD*%
D34*
%TO.C,J2*%
X162350000Y-87500000D03*
D35*
X162350000Y-85500000D03*
%TD*%
D36*
%TO.C,SW1*%
X142230000Y-88803000D03*
X143500000Y-88803000D03*
X144770000Y-88803000D03*
X144770000Y-81197000D03*
X143500000Y-81197000D03*
X142230000Y-81197000D03*
%TD*%
D24*
%TO.C,R3*%
X135200000Y-80312500D03*
X135200000Y-78487500D03*
%TD*%
D37*
%TO.C,R5*%
X137200000Y-90187500D03*
X137200000Y-92012500D03*
%TD*%
%TO.C,R2*%
X135500000Y-90187500D03*
X135500000Y-92012500D03*
%TD*%
D24*
%TO.C,R4*%
X136900000Y-80312500D03*
X136900000Y-78487500D03*
%TD*%
D37*
%TO.C,R6*%
X140500000Y-90187500D03*
X140500000Y-92012500D03*
%TD*%
M02*
