M48
; DRILL file {KiCad (6.0.4-0)} date Tuesday, August 08, 2023 at 01:47:07 PM
; FORMAT={-:-/ absolute / inch / decimal}
; #@! TF.CreationDate,2023-08-08T13:47:07-06:00
; #@! TF.GenerationSoftware,Kicad,Pcbnew,(6.0.4-0)
; #@! TF.FileFunction,Plated,1,2,PTH
FMAT,2
INCH
; #@! TA.AperFunction,Plated,PTH,ViaDrill
T1C0.0157
; #@! TA.AperFunction,Plated,PTH,ComponentDrill
T2C0.0236
; #@! TA.AperFunction,Plated,PTH,ComponentDrill
T3C0.0295
%
G90
G05
T1
X5.185Y-3.5709
X5.189Y-3.2559
X5.1958Y-3.3218
X5.2953Y-3.3346
X5.2953Y-3.378
X5.3031Y-3.4291
X5.3425Y-3.3543
X5.3898Y-3.3386
X5.3898Y-3.3819
X5.4567Y-3.4764
X5.4843Y-3.4173
X5.5984Y-3.2756
X5.5984Y-3.3661
X5.6457Y-3.6245
X5.6969Y-3.3819
X5.815Y-3.2362
X5.874Y-3.3268
X5.874Y-3.4055
T3
X6.3917Y-3.3661
X6.3917Y-3.4449
T2
G00X4.9646Y-3.2433
M15
G01X4.9331Y-3.2433
M16
G05
G00X4.9646Y-3.5835
M15
G01X4.9331Y-3.5835
M16
G05
G00X5.135Y-3.2433
M15
G01X5.0917Y-3.2433
M16
G05
G00X5.135Y-3.5835
M15
G01X5.0917Y-3.5835
M16
G05
T0
M30
