%TF.GenerationSoftware,KiCad,Pcbnew,(6.0.4-0)*%
%TF.CreationDate,2023-08-08T13:47:07-06:00*%
%TF.ProjectId,usb_pd,7573625f-7064-42e6-9b69-6361645f7063,rev?*%
%TF.SameCoordinates,Original*%
%TF.FileFunction,Other,Comment*%
%FSLAX46Y46*%
G04 Gerber Fmt 4.6, Leading zero omitted, Abs format (unit mm)*
G04 Created by KiCad (PCBNEW (6.0.4-0)) date 2023-08-08 13:47:07*
%MOMM*%
%LPD*%
G01*
G04 APERTURE LIST*
%ADD10C,0.300000*%
%ADD11C,0.250000*%
G04 APERTURE END LIST*
D10*
%TO.C,U1*%
X138009000Y-81470000D02*
G75*
G03*
X138009000Y-81470000I-150000J0D01*
G01*
D11*
%TO.C,J1*%
X129505000Y-83800000D02*
G75*
G03*
X129505000Y-83800000I-125000J0D01*
G01*
X129505000Y-89590000D02*
G75*
G03*
X129505000Y-89590000I-125000J0D01*
G01*
D10*
%TO.C,SW1*%
X142380000Y-89650000D02*
G75*
G03*
X142380000Y-89650000I-150000J0D01*
G01*
G36*
X142330000Y-83375000D02*
G01*
X142240000Y-83375000D01*
X142240000Y-83345000D01*
X142330000Y-83345000D01*
X142330000Y-83375000D01*
G37*
G36*
X142390000Y-83405000D02*
G01*
X142270000Y-83405000D01*
X142270000Y-83375000D01*
X142390000Y-83375000D01*
X142390000Y-83405000D01*
G37*
G36*
X142690000Y-83435000D02*
G01*
X142270000Y-83435000D01*
X142270000Y-83405000D01*
X142690000Y-83405000D01*
X142690000Y-83435000D01*
G37*
G36*
X142690000Y-82685000D02*
G01*
X142510000Y-82685000D01*
X142510000Y-82655000D01*
X142690000Y-82655000D01*
X142690000Y-82685000D01*
G37*
G36*
X142720000Y-82565000D02*
G01*
X142240000Y-82565000D01*
X142240000Y-82535000D01*
X142720000Y-82535000D01*
X142720000Y-82565000D01*
G37*
G36*
X142720000Y-82655000D02*
G01*
X142240000Y-82655000D01*
X142240000Y-82625000D01*
X142720000Y-82625000D01*
X142720000Y-82655000D01*
G37*
G36*
X142720000Y-83315000D02*
G01*
X142660000Y-83315000D01*
X142660000Y-83285000D01*
X142720000Y-83285000D01*
X142720000Y-83315000D01*
G37*
G36*
X142690000Y-83165000D02*
G01*
X142570000Y-83165000D01*
X142570000Y-83135000D01*
X142690000Y-83135000D01*
X142690000Y-83165000D01*
G37*
G36*
X145050000Y-87375000D02*
G01*
X144990000Y-87375000D01*
X144990000Y-87345000D01*
X145050000Y-87345000D01*
X145050000Y-87375000D01*
G37*
G36*
X142390000Y-87495000D02*
G01*
X142330000Y-87495000D01*
X142330000Y-87465000D01*
X142390000Y-87465000D01*
X142390000Y-87495000D01*
G37*
G36*
X142720000Y-83375000D02*
G01*
X142630000Y-83375000D01*
X142630000Y-83345000D01*
X142720000Y-83345000D01*
X142720000Y-83375000D01*
G37*
G36*
X142690000Y-83135000D02*
G01*
X142270000Y-83135000D01*
X142270000Y-83105000D01*
X142690000Y-83105000D01*
X142690000Y-83135000D01*
G37*
G36*
X142720000Y-87315000D02*
G01*
X142240000Y-87315000D01*
X142240000Y-87285000D01*
X142720000Y-87285000D01*
X142720000Y-87315000D01*
G37*
G36*
X144840000Y-87345000D02*
G01*
X144780000Y-87345000D01*
X144780000Y-87315000D01*
X144840000Y-87315000D01*
X144840000Y-87345000D01*
G37*
G36*
X145050000Y-87345000D02*
G01*
X144960000Y-87345000D01*
X144960000Y-87315000D01*
X145050000Y-87315000D01*
X145050000Y-87345000D01*
G37*
G36*
X145230000Y-87495000D02*
G01*
X145170000Y-87495000D01*
X145170000Y-87465000D01*
X145230000Y-87465000D01*
X145230000Y-87495000D01*
G37*
G36*
X142330000Y-83345000D02*
G01*
X142240000Y-83345000D01*
X142240000Y-83315000D01*
X142330000Y-83315000D01*
X142330000Y-83345000D01*
G37*
G36*
X142390000Y-87465000D02*
G01*
X142330000Y-87465000D01*
X142330000Y-87435000D01*
X142390000Y-87435000D01*
X142390000Y-87465000D01*
G37*
G36*
X145080000Y-87315000D02*
G01*
X144780000Y-87315000D01*
X144780000Y-87285000D01*
X145080000Y-87285000D01*
X145080000Y-87315000D01*
G37*
G36*
X145200000Y-87225000D02*
G01*
X145050000Y-87225000D01*
X145050000Y-87195000D01*
X145200000Y-87195000D01*
X145200000Y-87225000D01*
G37*
G36*
X142570000Y-82775000D02*
G01*
X142390000Y-82775000D01*
X142390000Y-82745000D01*
X142570000Y-82745000D01*
X142570000Y-82775000D01*
G37*
G36*
X145050000Y-87405000D02*
G01*
X144990000Y-87405000D01*
X144990000Y-87375000D01*
X145050000Y-87375000D01*
X145050000Y-87405000D01*
G37*
G36*
X142720000Y-87285000D02*
G01*
X142240000Y-87285000D01*
X142240000Y-87255000D01*
X142720000Y-87255000D01*
X142720000Y-87285000D01*
G37*
G36*
X142450000Y-82835000D02*
G01*
X142300000Y-82835000D01*
X142300000Y-82805000D01*
X142450000Y-82805000D01*
X142450000Y-82835000D01*
G37*
G36*
X144870000Y-87435000D02*
G01*
X144780000Y-87435000D01*
X144780000Y-87405000D01*
X144870000Y-87405000D01*
X144870000Y-87435000D01*
G37*
G36*
X142300000Y-83315000D02*
G01*
X142240000Y-83315000D01*
X142240000Y-83285000D01*
X142300000Y-83285000D01*
X142300000Y-83315000D01*
G37*
G36*
X142630000Y-83075000D02*
G01*
X142330000Y-83075000D01*
X142330000Y-83045000D01*
X142630000Y-83045000D01*
X142630000Y-83075000D01*
G37*
G36*
X142540000Y-83525000D02*
G01*
X142420000Y-83525000D01*
X142420000Y-83495000D01*
X142540000Y-83495000D01*
X142540000Y-83525000D01*
G37*
G36*
X142720000Y-87375000D02*
G01*
X142270000Y-87375000D01*
X142270000Y-87345000D01*
X142720000Y-87345000D01*
X142720000Y-87375000D01*
G37*
G36*
X142300000Y-83285000D02*
G01*
X142240000Y-83285000D01*
X142240000Y-83255000D01*
X142300000Y-83255000D01*
X142300000Y-83285000D01*
G37*
G36*
X142300000Y-83255000D02*
G01*
X142240000Y-83255000D01*
X142240000Y-83225000D01*
X142300000Y-83225000D01*
X142300000Y-83255000D01*
G37*
G36*
X142630000Y-83495000D02*
G01*
X142330000Y-83495000D01*
X142330000Y-83465000D01*
X142630000Y-83465000D01*
X142630000Y-83495000D01*
G37*
G36*
X142720000Y-87345000D02*
G01*
X142240000Y-87345000D01*
X142240000Y-87315000D01*
X142720000Y-87315000D01*
X142720000Y-87345000D01*
G37*
G36*
X142720000Y-82625000D02*
G01*
X142240000Y-82625000D01*
X142240000Y-82595000D01*
X142720000Y-82595000D01*
X142720000Y-82625000D01*
G37*
G36*
X142420000Y-82865000D02*
G01*
X142240000Y-82865000D01*
X142240000Y-82835000D01*
X142420000Y-82835000D01*
X142420000Y-82865000D01*
G37*
G36*
X142720000Y-82895000D02*
G01*
X142240000Y-82895000D01*
X142240000Y-82865000D01*
X142720000Y-82865000D01*
X142720000Y-82895000D01*
G37*
G36*
X142330000Y-83225000D02*
G01*
X142240000Y-83225000D01*
X142240000Y-83195000D01*
X142330000Y-83195000D01*
X142330000Y-83225000D01*
G37*
G36*
X144840000Y-87405000D02*
G01*
X144780000Y-87405000D01*
X144780000Y-87375000D01*
X144840000Y-87375000D01*
X144840000Y-87405000D01*
G37*
G36*
X142720000Y-82595000D02*
G01*
X142240000Y-82595000D01*
X142240000Y-82565000D01*
X142720000Y-82565000D01*
X142720000Y-82595000D01*
G37*
G36*
X142660000Y-82715000D02*
G01*
X142480000Y-82715000D01*
X142480000Y-82685000D01*
X142660000Y-82685000D01*
X142660000Y-82715000D01*
G37*
G36*
X142720000Y-82925000D02*
G01*
X142240000Y-82925000D01*
X142240000Y-82895000D01*
X142720000Y-82895000D01*
X142720000Y-82925000D01*
G37*
G36*
X142390000Y-83165000D02*
G01*
X142270000Y-83165000D01*
X142270000Y-83135000D01*
X142390000Y-83135000D01*
X142390000Y-83165000D01*
G37*
G36*
X142720000Y-82955000D02*
G01*
X142240000Y-82955000D01*
X142240000Y-82925000D01*
X142720000Y-82925000D01*
X142720000Y-82955000D01*
G37*
G36*
X145230000Y-87255000D02*
G01*
X145020000Y-87255000D01*
X145020000Y-87225000D01*
X145230000Y-87225000D01*
X145230000Y-87255000D01*
G37*
G36*
X142720000Y-83345000D02*
G01*
X142630000Y-83345000D01*
X142630000Y-83315000D01*
X142720000Y-83315000D01*
X142720000Y-83345000D01*
G37*
G36*
X145260000Y-87345000D02*
G01*
X145200000Y-87345000D01*
X145200000Y-87315000D01*
X145260000Y-87315000D01*
X145260000Y-87345000D01*
G37*
G36*
X142390000Y-87435000D02*
G01*
X142300000Y-87435000D01*
X142300000Y-87405000D01*
X142390000Y-87405000D01*
X142390000Y-87435000D01*
G37*
G36*
X145260000Y-87405000D02*
G01*
X145200000Y-87405000D01*
X145200000Y-87375000D01*
X145260000Y-87375000D01*
X145260000Y-87405000D01*
G37*
G36*
X145260000Y-87285000D02*
G01*
X144780000Y-87285000D01*
X144780000Y-87255000D01*
X145260000Y-87255000D01*
X145260000Y-87285000D01*
G37*
G36*
X142690000Y-83405000D02*
G01*
X142570000Y-83405000D01*
X142570000Y-83375000D01*
X142690000Y-83375000D01*
X142690000Y-83405000D01*
G37*
G36*
X144870000Y-87465000D02*
G01*
X144810000Y-87465000D01*
X144810000Y-87435000D01*
X144870000Y-87435000D01*
X144870000Y-87465000D01*
G37*
G36*
X142720000Y-83255000D02*
G01*
X142660000Y-83255000D01*
X142660000Y-83225000D01*
X142720000Y-83225000D01*
X142720000Y-83255000D01*
G37*
G36*
X145050000Y-87435000D02*
G01*
X144990000Y-87435000D01*
X144990000Y-87405000D01*
X145050000Y-87405000D01*
X145050000Y-87435000D01*
G37*
G36*
X144840000Y-87375000D02*
G01*
X144780000Y-87375000D01*
X144780000Y-87345000D01*
X144840000Y-87345000D01*
X144840000Y-87375000D01*
G37*
G36*
X142720000Y-83225000D02*
G01*
X142630000Y-83225000D01*
X142630000Y-83195000D01*
X142720000Y-83195000D01*
X142720000Y-83225000D01*
G37*
G36*
X142600000Y-82745000D02*
G01*
X142420000Y-82745000D01*
X142420000Y-82715000D01*
X142600000Y-82715000D01*
X142600000Y-82745000D01*
G37*
G36*
X145050000Y-87465000D02*
G01*
X144990000Y-87465000D01*
X144990000Y-87435000D01*
X145050000Y-87435000D01*
X145050000Y-87465000D01*
G37*
G36*
X142660000Y-83105000D02*
G01*
X142300000Y-83105000D01*
X142300000Y-83075000D01*
X142660000Y-83075000D01*
X142660000Y-83105000D01*
G37*
G36*
X144990000Y-87255000D02*
G01*
X144810000Y-87255000D01*
X144810000Y-87225000D01*
X144990000Y-87225000D01*
X144990000Y-87255000D01*
G37*
G36*
X142510000Y-82805000D02*
G01*
X142330000Y-82805000D01*
X142330000Y-82775000D01*
X142510000Y-82775000D01*
X142510000Y-82805000D01*
G37*
G36*
X142720000Y-83285000D02*
G01*
X142660000Y-83285000D01*
X142660000Y-83255000D01*
X142720000Y-83255000D01*
X142720000Y-83285000D01*
G37*
G36*
X142570000Y-83045000D02*
G01*
X142390000Y-83045000D01*
X142390000Y-83015000D01*
X142570000Y-83015000D01*
X142570000Y-83045000D01*
G37*
G36*
X145260000Y-87435000D02*
G01*
X145170000Y-87435000D01*
X145170000Y-87405000D01*
X145260000Y-87405000D01*
X145260000Y-87435000D01*
G37*
G36*
X142720000Y-83195000D02*
G01*
X142630000Y-83195000D01*
X142630000Y-83165000D01*
X142720000Y-83165000D01*
X142720000Y-83195000D01*
G37*
G36*
X144870000Y-87495000D02*
G01*
X144810000Y-87495000D01*
X144810000Y-87465000D01*
X144870000Y-87465000D01*
X144870000Y-87495000D01*
G37*
G36*
X145260000Y-87375000D02*
G01*
X145200000Y-87375000D01*
X145200000Y-87345000D01*
X145260000Y-87345000D01*
X145260000Y-87375000D01*
G37*
G36*
X144960000Y-87225000D02*
G01*
X144840000Y-87225000D01*
X144840000Y-87195000D01*
X144960000Y-87195000D01*
X144960000Y-87225000D01*
G37*
G36*
X142360000Y-87405000D02*
G01*
X142270000Y-87405000D01*
X142270000Y-87375000D01*
X142360000Y-87375000D01*
X142360000Y-87405000D01*
G37*
G36*
X142330000Y-83195000D02*
G01*
X142240000Y-83195000D01*
X142240000Y-83165000D01*
X142330000Y-83165000D01*
X142330000Y-83195000D01*
G37*
G36*
X142720000Y-82985000D02*
G01*
X142240000Y-82985000D01*
X142240000Y-82955000D01*
X142720000Y-82955000D01*
X142720000Y-82985000D01*
G37*
G36*
X145260000Y-87315000D02*
G01*
X145170000Y-87315000D01*
X145170000Y-87285000D01*
X145260000Y-87285000D01*
X145260000Y-87315000D01*
G37*
G36*
X145260000Y-87465000D02*
G01*
X145170000Y-87465000D01*
X145170000Y-87435000D01*
X145260000Y-87435000D01*
X145260000Y-87465000D01*
G37*
G36*
X142660000Y-83465000D02*
G01*
X142300000Y-83465000D01*
X142300000Y-83435000D01*
X142660000Y-83435000D01*
X142660000Y-83465000D01*
G37*
%TD*%
M02*
