%TF.GenerationSoftware,KiCad,Pcbnew,(6.0.4-0)*%
%TF.CreationDate,2023-08-08T13:47:07-06:00*%
%TF.ProjectId,usb_pd,7573625f-7064-42e6-9b69-6361645f7063,rev?*%
%TF.SameCoordinates,Original*%
%TF.FileFunction,Copper,L1,Top*%
%TF.FilePolarity,Positive*%
%FSLAX46Y46*%
G04 Gerber Fmt 4.6, Leading zero omitted, Abs format (unit mm)*
G04 Created by KiCad (PCBNEW (6.0.4-0)) date 2023-08-08 13:47:07*
%MOMM*%
%LPD*%
G01*
G04 APERTURE LIST*
G04 Aperture macros list*
%AMRoundRect*
0 Rectangle with rounded corners*
0 $1 Rounding radius*
0 $2 $3 $4 $5 $6 $7 $8 $9 X,Y pos of 4 corners*
0 Add a 4 corners polygon primitive as box body*
4,1,4,$2,$3,$4,$5,$6,$7,$8,$9,$2,$3,0*
0 Add four circle primitives for the rounded corners*
1,1,$1+$1,$2,$3*
1,1,$1+$1,$4,$5*
1,1,$1+$1,$6,$7*
1,1,$1+$1,$8,$9*
0 Add four rect primitives between the rounded corners*
20,1,$1+$1,$2,$3,$4,$5,0*
20,1,$1+$1,$4,$5,$6,$7,0*
20,1,$1+$1,$6,$7,$8,$9,0*
20,1,$1+$1,$8,$9,$2,$3,0*%
G04 Aperture macros list end*
%TA.AperFunction,SMDPad,CuDef*%
%ADD10RoundRect,0.100000X0.612500X0.100000X-0.612500X0.100000X-0.612500X-0.100000X0.612500X-0.100000X0*%
%TD*%
%TA.AperFunction,SMDPad,CuDef*%
%ADD11R,1.730000X1.850000*%
%TD*%
%TA.AperFunction,SMDPad,CuDef*%
%ADD12RoundRect,0.250000X0.337500X0.475000X-0.337500X0.475000X-0.337500X-0.475000X0.337500X-0.475000X0*%
%TD*%
%TA.AperFunction,SMDPad,CuDef*%
%ADD13RoundRect,0.237500X-0.300000X-0.237500X0.300000X-0.237500X0.300000X0.237500X-0.300000X0.237500X0*%
%TD*%
%TA.AperFunction,SMDPad,CuDef*%
%ADD14RoundRect,0.237500X-0.237500X0.300000X-0.237500X-0.300000X0.237500X-0.300000X0.237500X0.300000X0*%
%TD*%
%TA.AperFunction,SMDPad,CuDef*%
%ADD15RoundRect,0.250000X-0.337500X-0.475000X0.337500X-0.475000X0.337500X0.475000X-0.337500X0.475000X0*%
%TD*%
%TA.AperFunction,SMDPad,CuDef*%
%ADD16RoundRect,0.237500X0.250000X0.237500X-0.250000X0.237500X-0.250000X-0.237500X0.250000X-0.237500X0*%
%TD*%
%TA.AperFunction,SMDPad,CuDef*%
%ADD17RoundRect,0.237500X-0.250000X-0.237500X0.250000X-0.237500X0.250000X0.237500X-0.250000X0.237500X0*%
%TD*%
%TA.AperFunction,SMDPad,CuDef*%
%ADD18RoundRect,0.237500X0.287500X0.237500X-0.287500X0.237500X-0.287500X-0.237500X0.287500X-0.237500X0*%
%TD*%
%TA.AperFunction,SMDPad,CuDef*%
%ADD19RoundRect,0.237500X0.237500X-0.250000X0.237500X0.250000X-0.237500X0.250000X-0.237500X-0.250000X0*%
%TD*%
%TA.AperFunction,SMDPad,CuDef*%
%ADD20R,0.600000X1.500000*%
%TD*%
%TA.AperFunction,SMDPad,CuDef*%
%ADD21R,3.300000X2.100000*%
%TD*%
%TA.AperFunction,SMDPad,CuDef*%
%ADD22R,1.240000X0.600000*%
%TD*%
%TA.AperFunction,SMDPad,CuDef*%
%ADD23R,1.240000X0.300000*%
%TD*%
%TA.AperFunction,ComponentPad*%
%ADD24O,2.100000X1.000000*%
%TD*%
%TA.AperFunction,ComponentPad*%
%ADD25O,1.800000X1.000000*%
%TD*%
%TA.AperFunction,SMDPad,CuDef*%
%ADD26RoundRect,0.237500X0.237500X-0.300000X0.237500X0.300000X-0.237500X0.300000X-0.237500X-0.300000X0*%
%TD*%
%TA.AperFunction,SMDPad,CuDef*%
%ADD27RoundRect,0.147500X-0.172500X0.147500X-0.172500X-0.147500X0.172500X-0.147500X0.172500X0.147500X0*%
%TD*%
%TA.AperFunction,ComponentPad*%
%ADD28RoundRect,0.250000X0.625000X-0.350000X0.625000X0.350000X-0.625000X0.350000X-0.625000X-0.350000X0*%
%TD*%
%TA.AperFunction,ComponentPad*%
%ADD29O,1.750000X1.200000*%
%TD*%
%TA.AperFunction,SMDPad,CuDef*%
%ADD30O,0.560000X2.655000*%
%TD*%
%TA.AperFunction,SMDPad,CuDef*%
%ADD31RoundRect,0.237500X-0.237500X0.250000X-0.237500X-0.250000X0.237500X-0.250000X0.237500X0.250000X0*%
%TD*%
%TA.AperFunction,ViaPad*%
%ADD32C,0.800000*%
%TD*%
%TA.AperFunction,Conductor*%
%ADD33C,0.250000*%
%TD*%
%TA.AperFunction,Conductor*%
%ADD34C,0.500000*%
%TD*%
%TA.AperFunction,Conductor*%
%ADD35C,0.254000*%
%TD*%
%TA.AperFunction,Conductor*%
%ADD36C,1.000000*%
%TD*%
%TA.AperFunction,Conductor*%
%ADD37C,2.000000*%
%TD*%
G04 APERTURE END LIST*
D10*
%TO.P,U2,1,OUT*%
%TO.N,/power2/p_out*%
X154892500Y-86505000D03*
%TO.P,U2,2,FB*%
%TO.N,Net-(C4-Pad1)*%
X154892500Y-85855000D03*
%TO.P,U2,3,NC*%
%TO.N,unconnected-(U2-Pad3)*%
X154892500Y-85205000D03*
%TO.P,U2,4,GND*%
%TO.N,GND*%
X154892500Y-84555000D03*
%TO.P,U2,5,EN*%
%TO.N,VBUS*%
X150567500Y-84555000D03*
%TO.P,U2,6,NR/SS*%
%TO.N,Net-(C3-Pad2)*%
X150567500Y-85205000D03*
%TO.P,U2,7,DNC*%
%TO.N,unconnected-(U2-Pad7)*%
X150567500Y-85855000D03*
%TO.P,U2,8,IN*%
%TO.N,VBUS*%
X150567500Y-86505000D03*
D11*
%TO.P,U2,9,pad*%
%TO.N,GND*%
X152730000Y-85530000D03*
%TD*%
D12*
%TO.P,C5,1*%
%TO.N,/power2/p_out*%
X155137500Y-88800000D03*
%TO.P,C5,2*%
%TO.N,GND*%
X153062500Y-88800000D03*
%TD*%
D13*
%TO.P,C4,1*%
%TO.N,Net-(C4-Pad1)*%
X157137500Y-87400000D03*
%TO.P,C4,2*%
%TO.N,/power2/p_out*%
X158862500Y-87400000D03*
%TD*%
D14*
%TO.P,C3,1*%
%TO.N,GND*%
X147700000Y-83437500D03*
%TO.P,C3,2*%
%TO.N,Net-(C3-Pad2)*%
X147700000Y-85162500D03*
%TD*%
D15*
%TO.P,C2,1*%
%TO.N,VBUS*%
X150462500Y-82600000D03*
%TO.P,C2,2*%
%TO.N,GND*%
X152537500Y-82600000D03*
%TD*%
D16*
%TO.P,R7,1*%
%TO.N,GND*%
X158912500Y-84200000D03*
%TO.P,R7,2*%
%TO.N,Net-(C4-Pad1)*%
X157087500Y-84200000D03*
%TD*%
D17*
%TO.P,R8,1*%
%TO.N,Net-(C4-Pad1)*%
X157087500Y-85800000D03*
%TO.P,R8,2*%
%TO.N,/power2/p_out*%
X158912500Y-85800000D03*
%TD*%
D18*
%TO.P,F1,1*%
%TO.N,/power2/10V*%
X158875000Y-89000000D03*
%TO.P,F1,2*%
%TO.N,/power2/p_out*%
X157125000Y-89000000D03*
%TD*%
D19*
%TO.P,R1,1*%
%TO.N,VBUS*%
X138800000Y-92012500D03*
%TO.P,R1,2*%
%TO.N,VDD*%
X138800000Y-90187500D03*
%TD*%
D20*
%TO.P,U1,1,VDD*%
%TO.N,VDD*%
X137700000Y-82280000D03*
%TO.P,U1,2,CFG2*%
%TO.N,Net-(R4-Pad1)*%
X136700000Y-82280000D03*
%TO.P,U1,3,CFG3*%
%TO.N,Net-(R3-Pad1)*%
X135700000Y-82280000D03*
%TO.P,U1,4,DP*%
%TO.N,Net-(J1-PadA6)*%
X134700000Y-82280000D03*
%TO.P,U1,5,DM*%
%TO.N,Net-(J1-PadA7)*%
X133700000Y-82280000D03*
%TO.P,U1,6,CC2*%
%TO.N,Net-(J1-PadB5)*%
X133700000Y-88280000D03*
%TO.P,U1,7,CC1*%
%TO.N,Net-(J1-PadA5)*%
X134700000Y-88280000D03*
%TO.P,U1,8,VBUS*%
%TO.N,Net-(R2-Pad1)*%
X135700000Y-88280000D03*
%TO.P,U1,9,CFG1*%
%TO.N,Net-(R5-Pad1)*%
X136700000Y-88280000D03*
%TO.P,U1,10,PG*%
%TO.N,Net-(D1-Pad1)*%
X137700000Y-88280000D03*
D21*
%TO.P,U1,11,GND*%
%TO.N,GND*%
X135700000Y-85280000D03*
%TD*%
D22*
%TO.P,J1,A1B12,GND*%
%TO.N,GND*%
X130500000Y-83500000D03*
%TO.P,J1,A4B9,VBUS*%
%TO.N,VBUS*%
X130500000Y-84300000D03*
D23*
%TO.P,J1,A5,CC1*%
%TO.N,Net-(J1-PadA5)*%
X130500000Y-85450000D03*
%TO.P,J1,A6,D+*%
%TO.N,Net-(J1-PadA6)*%
X130500000Y-86450000D03*
%TO.P,J1,A7,D-*%
%TO.N,Net-(J1-PadA7)*%
X130500000Y-86950000D03*
%TO.P,J1,A8,SBU1*%
%TO.N,unconnected-(J1-PadA8)*%
X130500000Y-87950000D03*
D22*
%TO.P,J1,B1A12,GND*%
%TO.N,GND*%
X130500000Y-89900000D03*
%TO.P,J1,B4A9,VBUS*%
%TO.N,VBUS*%
X130500000Y-89100000D03*
D23*
%TO.P,J1,B5,CC2*%
%TO.N,Net-(J1-PadB5)*%
X130500000Y-88450000D03*
%TO.P,J1,B6,D+*%
%TO.N,Net-(J1-PadA6)*%
X130500000Y-87450000D03*
%TO.P,J1,B7,D-*%
%TO.N,Net-(J1-PadA7)*%
X130500000Y-85950000D03*
%TO.P,J1,B8,SBU2*%
%TO.N,unconnected-(J1-PadB8)*%
X130500000Y-84950000D03*
D24*
%TO.P,J1,S1,SHIELD*%
%TO.N,GNDPWR*%
X129880000Y-82380000D03*
%TO.P,J1,S2,SHIELD*%
X129880000Y-91020000D03*
D25*
%TO.P,J1,S3,SHIELD*%
X125700000Y-91020000D03*
%TO.P,J1,S4,SHIELD*%
X125700000Y-82380000D03*
%TD*%
D26*
%TO.P,C1,1*%
%TO.N,VDD*%
X138600000Y-80262500D03*
%TO.P,C1,2*%
%TO.N,GND*%
X138600000Y-78537500D03*
%TD*%
D27*
%TO.P,D1,1,K*%
%TO.N,Net-(D1-Pad1)*%
X142300000Y-91115000D03*
%TO.P,D1,2,A*%
%TO.N,Net-(D1-Pad2)*%
X142300000Y-92085000D03*
%TD*%
D28*
%TO.P,J2,1,+*%
%TO.N,/power2/10V*%
X162350000Y-87500000D03*
D29*
%TO.P,J2,2,-*%
%TO.N,GND*%
X162350000Y-85500000D03*
%TD*%
D30*
%TO.P,SW1,1*%
%TO.N,GND*%
X142230000Y-88803000D03*
%TO.P,SW1,2*%
X143500000Y-88803000D03*
%TO.P,SW1,3*%
X144770000Y-88803000D03*
%TO.P,SW1,4*%
%TO.N,Net-(R3-Pad1)*%
X144770000Y-81197000D03*
%TO.P,SW1,5*%
%TO.N,Net-(R4-Pad1)*%
X143500000Y-81197000D03*
%TO.P,SW1,6*%
%TO.N,Net-(R5-Pad1)*%
X142230000Y-81197000D03*
%TD*%
D19*
%TO.P,R3,1*%
%TO.N,Net-(R3-Pad1)*%
X135200000Y-80312500D03*
%TO.P,R3,2*%
%TO.N,VDD*%
X135200000Y-78487500D03*
%TD*%
D31*
%TO.P,R5,1*%
%TO.N,Net-(R5-Pad1)*%
X137200000Y-90187500D03*
%TO.P,R5,2*%
%TO.N,VDD*%
X137200000Y-92012500D03*
%TD*%
%TO.P,R2,1*%
%TO.N,Net-(R2-Pad1)*%
X135500000Y-90187500D03*
%TO.P,R2,2*%
%TO.N,VBUS*%
X135500000Y-92012500D03*
%TD*%
D19*
%TO.P,R4,1*%
%TO.N,Net-(R4-Pad1)*%
X136900000Y-80312500D03*
%TO.P,R4,2*%
%TO.N,VDD*%
X136900000Y-78487500D03*
%TD*%
D31*
%TO.P,R6,1*%
%TO.N,VDD*%
X140500000Y-90187500D03*
%TO.P,R6,2*%
%TO.N,Net-(D1-Pad2)*%
X140500000Y-92012500D03*
%TD*%
D32*
%TO.N,GND*%
X147700000Y-82200000D03*
%TO.N,VBUS*%
X149200000Y-84500000D03*
X149200000Y-86500000D03*
%TO.N,Net-(D1-Pad1)*%
X143399843Y-92062988D03*
X138600000Y-88300000D03*
%TO.N,GND*%
X144700000Y-85900000D03*
X135700000Y-85200000D03*
X136900000Y-84800000D03*
X134500000Y-84700000D03*
X139300000Y-86800000D03*
X134500000Y-85800000D03*
X136900000Y-85900000D03*
X131700000Y-90700000D03*
X131800000Y-82700000D03*
%TO.N,Net-(J1-PadA5)*%
X134700000Y-87100000D03*
X131972797Y-84372797D03*
%TO.N,Net-(R5-Pad1)*%
X142200000Y-85500000D03*
X142200000Y-83200000D03*
%TD*%
D33*
%TO.N,/power2/10V*%
X162350000Y-87500000D02*
X161900000Y-87500000D01*
X161900000Y-87500000D02*
X160400000Y-89000000D01*
X160400000Y-89000000D02*
X158875000Y-89000000D01*
D34*
%TO.N,VBUS*%
X147200000Y-87800000D02*
X147900000Y-87800000D01*
X147900000Y-87800000D02*
X149200000Y-86500000D01*
D33*
%TO.N,GND*%
X147700000Y-83437500D02*
X147700000Y-82200000D01*
%TO.N,Net-(C3-Pad2)*%
X150580000Y-85205000D02*
X150560489Y-85224511D01*
X150560489Y-85224511D02*
X147762011Y-85224511D01*
X147762011Y-85224511D02*
X147700000Y-85162500D01*
%TO.N,VBUS*%
X150580000Y-86505000D02*
X149205000Y-86505000D01*
X150525000Y-84500000D02*
X150580000Y-84555000D01*
X149205000Y-86505000D02*
X149200000Y-86500000D01*
X149200000Y-84500000D02*
X150525000Y-84500000D01*
%TO.N,GND*%
X153280000Y-86180000D02*
X153280000Y-88582500D01*
X153280000Y-88582500D02*
X153062500Y-88800000D01*
X153280000Y-84880000D02*
X153605000Y-84555000D01*
X153605000Y-84555000D02*
X154880000Y-84555000D01*
%TO.N,/power2/p_out*%
X158912500Y-85800000D02*
X158912500Y-87350000D01*
X158912500Y-87350000D02*
X158862500Y-87400000D01*
X158862500Y-87400000D02*
X158725000Y-87400000D01*
X158725000Y-87400000D02*
X157125000Y-89000000D01*
X155137500Y-88800000D02*
X156925000Y-88800000D01*
X156925000Y-88800000D02*
X157125000Y-89000000D01*
X155895000Y-86505000D02*
X155900000Y-86500000D01*
X155900000Y-88037500D02*
X155137500Y-88800000D01*
X154880000Y-86505000D02*
X155895000Y-86505000D01*
X155900000Y-86500000D02*
X155900000Y-88037500D01*
%TO.N,VBUS*%
X149600000Y-84500000D02*
X149600000Y-82800000D01*
X150580000Y-84555000D02*
X149655000Y-84555000D01*
X149600000Y-82800000D02*
X149800000Y-82600000D01*
X149655000Y-84555000D02*
X149600000Y-84500000D01*
X149800000Y-82600000D02*
X150462500Y-82600000D01*
%TO.N,GND*%
X156100000Y-83500000D02*
X156100000Y-84200000D01*
X156200000Y-83400000D02*
X156100000Y-83500000D01*
X156100000Y-84200000D02*
X155745000Y-84555000D01*
X158912500Y-84200000D02*
X158112500Y-83400000D01*
X158112500Y-83400000D02*
X156200000Y-83400000D01*
X155745000Y-84555000D02*
X154880000Y-84555000D01*
%TO.N,Net-(C4-Pad1)*%
X154880000Y-85855000D02*
X157032500Y-85855000D01*
X157032500Y-85855000D02*
X157087500Y-85800000D01*
X157087500Y-85800000D02*
X157087500Y-87350000D01*
X157087500Y-87350000D02*
X157137500Y-87400000D01*
X157087500Y-84200000D02*
X157087500Y-85800000D01*
%TO.N,Net-(D1-Pad1)*%
X142448714Y-91263714D02*
X142300000Y-91115000D01*
X137700000Y-88280000D02*
X138580000Y-88280000D01*
X142451855Y-91115000D02*
X143399843Y-92062988D01*
X138580000Y-88280000D02*
X138600000Y-88300000D01*
X142300000Y-91115000D02*
X142451855Y-91115000D01*
%TO.N,Net-(D1-Pad2)*%
X140500000Y-92012500D02*
X142227500Y-92012500D01*
X142227500Y-92012500D02*
X142300000Y-92085000D01*
D35*
%TO.N,GND*%
X144770000Y-90770000D02*
X145000000Y-91000000D01*
X130500000Y-89900000D02*
X130900000Y-89900000D01*
X130900000Y-89900000D02*
X131700000Y-90700000D01*
D33*
X130500000Y-83500000D02*
X131000000Y-83500000D01*
D35*
X144000000Y-91000000D02*
X143500000Y-90500000D01*
D33*
X144770000Y-88803000D02*
X144770000Y-85970000D01*
X131000000Y-83500000D02*
X131800000Y-82700000D01*
X142230000Y-88803000D02*
X141303000Y-88803000D01*
D35*
X144770000Y-88803000D02*
X144770000Y-90770000D01*
X145000000Y-91000000D02*
X144000000Y-91000000D01*
D33*
X144770000Y-85970000D02*
X144700000Y-85900000D01*
D35*
X143500000Y-90500000D02*
X143500000Y-88803000D01*
D33*
X141303000Y-88803000D02*
X139300000Y-86800000D01*
X134500000Y-85800000D02*
X132800000Y-87500000D01*
D35*
X144770000Y-88803000D02*
X142230000Y-88803000D01*
D33*
%TO.N,Net-(R3-Pad1)*%
X135700000Y-82280000D02*
X135700000Y-80812500D01*
X135700000Y-80812500D02*
X135200000Y-80312500D01*
X135700000Y-82280000D02*
X135700000Y-83280000D01*
X143044500Y-84500000D02*
X144770000Y-82774500D01*
X139264282Y-84500000D02*
X143044500Y-84500000D01*
X135700000Y-83280000D02*
X136325489Y-83905489D01*
X144770000Y-82774500D02*
X144770000Y-81197000D01*
X136325489Y-83905489D02*
X138669771Y-83905489D01*
X138669771Y-83905489D02*
X139264282Y-84500000D01*
%TO.N,Net-(R2-Pad1)*%
X135500000Y-88480000D02*
X135700000Y-88280000D01*
X135500000Y-90187500D02*
X135500000Y-88480000D01*
%TO.N,Net-(R4-Pad1)*%
X136700000Y-82800000D02*
X136700000Y-82280000D01*
X136700000Y-80512500D02*
X136900000Y-80312500D01*
X138645489Y-83354511D02*
X137254511Y-83354511D01*
X137254511Y-83354511D02*
X136700000Y-82800000D01*
X138700000Y-83300000D02*
X138645489Y-83354511D01*
X143500000Y-81197000D02*
X143500000Y-82924614D01*
X136700000Y-82280000D02*
X136700000Y-80512500D01*
X142424614Y-84000000D02*
X139400000Y-84000000D01*
X139400000Y-84000000D02*
X138700000Y-83300000D01*
X143500000Y-82924614D02*
X142424614Y-84000000D01*
%TO.N,VDD*%
X145500000Y-78900000D02*
X141500000Y-78900000D01*
X145038545Y-91600000D02*
X145800000Y-90838545D01*
X142816474Y-90455020D02*
X143961454Y-91600000D01*
X137700000Y-82280000D02*
X137700000Y-81162500D01*
X136825000Y-78487500D02*
X138600000Y-80262500D01*
X141500000Y-78900000D02*
X140137500Y-80262500D01*
X140500000Y-90187500D02*
X140767520Y-90455020D01*
X135200000Y-78487500D02*
X136825000Y-78487500D01*
X143961454Y-91600000D02*
X145038545Y-91600000D01*
X140500000Y-90187500D02*
X138800000Y-90187500D01*
X137700000Y-81162500D02*
X138600000Y-80262500D01*
X137200000Y-92012500D02*
X137200000Y-91787500D01*
X140137500Y-80262500D02*
X138600000Y-80262500D01*
X145800000Y-90838545D02*
X145800000Y-79200000D01*
X145800000Y-79200000D02*
X145500000Y-78900000D01*
X137200000Y-91787500D02*
X138800000Y-90187500D01*
X140767520Y-90455020D02*
X142816474Y-90455020D01*
D35*
%TO.N,Net-(J1-PadA6)*%
X131250000Y-87450000D02*
X131600000Y-87100000D01*
X133253520Y-84546480D02*
X134700000Y-83100000D01*
X134700000Y-83100000D02*
X134700000Y-82280000D01*
X131600000Y-86626978D02*
X131423022Y-86450000D01*
X131600000Y-87100000D02*
X131600000Y-86626978D01*
X130500000Y-87450000D02*
X131250000Y-87450000D01*
X131600000Y-86626978D02*
X133253520Y-84973458D01*
X131423022Y-86450000D02*
X130500000Y-86450000D01*
X133253520Y-84973458D02*
X133253520Y-84546480D01*
%TO.N,Net-(J1-PadA7)*%
X129576978Y-86950000D02*
X130500000Y-86950000D01*
X132800000Y-81300000D02*
X132900000Y-81200000D01*
X133500000Y-81200000D02*
X133700000Y-81400000D01*
X129400000Y-86126978D02*
X129400000Y-86773022D01*
X132800000Y-84573022D02*
X132800000Y-81300000D01*
X130500000Y-85950000D02*
X129576978Y-85950000D01*
X130500000Y-85950000D02*
X131423022Y-85950000D01*
X131423022Y-85950000D02*
X132800000Y-84573022D01*
X133700000Y-81400000D02*
X133700000Y-82280000D01*
X132900000Y-81200000D02*
X133500000Y-81200000D01*
X129400000Y-86773022D02*
X129576978Y-86950000D01*
X129576978Y-85950000D02*
X129400000Y-86126978D01*
D33*
%TO.N,Net-(J1-PadB5)*%
X133100000Y-89500000D02*
X132700000Y-89100000D01*
X132700000Y-89100000D02*
X132700000Y-88500000D01*
X133700000Y-88280000D02*
X133700000Y-89300000D01*
X133500000Y-89500000D02*
X133100000Y-89500000D01*
X133700000Y-89300000D02*
X133500000Y-89500000D01*
X132650000Y-88450000D02*
X130500000Y-88450000D01*
X132700000Y-88500000D02*
X132650000Y-88450000D01*
D35*
%TO.N,Net-(J1-PadA5)*%
X131972797Y-84758851D02*
X131281648Y-85450000D01*
X131972797Y-84372797D02*
X131972797Y-84758851D01*
X134700000Y-88280000D02*
X134700000Y-87100000D01*
X131281648Y-85450000D02*
X130500000Y-85450000D01*
D36*
%TO.N,VBUS*%
X138800000Y-93200000D02*
X144604593Y-93200000D01*
X135600000Y-93300000D02*
X135500000Y-93200000D01*
X138800000Y-93200000D02*
X138700000Y-93300000D01*
D35*
X128946480Y-88164378D02*
X129882102Y-89100000D01*
D37*
X135500000Y-92012500D02*
X135500000Y-93200000D01*
D33*
X130500000Y-89100000D02*
X131370000Y-89100000D01*
D35*
X130500000Y-84300000D02*
X129872102Y-84300000D01*
D37*
X133200000Y-92700000D02*
X133299511Y-92600489D01*
X133700000Y-93200000D02*
X133200000Y-92700000D01*
D36*
X147200000Y-90604593D02*
X147200000Y-87800000D01*
D34*
X130500000Y-89100000D02*
X131620000Y-89100000D01*
X133200000Y-90680000D02*
X133200000Y-92700000D01*
D37*
X135500000Y-93200000D02*
X133700000Y-93200000D01*
D36*
X138700000Y-93300000D02*
X135600000Y-93300000D01*
D35*
X128946480Y-85225622D02*
X128946480Y-88164378D01*
D36*
X138800000Y-92012500D02*
X138800000Y-93200000D01*
D35*
X129872102Y-84300000D02*
X128946480Y-85225622D01*
D34*
X131620000Y-89100000D02*
X133200000Y-90680000D01*
D36*
X144604593Y-93200000D02*
X147200000Y-90604593D01*
D37*
X133299511Y-92600489D02*
X133299511Y-91200000D01*
D35*
X129882102Y-89100000D02*
X130500000Y-89100000D01*
D33*
X133200000Y-90930000D02*
X133200000Y-92700000D01*
%TO.N,Net-(R5-Pad1)*%
X142230000Y-81197000D02*
X142230000Y-82830000D01*
X138829022Y-85500000D02*
X142200000Y-85500000D01*
X136700000Y-89687500D02*
X136700000Y-88280000D01*
X142300000Y-82900000D02*
X142300000Y-83100000D01*
X136700000Y-88280000D02*
X136700000Y-87629022D01*
X142230000Y-82830000D02*
X142300000Y-82900000D01*
X137200000Y-90187500D02*
X136700000Y-89687500D01*
X142300000Y-83100000D02*
X142200000Y-83200000D01*
X136700000Y-87629022D02*
X138829022Y-85500000D01*
%TD*%
%TA.AperFunction,Conductor*%
%TO.N,GND*%
G36*
X168433621Y-75528502D02*
G01*
X168480114Y-75582158D01*
X168491500Y-75634500D01*
X168491500Y-95365500D01*
X168471498Y-95433621D01*
X168417842Y-95480114D01*
X168365500Y-95491500D01*
X124634500Y-95491500D01*
X124566379Y-95471498D01*
X124519886Y-95417842D01*
X124508500Y-95365500D01*
X124508500Y-91942620D01*
X124528502Y-91874499D01*
X124582158Y-91828006D01*
X124652432Y-91817902D01*
X124715490Y-91846098D01*
X124727474Y-91856154D01*
X124732872Y-91859121D01*
X124732877Y-91859125D01*
X124876180Y-91937905D01*
X124900787Y-91951433D01*
X124906654Y-91953294D01*
X124906656Y-91953295D01*
X125083436Y-92009373D01*
X125089306Y-92011235D01*
X125243227Y-92028500D01*
X126149769Y-92028500D01*
X126152825Y-92028200D01*
X126152832Y-92028200D01*
X126211340Y-92022463D01*
X126296833Y-92014080D01*
X126302734Y-92012298D01*
X126302736Y-92012298D01*
X126376053Y-91990162D01*
X126486169Y-91956916D01*
X126660796Y-91864066D01*
X126747062Y-91793709D01*
X126809287Y-91742960D01*
X126809290Y-91742957D01*
X126814062Y-91739065D01*
X126891787Y-91645112D01*
X126936201Y-91591425D01*
X126936203Y-91591421D01*
X126940130Y-91586675D01*
X127034198Y-91412701D01*
X127092682Y-91223768D01*
X127097925Y-91173884D01*
X127112711Y-91033204D01*
X127112711Y-91033202D01*
X127113355Y-91027075D01*
X127095430Y-90830112D01*
X127092797Y-90821163D01*
X127060391Y-90711058D01*
X127039590Y-90640381D01*
X127029919Y-90621881D01*
X126960495Y-90489087D01*
X126947960Y-90465110D01*
X126824032Y-90310975D01*
X126817727Y-90305684D01*
X126751230Y-90249887D01*
X126672526Y-90183846D01*
X126667128Y-90180879D01*
X126667123Y-90180875D01*
X126504608Y-90091533D01*
X126504609Y-90091533D01*
X126499213Y-90088567D01*
X126493346Y-90086706D01*
X126493344Y-90086705D01*
X126316564Y-90030627D01*
X126316563Y-90030627D01*
X126310694Y-90028765D01*
X126156773Y-90011500D01*
X125250231Y-90011500D01*
X125247175Y-90011800D01*
X125247168Y-90011800D01*
X125188660Y-90017537D01*
X125103167Y-90025920D01*
X125097266Y-90027702D01*
X125097264Y-90027702D01*
X125030028Y-90048002D01*
X124913831Y-90083084D01*
X124739204Y-90175934D01*
X124724639Y-90187813D01*
X124714136Y-90196379D01*
X124648704Y-90223933D01*
X124578763Y-90211738D01*
X124526518Y-90163665D01*
X124508500Y-90098736D01*
X124508500Y-85205501D01*
X128306245Y-85205501D01*
X128306991Y-85213393D01*
X128310421Y-85249678D01*
X128310980Y-85261536D01*
X128310980Y-88085358D01*
X128310450Y-88096592D01*
X128308772Y-88104097D01*
X128309021Y-88112016D01*
X128310918Y-88172390D01*
X128310980Y-88176347D01*
X128310980Y-88204361D01*
X128311476Y-88208286D01*
X128311476Y-88208287D01*
X128311488Y-88208382D01*
X128312421Y-88220227D01*
X128313815Y-88264583D01*
X128317671Y-88277855D01*
X128319493Y-88284126D01*
X128323503Y-88303490D01*
X128326053Y-88323677D01*
X128328969Y-88331041D01*
X128328970Y-88331046D01*
X128342387Y-88364934D01*
X128346232Y-88376163D01*
X128358611Y-88418771D01*
X128362649Y-88425598D01*
X128362650Y-88425601D01*
X128368968Y-88436284D01*
X128377668Y-88454042D01*
X128382241Y-88465593D01*
X128382245Y-88465599D01*
X128385161Y-88472966D01*
X128389819Y-88479377D01*
X128389820Y-88479379D01*
X128400698Y-88494351D01*
X128408211Y-88504691D01*
X128411244Y-88508866D01*
X128417761Y-88518788D01*
X128436306Y-88550146D01*
X128436309Y-88550150D01*
X128440346Y-88556976D01*
X128454730Y-88571360D01*
X128467571Y-88586394D01*
X128479538Y-88602865D01*
X128485646Y-88607918D01*
X128513735Y-88631155D01*
X128522515Y-88639145D01*
X128746759Y-88863389D01*
X128780785Y-88925701D01*
X128775720Y-88996516D01*
X128749737Y-89035739D01*
X128750894Y-89036724D01*
X128746472Y-89041919D01*
X128741515Y-89046607D01*
X128737683Y-89052245D01*
X128737680Y-89052249D01*
X128711265Y-89091118D01*
X128639723Y-89196388D01*
X128572470Y-89364534D01*
X128571356Y-89371262D01*
X128571355Y-89371266D01*
X128545065Y-89530073D01*
X128542892Y-89543198D01*
X128543249Y-89550015D01*
X128543249Y-89550019D01*
X128547628Y-89633562D01*
X128552370Y-89724047D01*
X128554181Y-89730620D01*
X128554181Y-89730623D01*
X128594707Y-89877751D01*
X128600461Y-89898641D01*
X128684922Y-90058836D01*
X128689331Y-90064053D01*
X128695129Y-90070914D01*
X128723822Y-90135853D01*
X128712852Y-90205997D01*
X128678529Y-90249887D01*
X128620713Y-90297040D01*
X128620710Y-90297043D01*
X128615938Y-90300935D01*
X128612011Y-90305682D01*
X128612009Y-90305684D01*
X128493799Y-90448575D01*
X128493797Y-90448579D01*
X128489870Y-90453325D01*
X128395802Y-90627299D01*
X128337318Y-90816232D01*
X128336674Y-90822357D01*
X128336674Y-90822358D01*
X128328046Y-90904455D01*
X128316645Y-91012925D01*
X128321187Y-91062836D01*
X128331641Y-91177700D01*
X128334570Y-91209888D01*
X128336308Y-91215794D01*
X128336309Y-91215798D01*
X128355244Y-91280135D01*
X128390410Y-91399619D01*
X128393263Y-91405077D01*
X128393265Y-91405081D01*
X128440720Y-91495853D01*
X128482040Y-91574890D01*
X128605968Y-91729025D01*
X128610692Y-91732989D01*
X128617933Y-91739065D01*
X128757474Y-91856154D01*
X128762872Y-91859121D01*
X128762877Y-91859125D01*
X128906180Y-91937905D01*
X128930787Y-91951433D01*
X128936654Y-91953294D01*
X128936656Y-91953295D01*
X129113436Y-92009373D01*
X129119306Y-92011235D01*
X129273227Y-92028500D01*
X130479769Y-92028500D01*
X130482825Y-92028200D01*
X130482832Y-92028200D01*
X130541340Y-92022463D01*
X130626833Y-92014080D01*
X130632734Y-92012298D01*
X130632736Y-92012298D01*
X130706053Y-91990162D01*
X130816169Y-91956916D01*
X130990796Y-91864066D01*
X131077062Y-91793709D01*
X131139287Y-91742960D01*
X131139290Y-91742957D01*
X131144062Y-91739065D01*
X131221787Y-91645112D01*
X131266201Y-91591425D01*
X131266203Y-91591421D01*
X131270130Y-91586675D01*
X131364198Y-91412701D01*
X131422682Y-91223768D01*
X131427925Y-91173884D01*
X131442711Y-91033204D01*
X131442711Y-91033202D01*
X131443355Y-91027075D01*
X131425430Y-90830112D01*
X131396087Y-90730411D01*
X131396042Y-90659416D01*
X131434388Y-90599666D01*
X131441397Y-90594011D01*
X131475725Y-90568284D01*
X131488285Y-90555724D01*
X131564786Y-90453649D01*
X131573325Y-90438052D01*
X131589713Y-90394337D01*
X131632354Y-90337572D01*
X131698916Y-90312872D01*
X131768265Y-90328079D01*
X131796790Y-90349471D01*
X131891450Y-90444131D01*
X131925476Y-90506443D01*
X131920411Y-90577258D01*
X131916938Y-90584938D01*
X131917098Y-90585008D01*
X131915067Y-90589658D01*
X131912680Y-90594109D01*
X131911035Y-90598888D01*
X131911034Y-90598889D01*
X131872411Y-90711058D01*
X131833649Y-90823631D01*
X131819762Y-90904031D01*
X131798675Y-91026116D01*
X131792332Y-91062836D01*
X131792152Y-91066797D01*
X131792152Y-91066798D01*
X131791166Y-91088520D01*
X131791011Y-91091925D01*
X131791011Y-92135899D01*
X131781836Y-92183099D01*
X131755845Y-92247429D01*
X131754725Y-92252359D01*
X131751738Y-92265506D01*
X131747270Y-92280686D01*
X131742663Y-92293342D01*
X131742661Y-92293349D01*
X131740930Y-92298105D01*
X131728169Y-92365003D01*
X131723536Y-92389290D01*
X131722637Y-92393595D01*
X131703185Y-92479212D01*
X131703184Y-92479219D01*
X131702065Y-92484144D01*
X131701748Y-92489188D01*
X131701747Y-92489192D01*
X131700901Y-92502640D01*
X131698919Y-92518333D01*
X131695444Y-92536553D01*
X131695303Y-92541605D01*
X131692851Y-92629371D01*
X131692651Y-92633758D01*
X131686822Y-92726413D01*
X131687316Y-92731450D01*
X131687316Y-92731455D01*
X131688631Y-92744863D01*
X131689184Y-92760676D01*
X131688666Y-92779205D01*
X131689335Y-92784218D01*
X131689335Y-92784220D01*
X131700943Y-92871217D01*
X131701449Y-92875584D01*
X131710511Y-92968002D01*
X131711804Y-92972894D01*
X131711805Y-92972902D01*
X131715247Y-92985930D01*
X131718320Y-93001448D01*
X131720771Y-93019820D01*
X131722235Y-93024668D01*
X131747604Y-93108693D01*
X131748798Y-93112914D01*
X131772519Y-93202696D01*
X131774577Y-93207318D01*
X131780061Y-93219635D01*
X131785575Y-93234463D01*
X131790933Y-93252208D01*
X131831646Y-93335683D01*
X131833487Y-93339629D01*
X131871254Y-93424456D01*
X131874020Y-93428683D01*
X131881404Y-93439967D01*
X131889215Y-93453717D01*
X131897346Y-93470388D01*
X131950866Y-93546257D01*
X131953336Y-93549893D01*
X132001400Y-93623341D01*
X132001409Y-93623352D01*
X132004174Y-93627578D01*
X132007582Y-93631310D01*
X132007584Y-93631313D01*
X132016670Y-93641263D01*
X132026580Y-93653588D01*
X132037274Y-93668747D01*
X132056909Y-93690250D01*
X132106575Y-93739916D01*
X132110526Y-93744049D01*
X132167858Y-93806836D01*
X132171821Y-93809977D01*
X132171822Y-93809978D01*
X132189347Y-93823868D01*
X132200177Y-93833518D01*
X132616325Y-94249666D01*
X132618779Y-94252188D01*
X132677386Y-94314163D01*
X132687332Y-94324681D01*
X132749757Y-94372408D01*
X132754892Y-94376552D01*
X132781936Y-94399568D01*
X132814720Y-94427470D01*
X132819045Y-94430089D01*
X132819050Y-94430093D01*
X132842824Y-94444491D01*
X132854071Y-94452163D01*
X132880174Y-94472120D01*
X132884632Y-94474510D01*
X132884633Y-94474511D01*
X132949401Y-94509239D01*
X132955126Y-94512504D01*
X133022358Y-94553221D01*
X133052817Y-94565527D01*
X133065158Y-94571307D01*
X133094109Y-94586831D01*
X133098890Y-94588477D01*
X133098894Y-94588479D01*
X133168401Y-94612412D01*
X133174579Y-94614722D01*
X133201739Y-94625695D01*
X133247429Y-94644155D01*
X133252369Y-94645277D01*
X133252368Y-94645277D01*
X133279460Y-94651432D01*
X133292559Y-94655163D01*
X133323631Y-94665862D01*
X133401100Y-94679243D01*
X133407504Y-94680523D01*
X133484144Y-94697935D01*
X133516953Y-94699999D01*
X133530453Y-94701585D01*
X133562836Y-94707179D01*
X133566793Y-94707359D01*
X133566796Y-94707359D01*
X133590506Y-94708436D01*
X133590525Y-94708436D01*
X133591925Y-94708500D01*
X133648108Y-94708500D01*
X133656019Y-94708749D01*
X133726413Y-94713178D01*
X133767992Y-94709101D01*
X133780288Y-94708500D01*
X135462188Y-94708500D01*
X135467903Y-94708630D01*
X135552817Y-94712486D01*
X135557837Y-94711905D01*
X135557841Y-94711905D01*
X135606272Y-94706301D01*
X135645056Y-94701814D01*
X135649407Y-94701387D01*
X135741965Y-94693940D01*
X135759971Y-94689518D01*
X135775533Y-94686718D01*
X135788929Y-94685167D01*
X135788932Y-94685166D01*
X135793956Y-94684585D01*
X135798819Y-94683209D01*
X135883290Y-94659307D01*
X135887540Y-94658184D01*
X135908873Y-94652944D01*
X135977706Y-94636037D01*
X135982359Y-94634062D01*
X135982362Y-94634061D01*
X135988543Y-94631437D01*
X135994778Y-94628791D01*
X136009689Y-94623539D01*
X136027532Y-94618490D01*
X136032107Y-94616356D01*
X136032114Y-94616354D01*
X136100552Y-94584440D01*
X136111682Y-94579250D01*
X136115673Y-94577473D01*
X136201156Y-94541188D01*
X136205428Y-94538498D01*
X136205437Y-94538493D01*
X136216846Y-94531308D01*
X136230740Y-94523733D01*
X136233841Y-94522287D01*
X136247536Y-94515901D01*
X136324320Y-94463719D01*
X136327999Y-94461311D01*
X136402291Y-94414526D01*
X136402293Y-94414525D01*
X136406567Y-94411833D01*
X136410351Y-94408497D01*
X136410355Y-94408494D01*
X136420479Y-94399568D01*
X136432976Y-94389875D01*
X136448307Y-94379456D01*
X136486911Y-94342950D01*
X136550147Y-94310680D01*
X136573482Y-94308500D01*
X138638157Y-94308500D01*
X138651764Y-94309237D01*
X138683262Y-94312659D01*
X138683267Y-94312659D01*
X138689388Y-94313324D01*
X138719610Y-94310680D01*
X138739388Y-94308950D01*
X138744214Y-94308621D01*
X138746686Y-94308500D01*
X138749769Y-94308500D01*
X138761738Y-94307326D01*
X138792506Y-94304310D01*
X138793819Y-94304188D01*
X138838084Y-94300315D01*
X138886413Y-94296087D01*
X138891532Y-94294600D01*
X138896833Y-94294080D01*
X138985834Y-94267209D01*
X138986967Y-94266874D01*
X139070414Y-94242630D01*
X139070418Y-94242628D01*
X139076336Y-94240909D01*
X139081068Y-94238456D01*
X139086169Y-94236916D01*
X139111875Y-94223248D01*
X139171028Y-94208500D01*
X144542750Y-94208500D01*
X144556357Y-94209237D01*
X144587855Y-94212659D01*
X144587860Y-94212659D01*
X144593981Y-94213324D01*
X144620231Y-94211027D01*
X144643981Y-94208950D01*
X144648807Y-94208621D01*
X144651279Y-94208500D01*
X144654362Y-94208500D01*
X144666331Y-94207326D01*
X144697099Y-94204310D01*
X144698412Y-94204188D01*
X144742677Y-94200315D01*
X144791006Y-94196087D01*
X144796125Y-94194600D01*
X144801426Y-94194080D01*
X144890427Y-94167209D01*
X144891560Y-94166874D01*
X144975007Y-94142630D01*
X144975011Y-94142628D01*
X144980929Y-94140909D01*
X144985661Y-94138456D01*
X144990762Y-94136916D01*
X144996205Y-94134022D01*
X145072853Y-94093269D01*
X145074019Y-94092657D01*
X145151046Y-94052729D01*
X145156519Y-94049892D01*
X145160682Y-94046569D01*
X145165389Y-94044066D01*
X145237511Y-93985245D01*
X145238367Y-93984554D01*
X145277566Y-93953262D01*
X145280070Y-93950758D01*
X145280788Y-93950116D01*
X145285121Y-93946415D01*
X145318655Y-93919065D01*
X145347881Y-93883737D01*
X145355870Y-93874958D01*
X147869379Y-91361448D01*
X147879522Y-91352346D01*
X147904218Y-91332490D01*
X147909025Y-91328625D01*
X147941292Y-91290171D01*
X147944472Y-91286524D01*
X147946115Y-91284712D01*
X147948309Y-91282518D01*
X147975642Y-91249244D01*
X147976348Y-91248393D01*
X148003699Y-91215798D01*
X148036154Y-91177119D01*
X148038722Y-91172449D01*
X148042103Y-91168332D01*
X148086015Y-91086435D01*
X148086624Y-91085313D01*
X148128466Y-91009204D01*
X148128468Y-91009199D01*
X148131433Y-91003806D01*
X148133044Y-90998728D01*
X148135563Y-90994030D01*
X148162753Y-90905095D01*
X148163136Y-90903865D01*
X148163410Y-90903003D01*
X148191235Y-90815287D01*
X148191828Y-90809996D01*
X148193388Y-90804895D01*
X148202795Y-90712282D01*
X148202915Y-90711162D01*
X148208500Y-90661366D01*
X148208500Y-90657837D01*
X148208555Y-90656854D01*
X148209004Y-90651149D01*
X148209498Y-90646294D01*
X148213374Y-90608130D01*
X148209059Y-90562481D01*
X148208500Y-90550624D01*
X148208500Y-89322095D01*
X151967001Y-89322095D01*
X151967338Y-89328614D01*
X151977257Y-89424206D01*
X151980149Y-89437600D01*
X152031588Y-89591784D01*
X152037761Y-89604962D01*
X152123063Y-89742807D01*
X152132099Y-89754208D01*
X152246829Y-89868739D01*
X152258240Y-89877751D01*
X152396243Y-89962816D01*
X152409424Y-89968963D01*
X152563710Y-90020138D01*
X152577086Y-90023005D01*
X152671438Y-90032672D01*
X152677854Y-90033000D01*
X152790385Y-90033000D01*
X152805624Y-90028525D01*
X152806829Y-90027135D01*
X152808500Y-90019452D01*
X152808500Y-89072115D01*
X152804025Y-89056876D01*
X152802635Y-89055671D01*
X152794952Y-89054000D01*
X151985116Y-89054000D01*
X151969877Y-89058475D01*
X151968672Y-89059865D01*
X151967001Y-89067548D01*
X151967001Y-89322095D01*
X148208500Y-89322095D01*
X148208500Y-88572812D01*
X148221692Y-88527885D01*
X151967000Y-88527885D01*
X151971475Y-88543124D01*
X151972865Y-88544329D01*
X151980548Y-88546000D01*
X152790385Y-88546000D01*
X152805624Y-88541525D01*
X152806829Y-88540135D01*
X152808500Y-88532452D01*
X152808500Y-87585116D01*
X152804025Y-87569877D01*
X152802635Y-87568672D01*
X152794952Y-87567001D01*
X152677905Y-87567001D01*
X152671386Y-87567338D01*
X152575794Y-87577257D01*
X152562400Y-87580149D01*
X152408216Y-87631588D01*
X152395038Y-87637761D01*
X152257193Y-87723063D01*
X152245792Y-87732099D01*
X152131261Y-87846829D01*
X152122249Y-87858240D01*
X152037184Y-87996243D01*
X152031037Y-88009424D01*
X151979862Y-88163710D01*
X151976995Y-88177086D01*
X151967328Y-88271438D01*
X151967000Y-88277855D01*
X151967000Y-88527885D01*
X148221692Y-88527885D01*
X148228502Y-88504691D01*
X148265415Y-88467440D01*
X148302976Y-88442814D01*
X148306680Y-88440477D01*
X148369107Y-88402595D01*
X148377484Y-88395197D01*
X148377508Y-88395224D01*
X148380500Y-88392571D01*
X148383733Y-88389868D01*
X148389852Y-88385856D01*
X148443149Y-88329595D01*
X148445506Y-88327175D01*
X149356331Y-87416350D01*
X149419228Y-87382199D01*
X149475824Y-87370169D01*
X149475833Y-87370166D01*
X149482288Y-87368794D01*
X149548086Y-87339499D01*
X149650722Y-87293803D01*
X149650724Y-87293802D01*
X149656752Y-87291118D01*
X149667520Y-87283295D01*
X149684603Y-87270883D01*
X149746163Y-87226157D01*
X149813028Y-87202300D01*
X149836665Y-87203172D01*
X149915115Y-87213500D01*
X150567420Y-87213500D01*
X151219884Y-87213499D01*
X151223969Y-87212961D01*
X151223973Y-87212961D01*
X151330663Y-87198916D01*
X151330665Y-87198916D01*
X151338850Y-87197838D01*
X151426921Y-87161358D01*
X151479248Y-87139684D01*
X151479250Y-87139683D01*
X151486876Y-87136524D01*
X151517627Y-87112928D01*
X151607441Y-87044010D01*
X151613987Y-87038987D01*
X151619010Y-87032441D01*
X151619014Y-87032437D01*
X151640368Y-87004608D01*
X151697706Y-86962741D01*
X151754434Y-86959561D01*
X151754793Y-86956252D01*
X151813514Y-86962631D01*
X151820328Y-86963000D01*
X152457885Y-86963000D01*
X152473124Y-86958525D01*
X152474329Y-86957135D01*
X152476000Y-86949452D01*
X152476000Y-86944884D01*
X152984000Y-86944884D01*
X152988475Y-86960123D01*
X152989865Y-86961328D01*
X152997548Y-86962999D01*
X153639669Y-86962999D01*
X153646490Y-86962629D01*
X153705207Y-86956252D01*
X153705561Y-86959513D01*
X153761424Y-86962431D01*
X153819632Y-87004607D01*
X153846013Y-87038987D01*
X153973125Y-87136524D01*
X154121150Y-87197838D01*
X154129338Y-87198916D01*
X154236021Y-87212961D01*
X154240115Y-87213500D01*
X154272629Y-87213500D01*
X155140500Y-87213499D01*
X155208621Y-87233501D01*
X155255114Y-87287157D01*
X155266500Y-87339499D01*
X155266500Y-87440500D01*
X155246498Y-87508621D01*
X155192842Y-87555114D01*
X155140500Y-87566500D01*
X154749600Y-87566500D01*
X154746354Y-87566837D01*
X154746350Y-87566837D01*
X154650692Y-87576762D01*
X154650688Y-87576763D01*
X154643834Y-87577474D01*
X154637298Y-87579655D01*
X154637296Y-87579655D01*
X154524608Y-87617251D01*
X154476054Y-87633450D01*
X154325652Y-87726522D01*
X154200695Y-87851697D01*
X154197898Y-87856235D01*
X154140647Y-87896824D01*
X154069724Y-87900054D01*
X154008313Y-87864428D01*
X154000938Y-87855932D01*
X153992902Y-87845793D01*
X153878171Y-87731261D01*
X153866760Y-87722249D01*
X153728757Y-87637184D01*
X153715576Y-87631037D01*
X153561290Y-87579862D01*
X153547914Y-87576995D01*
X153453562Y-87567328D01*
X153447145Y-87567000D01*
X153334615Y-87567000D01*
X153319376Y-87571475D01*
X153318171Y-87572865D01*
X153316500Y-87580548D01*
X153316500Y-90014884D01*
X153320975Y-90030123D01*
X153322365Y-90031328D01*
X153330048Y-90032999D01*
X153447095Y-90032999D01*
X153453614Y-90032662D01*
X153549206Y-90022743D01*
X153562600Y-90019851D01*
X153716784Y-89968412D01*
X153729962Y-89962239D01*
X153867807Y-89876937D01*
X153879208Y-89867901D01*
X153993738Y-89753172D01*
X154000794Y-89744238D01*
X154058712Y-89703177D01*
X154129635Y-89699947D01*
X154191046Y-89735574D01*
X154197846Y-89743407D01*
X154201522Y-89749348D01*
X154206704Y-89754521D01*
X154217339Y-89765137D01*
X154326697Y-89874305D01*
X154332927Y-89878145D01*
X154332928Y-89878146D01*
X154470288Y-89962816D01*
X154477262Y-89967115D01*
X154497040Y-89973675D01*
X154638611Y-90020632D01*
X154638613Y-90020632D01*
X154645139Y-90022797D01*
X154651975Y-90023497D01*
X154651978Y-90023498D01*
X154693012Y-90027702D01*
X154749600Y-90033500D01*
X155525400Y-90033500D01*
X155528646Y-90033163D01*
X155528650Y-90033163D01*
X155624308Y-90023238D01*
X155624312Y-90023237D01*
X155631166Y-90022526D01*
X155637702Y-90020345D01*
X155637704Y-90020345D01*
X155786180Y-89970809D01*
X155798946Y-89966550D01*
X155949348Y-89873478D01*
X156001798Y-89820937D01*
X156069137Y-89753480D01*
X156074305Y-89748303D01*
X156078144Y-89742075D01*
X156082486Y-89736577D01*
X156140402Y-89695513D01*
X156211325Y-89692281D01*
X156270385Y-89725494D01*
X156371997Y-89826929D01*
X156378227Y-89830769D01*
X156378228Y-89830770D01*
X156499310Y-89905406D01*
X156520080Y-89918209D01*
X156685191Y-89972974D01*
X156692027Y-89973674D01*
X156692030Y-89973675D01*
X156742884Y-89978885D01*
X156787928Y-89983500D01*
X157462072Y-89983500D01*
X157465318Y-89983163D01*
X157465322Y-89983163D01*
X157559235Y-89973419D01*
X157559239Y-89973418D01*
X157566093Y-89972707D01*
X157572629Y-89970526D01*
X157572631Y-89970526D01*
X157712388Y-89923899D01*
X157731107Y-89917654D01*
X157866302Y-89833993D01*
X157872805Y-89829969D01*
X157872806Y-89829968D01*
X157879031Y-89826116D01*
X157910879Y-89794213D01*
X157973159Y-89760134D01*
X158043979Y-89765137D01*
X158089067Y-89794057D01*
X158092425Y-89797409D01*
X158121997Y-89826929D01*
X158128227Y-89830769D01*
X158128228Y-89830770D01*
X158249310Y-89905406D01*
X158270080Y-89918209D01*
X158435191Y-89972974D01*
X158442027Y-89973674D01*
X158442030Y-89973675D01*
X158492884Y-89978885D01*
X158537928Y-89983500D01*
X159212072Y-89983500D01*
X159215318Y-89983163D01*
X159215322Y-89983163D01*
X159309235Y-89973419D01*
X159309239Y-89973418D01*
X159316093Y-89972707D01*
X159322629Y-89970526D01*
X159322631Y-89970526D01*
X159462388Y-89923899D01*
X159481107Y-89917654D01*
X159629031Y-89826116D01*
X159657688Y-89797409D01*
X159746758Y-89708184D01*
X159746762Y-89708179D01*
X159751929Y-89703003D01*
X159757857Y-89693386D01*
X159759886Y-89691559D01*
X159760307Y-89691027D01*
X159760398Y-89691099D01*
X159810628Y-89645892D01*
X159865118Y-89633500D01*
X160321233Y-89633500D01*
X160332416Y-89634027D01*
X160339909Y-89635702D01*
X160347835Y-89635453D01*
X160347836Y-89635453D01*
X160407986Y-89633562D01*
X160411945Y-89633500D01*
X160439856Y-89633500D01*
X160443791Y-89633003D01*
X160443856Y-89632995D01*
X160455693Y-89632062D01*
X160487951Y-89631048D01*
X160491970Y-89630922D01*
X160499889Y-89630673D01*
X160519343Y-89625021D01*
X160538700Y-89621013D01*
X160550930Y-89619468D01*
X160550931Y-89619468D01*
X160558797Y-89618474D01*
X160566168Y-89615555D01*
X160566170Y-89615555D01*
X160599912Y-89602196D01*
X160611142Y-89598351D01*
X160645983Y-89588229D01*
X160645984Y-89588229D01*
X160653593Y-89586018D01*
X160660412Y-89581985D01*
X160660417Y-89581983D01*
X160671028Y-89575707D01*
X160688776Y-89567012D01*
X160707617Y-89559552D01*
X160743387Y-89533564D01*
X160753307Y-89527048D01*
X160784535Y-89508580D01*
X160784538Y-89508578D01*
X160791362Y-89504542D01*
X160805683Y-89490221D01*
X160820717Y-89477380D01*
X160830694Y-89470131D01*
X160837107Y-89465472D01*
X160865298Y-89431395D01*
X160873288Y-89422616D01*
X161650499Y-88645405D01*
X161712811Y-88611379D01*
X161739594Y-88608500D01*
X163025400Y-88608500D01*
X163028646Y-88608163D01*
X163028650Y-88608163D01*
X163124308Y-88598238D01*
X163124312Y-88598237D01*
X163131166Y-88597526D01*
X163137702Y-88595345D01*
X163137704Y-88595345D01*
X163291998Y-88543868D01*
X163298946Y-88541550D01*
X163449348Y-88448478D01*
X163574305Y-88323303D01*
X163584477Y-88306801D01*
X163663275Y-88178968D01*
X163663276Y-88178966D01*
X163667115Y-88172738D01*
X163693564Y-88092995D01*
X163720632Y-88011389D01*
X163720632Y-88011387D01*
X163722797Y-88004861D01*
X163733500Y-87900400D01*
X163733500Y-87099600D01*
X163733163Y-87096350D01*
X163723238Y-87000692D01*
X163723237Y-87000688D01*
X163722526Y-86993834D01*
X163708583Y-86952040D01*
X163668868Y-86833002D01*
X163666550Y-86826054D01*
X163573478Y-86675652D01*
X163448303Y-86550695D01*
X163442069Y-86546852D01*
X163396310Y-86518645D01*
X163348817Y-86465873D01*
X163337395Y-86395801D01*
X163365669Y-86330677D01*
X163384597Y-86312298D01*
X163387856Y-86309738D01*
X163396506Y-86301501D01*
X163527212Y-86150877D01*
X163534147Y-86141153D01*
X163634010Y-85968533D01*
X163638984Y-85957669D01*
X163704407Y-85769273D01*
X163704648Y-85768284D01*
X163703180Y-85757992D01*
X163689615Y-85754000D01*
X161014598Y-85754000D01*
X161001067Y-85757973D01*
X160999712Y-85767399D01*
X161021194Y-85856537D01*
X161025083Y-85867832D01*
X161107629Y-86049382D01*
X161113576Y-86059724D01*
X161228968Y-86222397D01*
X161236761Y-86231425D01*
X161327757Y-86318535D01*
X161363133Y-86380090D01*
X161359614Y-86451000D01*
X161318317Y-86508750D01*
X161306947Y-86516685D01*
X161250652Y-86551522D01*
X161125695Y-86676697D01*
X161121855Y-86682927D01*
X161121854Y-86682928D01*
X161043415Y-86810180D01*
X161032885Y-86827262D01*
X161020706Y-86863980D01*
X160988418Y-86961328D01*
X160977203Y-86995139D01*
X160976503Y-87001975D01*
X160976502Y-87001978D01*
X160974502Y-87021500D01*
X160966500Y-87099600D01*
X160966500Y-87485405D01*
X160946498Y-87553526D01*
X160929595Y-87574500D01*
X160174500Y-88329595D01*
X160112188Y-88363621D01*
X160085405Y-88366500D01*
X159864964Y-88366500D01*
X159796843Y-88346498D01*
X159757821Y-88306804D01*
X159751116Y-88295969D01*
X159744212Y-88289077D01*
X159743411Y-88287613D01*
X159741389Y-88285062D01*
X159741826Y-88284716D01*
X159710134Y-88226796D01*
X159715137Y-88155976D01*
X159744056Y-88110890D01*
X159746757Y-88108184D01*
X159751929Y-88103003D01*
X159814027Y-88002262D01*
X159839369Y-87961150D01*
X159839370Y-87961148D01*
X159843209Y-87954920D01*
X159897974Y-87789809D01*
X159908500Y-87687072D01*
X159908500Y-87112928D01*
X159907117Y-87099600D01*
X159898419Y-87015765D01*
X159898418Y-87015761D01*
X159897707Y-87008907D01*
X159895396Y-87001978D01*
X159849117Y-86863265D01*
X159842654Y-86843893D01*
X159793122Y-86763850D01*
X159754969Y-86702195D01*
X159754968Y-86702194D01*
X159751116Y-86695969D01*
X159744212Y-86689077D01*
X159743410Y-86687612D01*
X159741389Y-86685062D01*
X159741826Y-86684716D01*
X159710134Y-86626796D01*
X159715137Y-86555976D01*
X159744056Y-86510890D01*
X159746757Y-86508184D01*
X159751929Y-86503003D01*
X159755770Y-86496772D01*
X159839369Y-86361150D01*
X159839370Y-86361148D01*
X159843209Y-86354920D01*
X159897974Y-86189809D01*
X159898698Y-86182749D01*
X159908172Y-86090271D01*
X159908500Y-86087072D01*
X159908500Y-85512928D01*
X159908163Y-85509678D01*
X159898419Y-85415765D01*
X159898418Y-85415761D01*
X159897707Y-85408907D01*
X159842654Y-85243893D01*
X159835119Y-85231716D01*
X160995352Y-85231716D01*
X160996820Y-85242008D01*
X161010385Y-85246000D01*
X162077885Y-85246000D01*
X162093124Y-85241525D01*
X162094329Y-85240135D01*
X162096000Y-85232452D01*
X162096000Y-85227885D01*
X162604000Y-85227885D01*
X162608475Y-85243124D01*
X162609865Y-85244329D01*
X162617548Y-85246000D01*
X163685402Y-85246000D01*
X163698933Y-85242027D01*
X163700288Y-85232601D01*
X163678806Y-85143463D01*
X163674917Y-85132168D01*
X163592371Y-84950618D01*
X163586424Y-84940276D01*
X163471032Y-84777603D01*
X163463239Y-84768575D01*
X163319169Y-84630658D01*
X163309804Y-84623262D01*
X163142259Y-84515079D01*
X163131655Y-84509583D01*
X162946688Y-84435039D01*
X162935230Y-84431645D01*
X162738072Y-84393143D01*
X162729209Y-84392066D01*
X162726500Y-84392000D01*
X162622115Y-84392000D01*
X162606876Y-84396475D01*
X162605671Y-84397865D01*
X162604000Y-84405548D01*
X162604000Y-85227885D01*
X162096000Y-85227885D01*
X162096000Y-84410115D01*
X162091525Y-84394876D01*
X162090135Y-84393671D01*
X162082452Y-84392000D01*
X162025168Y-84392000D01*
X162019192Y-84392285D01*
X161870506Y-84406471D01*
X161858772Y-84408730D01*
X161667401Y-84464872D01*
X161656325Y-84469302D01*
X161479022Y-84560619D01*
X161468976Y-84567069D01*
X161312143Y-84690262D01*
X161303494Y-84698499D01*
X161172788Y-84849123D01*
X161165853Y-84858847D01*
X161065990Y-85031467D01*
X161061016Y-85042331D01*
X160995593Y-85230727D01*
X160995352Y-85231716D01*
X159835119Y-85231716D01*
X159751116Y-85095969D01*
X159743861Y-85088726D01*
X159742895Y-85086962D01*
X159741387Y-85085059D01*
X159741713Y-85084801D01*
X159709781Y-85026446D01*
X159714782Y-84955625D01*
X159743708Y-84910530D01*
X159746364Y-84907869D01*
X159755375Y-84896460D01*
X159838912Y-84760937D01*
X159845056Y-84747759D01*
X159895315Y-84596234D01*
X159898181Y-84582868D01*
X159907672Y-84490230D01*
X159908000Y-84483815D01*
X159908000Y-84472115D01*
X159903525Y-84456876D01*
X159902135Y-84455671D01*
X159894452Y-84454000D01*
X158784500Y-84454000D01*
X158716379Y-84433998D01*
X158669886Y-84380342D01*
X158658500Y-84328000D01*
X158658500Y-83927885D01*
X159166500Y-83927885D01*
X159170975Y-83943124D01*
X159172365Y-83944329D01*
X159180048Y-83946000D01*
X159889885Y-83946000D01*
X159905124Y-83941525D01*
X159906329Y-83940135D01*
X159908000Y-83932452D01*
X159908000Y-83916234D01*
X159907663Y-83909718D01*
X159897925Y-83815868D01*
X159895032Y-83802472D01*
X159844512Y-83651047D01*
X159838347Y-83637885D01*
X159754574Y-83502508D01*
X159745540Y-83491110D01*
X159632871Y-83378637D01*
X159621460Y-83369625D01*
X159485937Y-83286088D01*
X159472759Y-83279944D01*
X159321234Y-83229685D01*
X159307868Y-83226819D01*
X159215230Y-83217328D01*
X159208815Y-83217000D01*
X159184615Y-83217000D01*
X159169376Y-83221475D01*
X159168171Y-83222865D01*
X159166500Y-83230548D01*
X159166500Y-83927885D01*
X158658500Y-83927885D01*
X158658500Y-83235115D01*
X158654025Y-83219876D01*
X158652635Y-83218671D01*
X158644952Y-83217000D01*
X158616234Y-83217000D01*
X158609718Y-83217337D01*
X158515868Y-83227075D01*
X158502472Y-83229968D01*
X158351047Y-83280488D01*
X158337885Y-83286653D01*
X158202508Y-83370426D01*
X158191110Y-83379460D01*
X158089607Y-83481140D01*
X158027324Y-83515219D01*
X157956504Y-83510216D01*
X157911416Y-83481295D01*
X157894389Y-83464297D01*
X157803003Y-83373071D01*
X157759894Y-83346498D01*
X157661150Y-83285631D01*
X157661148Y-83285630D01*
X157654920Y-83281791D01*
X157489809Y-83227026D01*
X157482973Y-83226326D01*
X157482970Y-83226325D01*
X157422892Y-83220170D01*
X157387072Y-83216500D01*
X156787928Y-83216500D01*
X156784682Y-83216837D01*
X156784678Y-83216837D01*
X156690765Y-83226581D01*
X156690761Y-83226582D01*
X156683907Y-83227293D01*
X156677371Y-83229474D01*
X156677369Y-83229474D01*
X156596042Y-83256607D01*
X156518893Y-83282346D01*
X156370969Y-83373884D01*
X156365796Y-83379066D01*
X156253242Y-83491816D01*
X156253238Y-83491821D01*
X156248071Y-83496997D01*
X156244231Y-83503227D01*
X156244230Y-83503228D01*
X156171711Y-83620876D01*
X156156791Y-83645080D01*
X156102026Y-83810191D01*
X156101326Y-83817027D01*
X156101325Y-83817030D01*
X156093059Y-83897710D01*
X156066218Y-83963438D01*
X156008103Y-84004220D01*
X155937165Y-84007108D01*
X155891011Y-83984830D01*
X155818176Y-83928941D01*
X155803993Y-83920753D01*
X155671350Y-83865810D01*
X155655532Y-83861572D01*
X155548934Y-83847538D01*
X155540725Y-83847000D01*
X155110615Y-83847000D01*
X155095376Y-83851475D01*
X155094171Y-83852865D01*
X155092500Y-83860548D01*
X155092500Y-84370500D01*
X155072498Y-84438621D01*
X155018842Y-84485114D01*
X154966501Y-84496500D01*
X154892501Y-84496500D01*
X154818499Y-84496501D01*
X154750380Y-84476499D01*
X154703887Y-84422844D01*
X154692500Y-84370501D01*
X154692500Y-83865116D01*
X154688025Y-83849877D01*
X154686635Y-83848672D01*
X154678952Y-83847001D01*
X154244277Y-83847001D01*
X154236065Y-83847539D01*
X154129467Y-83861572D01*
X154113652Y-83865810D01*
X153981007Y-83920753D01*
X153966824Y-83928941D01*
X153852923Y-84016341D01*
X153841338Y-84027926D01*
X153820164Y-84055520D01*
X153762826Y-84097387D01*
X153705550Y-84100588D01*
X153705207Y-84103748D01*
X153646486Y-84097369D01*
X153639672Y-84097000D01*
X153002115Y-84097000D01*
X152986876Y-84101475D01*
X152985671Y-84102865D01*
X152984000Y-84110548D01*
X152984000Y-86944884D01*
X152476000Y-86944884D01*
X152476000Y-84115116D01*
X152471525Y-84099877D01*
X152470135Y-84098672D01*
X152462452Y-84097001D01*
X151820331Y-84097001D01*
X151813510Y-84097371D01*
X151754793Y-84103748D01*
X151754439Y-84100487D01*
X151698576Y-84097569D01*
X151640368Y-84055393D01*
X151619013Y-84027563D01*
X151613987Y-84021013D01*
X151486875Y-83923476D01*
X151338850Y-83862162D01*
X151339634Y-83860268D01*
X151288436Y-83829055D01*
X151257420Y-83765192D01*
X151265854Y-83694698D01*
X151292504Y-83655290D01*
X151295761Y-83652028D01*
X151399305Y-83548303D01*
X151402102Y-83543765D01*
X151459353Y-83503176D01*
X151530276Y-83499946D01*
X151591687Y-83535572D01*
X151599062Y-83544068D01*
X151607098Y-83554207D01*
X151721829Y-83668739D01*
X151733240Y-83677751D01*
X151871243Y-83762816D01*
X151884424Y-83768963D01*
X152038710Y-83820138D01*
X152052086Y-83823005D01*
X152146438Y-83832672D01*
X152152854Y-83833000D01*
X152265385Y-83833000D01*
X152280624Y-83828525D01*
X152281829Y-83827135D01*
X152283500Y-83819452D01*
X152283500Y-83814884D01*
X152791500Y-83814884D01*
X152795975Y-83830123D01*
X152797365Y-83831328D01*
X152805048Y-83832999D01*
X152922095Y-83832999D01*
X152928614Y-83832662D01*
X153024206Y-83822743D01*
X153037600Y-83819851D01*
X153191784Y-83768412D01*
X153204962Y-83762239D01*
X153342807Y-83676937D01*
X153354208Y-83667901D01*
X153468739Y-83553171D01*
X153477751Y-83541760D01*
X153562816Y-83403757D01*
X153568963Y-83390576D01*
X153620138Y-83236290D01*
X153623005Y-83222914D01*
X153632672Y-83128562D01*
X153633000Y-83122146D01*
X153633000Y-82872115D01*
X153628525Y-82856876D01*
X153627135Y-82855671D01*
X153619452Y-82854000D01*
X152809615Y-82854000D01*
X152794376Y-82858475D01*
X152793171Y-82859865D01*
X152791500Y-82867548D01*
X152791500Y-83814884D01*
X152283500Y-83814884D01*
X152283500Y-82327885D01*
X152791500Y-82327885D01*
X152795975Y-82343124D01*
X152797365Y-82344329D01*
X152805048Y-82346000D01*
X153614884Y-82346000D01*
X153630123Y-82341525D01*
X153631328Y-82340135D01*
X153632999Y-82332452D01*
X153632999Y-82077905D01*
X153632662Y-82071386D01*
X153622743Y-81975794D01*
X153619851Y-81962400D01*
X153568412Y-81808216D01*
X153562239Y-81795038D01*
X153476937Y-81657193D01*
X153467901Y-81645792D01*
X153353171Y-81531261D01*
X153341760Y-81522249D01*
X153203757Y-81437184D01*
X153190576Y-81431037D01*
X153036290Y-81379862D01*
X153022914Y-81376995D01*
X152928562Y-81367328D01*
X152922145Y-81367000D01*
X152809615Y-81367000D01*
X152794376Y-81371475D01*
X152793171Y-81372865D01*
X152791500Y-81380548D01*
X152791500Y-82327885D01*
X152283500Y-82327885D01*
X152283500Y-81385116D01*
X152279025Y-81369877D01*
X152277635Y-81368672D01*
X152269952Y-81367001D01*
X152152905Y-81367001D01*
X152146386Y-81367338D01*
X152050794Y-81377257D01*
X152037400Y-81380149D01*
X151883216Y-81431588D01*
X151870038Y-81437761D01*
X151732193Y-81523063D01*
X151720792Y-81532099D01*
X151606262Y-81646828D01*
X151599206Y-81655762D01*
X151541288Y-81696823D01*
X151470365Y-81700053D01*
X151408954Y-81664426D01*
X151402154Y-81656593D01*
X151398478Y-81650652D01*
X151273303Y-81525695D01*
X151202200Y-81481866D01*
X151128968Y-81436725D01*
X151128966Y-81436724D01*
X151122738Y-81432885D01*
X151042995Y-81406436D01*
X150961389Y-81379368D01*
X150961387Y-81379368D01*
X150954861Y-81377203D01*
X150948025Y-81376503D01*
X150948022Y-81376502D01*
X150904969Y-81372091D01*
X150850400Y-81366500D01*
X150074600Y-81366500D01*
X150071354Y-81366837D01*
X150071350Y-81366837D01*
X149975692Y-81376762D01*
X149975688Y-81376763D01*
X149968834Y-81377474D01*
X149962298Y-81379655D01*
X149962296Y-81379655D01*
X149842316Y-81419684D01*
X149801054Y-81433450D01*
X149650652Y-81526522D01*
X149525695Y-81651697D01*
X149521855Y-81657927D01*
X149521854Y-81657928D01*
X149520001Y-81660935D01*
X149432885Y-81802262D01*
X149377203Y-81970139D01*
X149376503Y-81976975D01*
X149376502Y-81976978D01*
X149372091Y-82020031D01*
X149366500Y-82074600D01*
X149366500Y-82084804D01*
X149346498Y-82152925D01*
X149337579Y-82165126D01*
X149334703Y-82168602D01*
X149326720Y-82177375D01*
X149207744Y-82296352D01*
X149199462Y-82303888D01*
X149192982Y-82308000D01*
X149187555Y-82313779D01*
X149187554Y-82313780D01*
X149146356Y-82357652D01*
X149143601Y-82360494D01*
X149123865Y-82380230D01*
X149121385Y-82383427D01*
X149113682Y-82392447D01*
X149083414Y-82424679D01*
X149079595Y-82431625D01*
X149079593Y-82431628D01*
X149073652Y-82442434D01*
X149062801Y-82458953D01*
X149050386Y-82474959D01*
X149047241Y-82482228D01*
X149047238Y-82482232D01*
X149032826Y-82515537D01*
X149027609Y-82526187D01*
X149006305Y-82564940D01*
X149004334Y-82572615D01*
X149004334Y-82572616D01*
X149001267Y-82584562D01*
X148994863Y-82603266D01*
X148986819Y-82621855D01*
X148985580Y-82629678D01*
X148985577Y-82629688D01*
X148979901Y-82665524D01*
X148977495Y-82677144D01*
X148972272Y-82697487D01*
X148966500Y-82719970D01*
X148966500Y-82740224D01*
X148964949Y-82759934D01*
X148961780Y-82779943D01*
X148962526Y-82787835D01*
X148965941Y-82823961D01*
X148966500Y-82835819D01*
X148966500Y-83527658D01*
X148946498Y-83595779D01*
X148891749Y-83642765D01*
X148782957Y-83691202D01*
X148712590Y-83700636D01*
X148704927Y-83699216D01*
X148669455Y-83691500D01*
X146735115Y-83691500D01*
X146719876Y-83695975D01*
X146718671Y-83697365D01*
X146717000Y-83705048D01*
X146717000Y-83783766D01*
X146717337Y-83790282D01*
X146727075Y-83884132D01*
X146729968Y-83897528D01*
X146780488Y-84048953D01*
X146786653Y-84062115D01*
X146870426Y-84197492D01*
X146879464Y-84208894D01*
X146881139Y-84210567D01*
X146881919Y-84211993D01*
X146884007Y-84214627D01*
X146883556Y-84214984D01*
X146915219Y-84272849D01*
X146910216Y-84343669D01*
X146881299Y-84388754D01*
X146878476Y-84391583D01*
X146873071Y-84396997D01*
X146869231Y-84403227D01*
X146869230Y-84403228D01*
X146811736Y-84496501D01*
X146781791Y-84545080D01*
X146727026Y-84710191D01*
X146716500Y-84812928D01*
X146716500Y-85512072D01*
X146716837Y-85515318D01*
X146716837Y-85515322D01*
X146725224Y-85596150D01*
X146727293Y-85616093D01*
X146782346Y-85781107D01*
X146873884Y-85929031D01*
X146879066Y-85934204D01*
X146991816Y-86046758D01*
X146991821Y-86046762D01*
X146996997Y-86051929D01*
X147003227Y-86055769D01*
X147003228Y-86055770D01*
X147134000Y-86136379D01*
X147145080Y-86143209D01*
X147310191Y-86197974D01*
X147317027Y-86198674D01*
X147317030Y-86198675D01*
X147368526Y-86203951D01*
X147412928Y-86208500D01*
X147987072Y-86208500D01*
X147990318Y-86208163D01*
X147990322Y-86208163D01*
X148084235Y-86198419D01*
X148084239Y-86198418D01*
X148091093Y-86197707D01*
X148097630Y-86195526D01*
X148104372Y-86194070D01*
X148104959Y-86196787D01*
X148163442Y-86194659D01*
X148224524Y-86230846D01*
X148256346Y-86294312D01*
X148248804Y-86364907D01*
X148221458Y-86405862D01*
X147982435Y-86644884D01*
X147768682Y-86858637D01*
X147706370Y-86892662D01*
X147635554Y-86887597D01*
X147619660Y-86880378D01*
X147598121Y-86868732D01*
X147598116Y-86868730D01*
X147592701Y-86865802D01*
X147403768Y-86807318D01*
X147397643Y-86806674D01*
X147397642Y-86806674D01*
X147213204Y-86787289D01*
X147213202Y-86787289D01*
X147207075Y-86786645D01*
X147124576Y-86794153D01*
X147016251Y-86804011D01*
X147016248Y-86804012D01*
X147010112Y-86804570D01*
X147004206Y-86806308D01*
X147004202Y-86806309D01*
X146937114Y-86826054D01*
X146820381Y-86860410D01*
X146814923Y-86863263D01*
X146814919Y-86863265D01*
X146725387Y-86910072D01*
X146645110Y-86952040D01*
X146638448Y-86957396D01*
X146637298Y-86957871D01*
X146635156Y-86959273D01*
X146634889Y-86958866D01*
X146572828Y-86984490D01*
X146502973Y-86971806D01*
X146451066Y-86923369D01*
X146433500Y-86859197D01*
X146433500Y-83165385D01*
X146717000Y-83165385D01*
X146721475Y-83180624D01*
X146722865Y-83181829D01*
X146730548Y-83183500D01*
X147427885Y-83183500D01*
X147443124Y-83179025D01*
X147444329Y-83177635D01*
X147446000Y-83169952D01*
X147446000Y-83165385D01*
X147954000Y-83165385D01*
X147958475Y-83180624D01*
X147959865Y-83181829D01*
X147967548Y-83183500D01*
X148664885Y-83183500D01*
X148680124Y-83179025D01*
X148681329Y-83177635D01*
X148683000Y-83169952D01*
X148683000Y-83091234D01*
X148682663Y-83084718D01*
X148672925Y-82990868D01*
X148670032Y-82977472D01*
X148619512Y-82826047D01*
X148613347Y-82812885D01*
X148529574Y-82677508D01*
X148520540Y-82666110D01*
X148407871Y-82553637D01*
X148396460Y-82544625D01*
X148260937Y-82461088D01*
X148247759Y-82454944D01*
X148096234Y-82404685D01*
X148082868Y-82401819D01*
X147990230Y-82392328D01*
X147983815Y-82392000D01*
X147972115Y-82392000D01*
X147956876Y-82396475D01*
X147955671Y-82397865D01*
X147954000Y-82405548D01*
X147954000Y-83165385D01*
X147446000Y-83165385D01*
X147446000Y-82410115D01*
X147441525Y-82394876D01*
X147440135Y-82393671D01*
X147432452Y-82392000D01*
X147416234Y-82392000D01*
X147409718Y-82392337D01*
X147315868Y-82402075D01*
X147302472Y-82404968D01*
X147151047Y-82455488D01*
X147137885Y-82461653D01*
X147002508Y-82545426D01*
X146991110Y-82554460D01*
X146878637Y-82667129D01*
X146869625Y-82678540D01*
X146786088Y-82814063D01*
X146779944Y-82827241D01*
X146729685Y-82978766D01*
X146726819Y-82992132D01*
X146717328Y-83084770D01*
X146717000Y-83091185D01*
X146717000Y-83165385D01*
X146433500Y-83165385D01*
X146433500Y-79278767D01*
X146434027Y-79267584D01*
X146435702Y-79260091D01*
X146434918Y-79235134D01*
X146433562Y-79192014D01*
X146433500Y-79188055D01*
X146433500Y-79160144D01*
X146432995Y-79156144D01*
X146432062Y-79144301D01*
X146430922Y-79108030D01*
X146430673Y-79100111D01*
X146425021Y-79080657D01*
X146421013Y-79061300D01*
X146419468Y-79049070D01*
X146419468Y-79049069D01*
X146418474Y-79041203D01*
X146415555Y-79033830D01*
X146402196Y-79000088D01*
X146398351Y-78988858D01*
X146388229Y-78954017D01*
X146388229Y-78954016D01*
X146386018Y-78946407D01*
X146381985Y-78939588D01*
X146381983Y-78939583D01*
X146375707Y-78928972D01*
X146367012Y-78911224D01*
X146359552Y-78892383D01*
X146333564Y-78856613D01*
X146327048Y-78846693D01*
X146308578Y-78815463D01*
X146304542Y-78808638D01*
X146298936Y-78803031D01*
X146290220Y-78794315D01*
X146277379Y-78779281D01*
X146270131Y-78769305D01*
X146270130Y-78769304D01*
X146265472Y-78762893D01*
X146231407Y-78734712D01*
X146222626Y-78726722D01*
X146003647Y-78507742D01*
X145996113Y-78499463D01*
X145992000Y-78492982D01*
X145942347Y-78446355D01*
X145939506Y-78443601D01*
X145919770Y-78423865D01*
X145916573Y-78421385D01*
X145907551Y-78413680D01*
X145894122Y-78401069D01*
X145875321Y-78383414D01*
X145868375Y-78379595D01*
X145868372Y-78379593D01*
X145857566Y-78373652D01*
X145841047Y-78362801D01*
X145840583Y-78362441D01*
X145825041Y-78350386D01*
X145817772Y-78347241D01*
X145817768Y-78347238D01*
X145784463Y-78332826D01*
X145773813Y-78327609D01*
X145735060Y-78306305D01*
X145715437Y-78301267D01*
X145696734Y-78294863D01*
X145685420Y-78289967D01*
X145685419Y-78289967D01*
X145678145Y-78286819D01*
X145670322Y-78285580D01*
X145670312Y-78285577D01*
X145634476Y-78279901D01*
X145622856Y-78277495D01*
X145587711Y-78268472D01*
X145587710Y-78268472D01*
X145580030Y-78266500D01*
X145559776Y-78266500D01*
X145540065Y-78264949D01*
X145527886Y-78263020D01*
X145520057Y-78261780D01*
X145481921Y-78265385D01*
X145476039Y-78265941D01*
X145464181Y-78266500D01*
X141578767Y-78266500D01*
X141567584Y-78265973D01*
X141560091Y-78264298D01*
X141552165Y-78264547D01*
X141552164Y-78264547D01*
X141492001Y-78266438D01*
X141488043Y-78266500D01*
X141460144Y-78266500D01*
X141456154Y-78267004D01*
X141444320Y-78267936D01*
X141400111Y-78269326D01*
X141392497Y-78271538D01*
X141392492Y-78271539D01*
X141380659Y-78274977D01*
X141361296Y-78278988D01*
X141341203Y-78281526D01*
X141333836Y-78284443D01*
X141333831Y-78284444D01*
X141300092Y-78297802D01*
X141288865Y-78301646D01*
X141246407Y-78313982D01*
X141239581Y-78318019D01*
X141228972Y-78324293D01*
X141211224Y-78332988D01*
X141192383Y-78340448D01*
X141185967Y-78345110D01*
X141185966Y-78345110D01*
X141156613Y-78366436D01*
X141146693Y-78372952D01*
X141115465Y-78391420D01*
X141115462Y-78391422D01*
X141108638Y-78395458D01*
X141094317Y-78409779D01*
X141079284Y-78422619D01*
X141062893Y-78434528D01*
X141053108Y-78446356D01*
X141034702Y-78468605D01*
X141026712Y-78477384D01*
X139912000Y-79592095D01*
X139849688Y-79626121D01*
X139822905Y-79629000D01*
X139578640Y-79629000D01*
X139510519Y-79608998D01*
X139471497Y-79569304D01*
X139426116Y-79495969D01*
X139418861Y-79488726D01*
X139417895Y-79486962D01*
X139416387Y-79485059D01*
X139416713Y-79484801D01*
X139384781Y-79426446D01*
X139389782Y-79355625D01*
X139418708Y-79310530D01*
X139421364Y-79307869D01*
X139430375Y-79296460D01*
X139513912Y-79160937D01*
X139520056Y-79147759D01*
X139570315Y-78996234D01*
X139573181Y-78982868D01*
X139582672Y-78890230D01*
X139583000Y-78883815D01*
X139583000Y-78809615D01*
X139578525Y-78794376D01*
X139577135Y-78793171D01*
X139569452Y-78791500D01*
X138472000Y-78791500D01*
X138403879Y-78771498D01*
X138357386Y-78717842D01*
X138346000Y-78665500D01*
X138346000Y-78265385D01*
X138854000Y-78265385D01*
X138858475Y-78280624D01*
X138859865Y-78281829D01*
X138867548Y-78283500D01*
X139564885Y-78283500D01*
X139580124Y-78279025D01*
X139581329Y-78277635D01*
X139583000Y-78269952D01*
X139583000Y-78191234D01*
X139582663Y-78184718D01*
X139572925Y-78090868D01*
X139570032Y-78077472D01*
X139519512Y-77926047D01*
X139513347Y-77912885D01*
X139429574Y-77777508D01*
X139420540Y-77766110D01*
X139307871Y-77653637D01*
X139296460Y-77644625D01*
X139160937Y-77561088D01*
X139147759Y-77554944D01*
X138996234Y-77504685D01*
X138982868Y-77501819D01*
X138890230Y-77492328D01*
X138883815Y-77492000D01*
X138872115Y-77492000D01*
X138856876Y-77496475D01*
X138855671Y-77497865D01*
X138854000Y-77505548D01*
X138854000Y-78265385D01*
X138346000Y-78265385D01*
X138346000Y-77510115D01*
X138341525Y-77494876D01*
X138340135Y-77493671D01*
X138332452Y-77492000D01*
X138316234Y-77492000D01*
X138309718Y-77492337D01*
X138215868Y-77502075D01*
X138202472Y-77504968D01*
X138051047Y-77555488D01*
X138037885Y-77561653D01*
X137902508Y-77645426D01*
X137891110Y-77654460D01*
X137839520Y-77706140D01*
X137777237Y-77740219D01*
X137706417Y-77735216D01*
X137661330Y-77706295D01*
X137608188Y-77653246D01*
X137608183Y-77653242D01*
X137603003Y-77648071D01*
X137454920Y-77556791D01*
X137289809Y-77502026D01*
X137282973Y-77501326D01*
X137282970Y-77501325D01*
X137231474Y-77496049D01*
X137187072Y-77491500D01*
X136612928Y-77491500D01*
X136609682Y-77491837D01*
X136609678Y-77491837D01*
X136515765Y-77501581D01*
X136515761Y-77501582D01*
X136508907Y-77502293D01*
X136502371Y-77504474D01*
X136502369Y-77504474D01*
X136369605Y-77548768D01*
X136343893Y-77557346D01*
X136195969Y-77648884D01*
X136139166Y-77705787D01*
X136076884Y-77739866D01*
X136006064Y-77734863D01*
X135960975Y-77705942D01*
X135908183Y-77653242D01*
X135903003Y-77648071D01*
X135754920Y-77556791D01*
X135589809Y-77502026D01*
X135582973Y-77501326D01*
X135582970Y-77501325D01*
X135531474Y-77496049D01*
X135487072Y-77491500D01*
X134912928Y-77491500D01*
X134909682Y-77491837D01*
X134909678Y-77491837D01*
X134815765Y-77501581D01*
X134815761Y-77501582D01*
X134808907Y-77502293D01*
X134802371Y-77504474D01*
X134802369Y-77504474D01*
X134669605Y-77548768D01*
X134643893Y-77557346D01*
X134495969Y-77648884D01*
X134490796Y-77654066D01*
X134378242Y-77766816D01*
X134378238Y-77766821D01*
X134373071Y-77771997D01*
X134281791Y-77920080D01*
X134227026Y-78085191D01*
X134216500Y-78187928D01*
X134216500Y-78787072D01*
X134216837Y-78790318D01*
X134216837Y-78790322D01*
X134226538Y-78883815D01*
X134227293Y-78891093D01*
X134229474Y-78897629D01*
X134229474Y-78897631D01*
X134259910Y-78988858D01*
X134282346Y-79056107D01*
X134373884Y-79204031D01*
X134379066Y-79209204D01*
X134480786Y-79310747D01*
X134514865Y-79373030D01*
X134509862Y-79443850D01*
X134480941Y-79488937D01*
X134378246Y-79591812D01*
X134378242Y-79591817D01*
X134373071Y-79596997D01*
X134369231Y-79603227D01*
X134369230Y-79603228D01*
X134355119Y-79626121D01*
X134281791Y-79745080D01*
X134227026Y-79910191D01*
X134216500Y-80012928D01*
X134216500Y-80612072D01*
X134225569Y-80699472D01*
X134226824Y-80711570D01*
X134213959Y-80781391D01*
X134165389Y-80833174D01*
X134096533Y-80850476D01*
X134029253Y-80827806D01*
X134012402Y-80813669D01*
X134005250Y-80806517D01*
X133997674Y-80798191D01*
X133993553Y-80791697D01*
X133943734Y-80744914D01*
X133940893Y-80742160D01*
X133921094Y-80722361D01*
X133917969Y-80719937D01*
X133917960Y-80719929D01*
X133917874Y-80719863D01*
X133908849Y-80712155D01*
X133885075Y-80689830D01*
X133876506Y-80681783D01*
X133858669Y-80671977D01*
X133842153Y-80661127D01*
X133826067Y-80648650D01*
X133785334Y-80631024D01*
X133774686Y-80625807D01*
X133757149Y-80616166D01*
X133735803Y-80604431D01*
X133728128Y-80602460D01*
X133728122Y-80602458D01*
X133716089Y-80599369D01*
X133697387Y-80592966D01*
X133678708Y-80584883D01*
X133638907Y-80578579D01*
X133634873Y-80577940D01*
X133623260Y-80575535D01*
X133580282Y-80564500D01*
X133559935Y-80564500D01*
X133540224Y-80562949D01*
X133527950Y-80561005D01*
X133520121Y-80559765D01*
X133512229Y-80560511D01*
X133475944Y-80563941D01*
X133464086Y-80564500D01*
X132979020Y-80564500D01*
X132967791Y-80563971D01*
X132960281Y-80562292D01*
X132952355Y-80562541D01*
X132952354Y-80562541D01*
X132892002Y-80564438D01*
X132888044Y-80564500D01*
X132860017Y-80564500D01*
X132855971Y-80565011D01*
X132844143Y-80565942D01*
X132799795Y-80567336D01*
X132792177Y-80569549D01*
X132792178Y-80569549D01*
X132780254Y-80573013D01*
X132760894Y-80577022D01*
X132748566Y-80578579D01*
X132748563Y-80578580D01*
X132740701Y-80579573D01*
X132733335Y-80582490D01*
X132733329Y-80582491D01*
X132699439Y-80595909D01*
X132688212Y-80599753D01*
X132645607Y-80612131D01*
X132638788Y-80616164D01*
X132638783Y-80616166D01*
X132628091Y-80622490D01*
X132610341Y-80631187D01*
X132591412Y-80638681D01*
X132584996Y-80643342D01*
X132584995Y-80643343D01*
X132555519Y-80664759D01*
X132545595Y-80671278D01*
X132514224Y-80689830D01*
X132514219Y-80689834D01*
X132507401Y-80693866D01*
X132493014Y-80708253D01*
X132477980Y-80721094D01*
X132461513Y-80733058D01*
X132456460Y-80739166D01*
X132433228Y-80767249D01*
X132425238Y-80776029D01*
X132406517Y-80794750D01*
X132398191Y-80802326D01*
X132391697Y-80806447D01*
X132355979Y-80844483D01*
X132344915Y-80856265D01*
X132342160Y-80859107D01*
X132322361Y-80878906D01*
X132319937Y-80882031D01*
X132319929Y-80882040D01*
X132319863Y-80882126D01*
X132312155Y-80891151D01*
X132281783Y-80923494D01*
X132277965Y-80930438D01*
X132277964Y-80930440D01*
X132271978Y-80941329D01*
X132261127Y-80957847D01*
X132248650Y-80973933D01*
X132231024Y-81014666D01*
X132225807Y-81025314D01*
X132204431Y-81064197D01*
X132202460Y-81071872D01*
X132202458Y-81071878D01*
X132199369Y-81083911D01*
X132192966Y-81102613D01*
X132184883Y-81121292D01*
X132183644Y-81129117D01*
X132177940Y-81165127D01*
X132175535Y-81176740D01*
X132164500Y-81219718D01*
X132164500Y-81240065D01*
X132162949Y-81259776D01*
X132159765Y-81279879D01*
X132160511Y-81287771D01*
X132163941Y-81324056D01*
X132164500Y-81335914D01*
X132164500Y-83338297D01*
X132144498Y-83406418D01*
X132090842Y-83452911D01*
X132038500Y-83464297D01*
X131877310Y-83464297D01*
X131870858Y-83465669D01*
X131870853Y-83465669D01*
X131780197Y-83484939D01*
X131709406Y-83479537D01*
X131652774Y-83436720D01*
X131628280Y-83370082D01*
X131628000Y-83361693D01*
X131627999Y-83155332D01*
X131627629Y-83148510D01*
X131622105Y-83097648D01*
X131618479Y-83082396D01*
X131573324Y-82961946D01*
X131564786Y-82946351D01*
X131488288Y-82844279D01*
X131475717Y-82831709D01*
X131441432Y-82806014D01*
X131398916Y-82749156D01*
X131393889Y-82678337D01*
X131396630Y-82667928D01*
X131396744Y-82667562D01*
X131422682Y-82583768D01*
X131424786Y-82563749D01*
X131442711Y-82393204D01*
X131442711Y-82393202D01*
X131443355Y-82387075D01*
X131425430Y-82190112D01*
X131421682Y-82177375D01*
X131371330Y-82006294D01*
X131369590Y-82000381D01*
X131359919Y-81981881D01*
X131280813Y-81830568D01*
X131277960Y-81825110D01*
X131154032Y-81670975D01*
X131147727Y-81665684D01*
X131123647Y-81645479D01*
X131002526Y-81543846D01*
X130997128Y-81540879D01*
X130997123Y-81540875D01*
X130834608Y-81451533D01*
X130834609Y-81451533D01*
X130829213Y-81448567D01*
X130823346Y-81446706D01*
X130823344Y-81446705D01*
X130646564Y-81390627D01*
X130646563Y-81390627D01*
X130640694Y-81388765D01*
X130486773Y-81371500D01*
X129280231Y-81371500D01*
X129277175Y-81371800D01*
X129277168Y-81371800D01*
X129219304Y-81377474D01*
X129133167Y-81385920D01*
X129127266Y-81387702D01*
X129127264Y-81387702D01*
X129053947Y-81409838D01*
X128943831Y-81443084D01*
X128769204Y-81535934D01*
X128710352Y-81583933D01*
X128620713Y-81657040D01*
X128620710Y-81657043D01*
X128615938Y-81660935D01*
X128612011Y-81665682D01*
X128612009Y-81665684D01*
X128493799Y-81808575D01*
X128493797Y-81808579D01*
X128489870Y-81813325D01*
X128395802Y-81987299D01*
X128337318Y-82176232D01*
X128336674Y-82182357D01*
X128336674Y-82182358D01*
X128317952Y-82360494D01*
X128316645Y-82372925D01*
X128319561Y-82404968D01*
X128332049Y-82542183D01*
X128334570Y-82569888D01*
X128336308Y-82575794D01*
X128336309Y-82575798D01*
X128347723Y-82614580D01*
X128390410Y-82759619D01*
X128393263Y-82765077D01*
X128393265Y-82765081D01*
X128418873Y-82814063D01*
X128482040Y-82934890D01*
X128605968Y-83089025D01*
X128610692Y-83092989D01*
X128677604Y-83149135D01*
X128716931Y-83208244D01*
X128718057Y-83279232D01*
X128700825Y-83316478D01*
X128643560Y-83400740D01*
X128643555Y-83400750D01*
X128639723Y-83406388D01*
X128572470Y-83574534D01*
X128571356Y-83581262D01*
X128571355Y-83581266D01*
X128548867Y-83717107D01*
X128542892Y-83753198D01*
X128543249Y-83760015D01*
X128543249Y-83760019D01*
X128548757Y-83865116D01*
X128552370Y-83934047D01*
X128554181Y-83940620D01*
X128554181Y-83940623D01*
X128566358Y-83984830D01*
X128600461Y-84108641D01*
X128684922Y-84268836D01*
X128689327Y-84274049D01*
X128689330Y-84274053D01*
X128756524Y-84353565D01*
X128785216Y-84418506D01*
X128774243Y-84488649D01*
X128749381Y-84523988D01*
X128552997Y-84720372D01*
X128544671Y-84727948D01*
X128538177Y-84732069D01*
X128532754Y-84737844D01*
X128491395Y-84781887D01*
X128488640Y-84784729D01*
X128468841Y-84804528D01*
X128466417Y-84807653D01*
X128466409Y-84807662D01*
X128466343Y-84807748D01*
X128458635Y-84816773D01*
X128428263Y-84849116D01*
X128424445Y-84856060D01*
X128424444Y-84856062D01*
X128418458Y-84866951D01*
X128407607Y-84883469D01*
X128395130Y-84899555D01*
X128377504Y-84940288D01*
X128372287Y-84950936D01*
X128350911Y-84989819D01*
X128348940Y-84997494D01*
X128348938Y-84997500D01*
X128345849Y-85009533D01*
X128339446Y-85028235D01*
X128331363Y-85046914D01*
X128327602Y-85070659D01*
X128324420Y-85090749D01*
X128322015Y-85102362D01*
X128310980Y-85145340D01*
X128310980Y-85165687D01*
X128309429Y-85185398D01*
X128306245Y-85205501D01*
X124508500Y-85205501D01*
X124508500Y-83302620D01*
X124528502Y-83234499D01*
X124582158Y-83188006D01*
X124652432Y-83177902D01*
X124715490Y-83206098D01*
X124727474Y-83216154D01*
X124732872Y-83219121D01*
X124732877Y-83219125D01*
X124855712Y-83286653D01*
X124900787Y-83311433D01*
X124906654Y-83313294D01*
X124906656Y-83313295D01*
X125011325Y-83346498D01*
X125089306Y-83371235D01*
X125243227Y-83388500D01*
X126149769Y-83388500D01*
X126152825Y-83388200D01*
X126152832Y-83388200D01*
X126211340Y-83382463D01*
X126296833Y-83374080D01*
X126302734Y-83372298D01*
X126302736Y-83372298D01*
X126388189Y-83346498D01*
X126486169Y-83316916D01*
X126660796Y-83224066D01*
X126753437Y-83148510D01*
X126809287Y-83102960D01*
X126809290Y-83102957D01*
X126814062Y-83099065D01*
X126819089Y-83092989D01*
X126936201Y-82951425D01*
X126936203Y-82951421D01*
X126940130Y-82946675D01*
X127034198Y-82772701D01*
X127092682Y-82583768D01*
X127094786Y-82563749D01*
X127112711Y-82393204D01*
X127112711Y-82393202D01*
X127113355Y-82387075D01*
X127095430Y-82190112D01*
X127091682Y-82177375D01*
X127041330Y-82006294D01*
X127039590Y-82000381D01*
X127029919Y-81981881D01*
X126950813Y-81830568D01*
X126947960Y-81825110D01*
X126824032Y-81670975D01*
X126817727Y-81665684D01*
X126793647Y-81645479D01*
X126672526Y-81543846D01*
X126667128Y-81540879D01*
X126667123Y-81540875D01*
X126504608Y-81451533D01*
X126504609Y-81451533D01*
X126499213Y-81448567D01*
X126493346Y-81446706D01*
X126493344Y-81446705D01*
X126316564Y-81390627D01*
X126316563Y-81390627D01*
X126310694Y-81388765D01*
X126156773Y-81371500D01*
X125250231Y-81371500D01*
X125247175Y-81371800D01*
X125247168Y-81371800D01*
X125189304Y-81377474D01*
X125103167Y-81385920D01*
X125097266Y-81387702D01*
X125097264Y-81387702D01*
X125023947Y-81409838D01*
X124913831Y-81443084D01*
X124739204Y-81535934D01*
X124724639Y-81547813D01*
X124714136Y-81556379D01*
X124648704Y-81583933D01*
X124578763Y-81571738D01*
X124526518Y-81523665D01*
X124508500Y-81458736D01*
X124508500Y-75634500D01*
X124528502Y-75566379D01*
X124582158Y-75519886D01*
X124634500Y-75508500D01*
X168365500Y-75508500D01*
X168433621Y-75528502D01*
G37*
%TD.AperFunction*%
%TA.AperFunction,Conductor*%
G36*
X145084532Y-83460038D02*
G01*
X145141368Y-83502585D01*
X145166179Y-83569105D01*
X145166500Y-83578094D01*
X145166500Y-86889276D01*
X145146498Y-86957397D01*
X145092842Y-87003890D01*
X145033387Y-87015075D01*
X145026987Y-87014713D01*
X145024000Y-87020383D01*
X145024000Y-90578372D01*
X145034776Y-90615072D01*
X145034776Y-90686069D01*
X145002976Y-90739665D01*
X144906389Y-90836251D01*
X144813044Y-90929596D01*
X144750732Y-90963621D01*
X144723949Y-90966500D01*
X144276049Y-90966500D01*
X144207928Y-90946498D01*
X144186954Y-90929595D01*
X143942859Y-90685500D01*
X143908833Y-90623188D01*
X143913898Y-90552373D01*
X143956445Y-90495537D01*
X143965932Y-90489087D01*
X143982210Y-90479073D01*
X143993249Y-90470449D01*
X144046715Y-90418090D01*
X144109380Y-90384719D01*
X144180139Y-90390525D01*
X144224279Y-90419329D01*
X144268149Y-90463507D01*
X144279060Y-90472279D01*
X144416424Y-90559452D01*
X144429020Y-90565596D01*
X144498933Y-90590491D01*
X144513013Y-90591287D01*
X144516000Y-90585617D01*
X144516000Y-89075115D01*
X144511525Y-89059876D01*
X144510135Y-89058671D01*
X144502452Y-89057000D01*
X141460115Y-89057000D01*
X141444876Y-89061475D01*
X141443671Y-89062865D01*
X141442000Y-89070548D01*
X141442000Y-89282835D01*
X141421998Y-89350956D01*
X141368342Y-89397449D01*
X141298068Y-89407553D01*
X141233488Y-89378059D01*
X141226983Y-89372009D01*
X141208184Y-89353243D01*
X141208183Y-89353242D01*
X141203003Y-89348071D01*
X141166224Y-89325400D01*
X141061150Y-89260631D01*
X141061148Y-89260630D01*
X141054920Y-89256791D01*
X140889809Y-89202026D01*
X140882973Y-89201326D01*
X140882970Y-89201325D01*
X140831474Y-89196049D01*
X140787072Y-89191500D01*
X140212928Y-89191500D01*
X140209682Y-89191837D01*
X140209678Y-89191837D01*
X140115765Y-89201581D01*
X140115761Y-89201582D01*
X140108907Y-89202293D01*
X140102371Y-89204474D01*
X140102369Y-89204474D01*
X140073127Y-89214230D01*
X139943893Y-89257346D01*
X139795969Y-89348884D01*
X139739166Y-89405787D01*
X139676884Y-89439866D01*
X139606064Y-89434863D01*
X139560975Y-89405942D01*
X139526239Y-89371266D01*
X139503003Y-89348071D01*
X139466224Y-89325400D01*
X139361150Y-89260631D01*
X139361148Y-89260630D01*
X139354920Y-89256791D01*
X139226603Y-89214230D01*
X139168244Y-89173799D01*
X139141007Y-89108235D01*
X139153541Y-89038353D01*
X139192209Y-88992702D01*
X139211253Y-88978866D01*
X139339040Y-88836944D01*
X139434527Y-88671556D01*
X139480234Y-88530885D01*
X141442000Y-88530885D01*
X141446475Y-88546124D01*
X141447865Y-88547329D01*
X141455548Y-88549000D01*
X141957885Y-88549000D01*
X141973124Y-88544525D01*
X141974329Y-88543135D01*
X141976000Y-88535452D01*
X141976000Y-88530885D01*
X142484000Y-88530885D01*
X142488475Y-88546124D01*
X142489865Y-88547329D01*
X142497548Y-88549000D01*
X143227885Y-88549000D01*
X143243124Y-88544525D01*
X143244329Y-88543135D01*
X143246000Y-88535452D01*
X143246000Y-88530885D01*
X143754000Y-88530885D01*
X143758475Y-88546124D01*
X143759865Y-88547329D01*
X143767548Y-88549000D01*
X144497885Y-88549000D01*
X144513124Y-88544525D01*
X144514329Y-88543135D01*
X144516000Y-88535452D01*
X144516000Y-87027628D01*
X144512027Y-87014097D01*
X144505353Y-87013138D01*
X144439033Y-87035714D01*
X144426363Y-87041676D01*
X144287790Y-87126927D01*
X144276751Y-87135551D01*
X144223285Y-87187910D01*
X144160620Y-87221281D01*
X144089861Y-87215475D01*
X144045721Y-87186671D01*
X144001851Y-87142493D01*
X143990940Y-87133721D01*
X143853576Y-87046548D01*
X143840980Y-87040404D01*
X143771067Y-87015509D01*
X143756987Y-87014713D01*
X143754000Y-87020383D01*
X143754000Y-88530885D01*
X143246000Y-88530885D01*
X143246000Y-87027628D01*
X143242027Y-87014097D01*
X143235353Y-87013138D01*
X143169033Y-87035714D01*
X143156363Y-87041676D01*
X143017790Y-87126927D01*
X143006751Y-87135551D01*
X142953285Y-87187910D01*
X142890620Y-87221281D01*
X142819861Y-87215475D01*
X142775721Y-87186671D01*
X142731851Y-87142493D01*
X142720940Y-87133721D01*
X142583576Y-87046548D01*
X142570980Y-87040404D01*
X142501067Y-87015509D01*
X142486987Y-87014713D01*
X142484000Y-87020383D01*
X142484000Y-88530885D01*
X141976000Y-88530885D01*
X141976000Y-87027628D01*
X141972027Y-87014097D01*
X141965353Y-87013138D01*
X141899033Y-87035714D01*
X141886363Y-87041676D01*
X141747790Y-87126927D01*
X141736756Y-87135548D01*
X141620511Y-87249383D01*
X141611663Y-87260233D01*
X141523533Y-87396984D01*
X141517301Y-87409537D01*
X141461660Y-87562412D01*
X141458366Y-87576029D01*
X141442497Y-87701641D01*
X141442000Y-87709530D01*
X141442000Y-88530885D01*
X139480234Y-88530885D01*
X139493542Y-88489928D01*
X139497494Y-88452332D01*
X139512814Y-88306565D01*
X139513504Y-88300000D01*
X139511836Y-88284126D01*
X139494232Y-88116635D01*
X139494232Y-88116633D01*
X139493542Y-88110072D01*
X139434527Y-87928444D01*
X139416479Y-87897183D01*
X139367887Y-87813020D01*
X139339040Y-87763056D01*
X139278231Y-87695520D01*
X139215675Y-87626045D01*
X139215674Y-87626044D01*
X139211253Y-87621134D01*
X139112157Y-87549136D01*
X139062094Y-87512763D01*
X139062093Y-87512762D01*
X139056752Y-87508882D01*
X139050724Y-87506198D01*
X139050722Y-87506197D01*
X138888319Y-87433891D01*
X138888318Y-87433891D01*
X138882288Y-87431206D01*
X138780344Y-87409537D01*
X138701944Y-87392872D01*
X138701939Y-87392872D01*
X138695487Y-87391500D01*
X138578507Y-87391500D01*
X138510386Y-87371498D01*
X138463893Y-87317842D01*
X138460525Y-87309731D01*
X138455894Y-87297378D01*
X138450615Y-87283295D01*
X138445235Y-87276116D01*
X138445233Y-87276113D01*
X138368642Y-87173919D01*
X138363261Y-87166739D01*
X138305173Y-87123204D01*
X138262658Y-87066347D01*
X138257632Y-86995528D01*
X138291643Y-86933283D01*
X138641278Y-86583649D01*
X139054523Y-86170404D01*
X139116835Y-86136379D01*
X139143618Y-86133500D01*
X141491800Y-86133500D01*
X141559921Y-86153502D01*
X141579147Y-86169843D01*
X141579420Y-86169540D01*
X141584332Y-86173963D01*
X141588747Y-86178866D01*
X141594396Y-86182970D01*
X141660787Y-86231206D01*
X141743248Y-86291118D01*
X141749276Y-86293802D01*
X141749278Y-86293803D01*
X141909451Y-86365116D01*
X141917712Y-86368794D01*
X142011113Y-86388647D01*
X142098056Y-86407128D01*
X142098061Y-86407128D01*
X142104513Y-86408500D01*
X142295487Y-86408500D01*
X142301939Y-86407128D01*
X142301944Y-86407128D01*
X142388887Y-86388647D01*
X142482288Y-86368794D01*
X142490549Y-86365116D01*
X142650722Y-86293803D01*
X142650724Y-86293802D01*
X142656752Y-86291118D01*
X142811253Y-86178866D01*
X142834091Y-86153502D01*
X142934621Y-86041852D01*
X142934622Y-86041851D01*
X142939040Y-86036944D01*
X143001344Y-85929031D01*
X143031223Y-85877279D01*
X143031224Y-85877278D01*
X143034527Y-85871556D01*
X143093542Y-85689928D01*
X143109931Y-85534000D01*
X143112814Y-85506565D01*
X143113504Y-85500000D01*
X143093542Y-85310072D01*
X143085135Y-85284198D01*
X143083109Y-85213231D01*
X143119772Y-85152434D01*
X143189176Y-85120258D01*
X143195431Y-85119468D01*
X143195433Y-85119468D01*
X143203297Y-85118474D01*
X143210668Y-85115555D01*
X143210670Y-85115555D01*
X143244412Y-85102196D01*
X143255642Y-85098351D01*
X143290483Y-85088229D01*
X143290484Y-85088229D01*
X143298093Y-85086018D01*
X143304912Y-85081985D01*
X143304917Y-85081983D01*
X143315528Y-85075707D01*
X143333276Y-85067012D01*
X143352117Y-85059552D01*
X143379519Y-85039644D01*
X143387887Y-85033564D01*
X143397807Y-85027048D01*
X143429035Y-85008580D01*
X143429038Y-85008578D01*
X143435862Y-85004542D01*
X143450183Y-84990221D01*
X143465217Y-84977380D01*
X143471148Y-84973071D01*
X143481607Y-84965472D01*
X143509798Y-84931395D01*
X143517788Y-84922616D01*
X144951405Y-83488999D01*
X145013717Y-83454973D01*
X145084532Y-83460038D01*
G37*
%TD.AperFunction*%
%TA.AperFunction,Conductor*%
G36*
X133460033Y-85769843D02*
G01*
X133516869Y-85812390D01*
X133541680Y-85878910D01*
X133542001Y-85887899D01*
X133542001Y-86374669D01*
X133542371Y-86381490D01*
X133547895Y-86432352D01*
X133551521Y-86447604D01*
X133596676Y-86568054D01*
X133605214Y-86583649D01*
X133681715Y-86685724D01*
X133694277Y-86698286D01*
X133767710Y-86753321D01*
X133810225Y-86810180D01*
X133815251Y-86880999D01*
X133811978Y-86893083D01*
X133806458Y-86910072D01*
X133805768Y-86916635D01*
X133804692Y-86921698D01*
X133770964Y-86984171D01*
X133708814Y-87018492D01*
X133681446Y-87021500D01*
X133351866Y-87021500D01*
X133289684Y-87028255D01*
X133153295Y-87079385D01*
X133036739Y-87166739D01*
X132949385Y-87283295D01*
X132898255Y-87419684D01*
X132891500Y-87481866D01*
X132891500Y-87695520D01*
X132871498Y-87763641D01*
X132817842Y-87810134D01*
X132747568Y-87820238D01*
X132740468Y-87818820D01*
X132737709Y-87818471D01*
X132730030Y-87816500D01*
X132709776Y-87816500D01*
X132690065Y-87814949D01*
X132677886Y-87813020D01*
X132670057Y-87811780D01*
X132662165Y-87812526D01*
X132626039Y-87815941D01*
X132614181Y-87816500D01*
X132087227Y-87816500D01*
X132019106Y-87796498D01*
X131972613Y-87742842D01*
X131962509Y-87672568D01*
X131992003Y-87607988D01*
X132003934Y-87596326D01*
X132008303Y-87593553D01*
X132055087Y-87543733D01*
X132057841Y-87540892D01*
X132077639Y-87521094D01*
X132080063Y-87517969D01*
X132080071Y-87517960D01*
X132080137Y-87517874D01*
X132087845Y-87508849D01*
X132112790Y-87482285D01*
X132118217Y-87476506D01*
X132128023Y-87458669D01*
X132138873Y-87442153D01*
X132151350Y-87426067D01*
X132168976Y-87385334D01*
X132174193Y-87374686D01*
X132191749Y-87342751D01*
X132195569Y-87335803D01*
X132197540Y-87328128D01*
X132197542Y-87328122D01*
X132200631Y-87316089D01*
X132207034Y-87297387D01*
X132215117Y-87278708D01*
X132222060Y-87234873D01*
X132224467Y-87223251D01*
X132224973Y-87221281D01*
X132235500Y-87180282D01*
X132235500Y-87159935D01*
X132237051Y-87140224D01*
X132238995Y-87127950D01*
X132240235Y-87120121D01*
X132236059Y-87075941D01*
X132235500Y-87064084D01*
X132235500Y-86942400D01*
X132255502Y-86874279D01*
X132272405Y-86853305D01*
X133326906Y-85798804D01*
X133389218Y-85764778D01*
X133460033Y-85769843D01*
G37*
%TD.AperFunction*%
%TA.AperFunction,Conductor*%
G36*
X138423298Y-84558991D02*
G01*
X138444272Y-84575894D01*
X138590599Y-84722221D01*
X138624625Y-84784533D01*
X138619560Y-84855348D01*
X138577013Y-84912184D01*
X138565645Y-84919768D01*
X138557994Y-84924293D01*
X138540246Y-84932988D01*
X138521405Y-84940448D01*
X138514989Y-84945110D01*
X138514988Y-84945110D01*
X138485635Y-84966436D01*
X138475715Y-84972952D01*
X138444487Y-84991420D01*
X138444484Y-84991422D01*
X138437660Y-84995458D01*
X138423339Y-85009779D01*
X138408306Y-85022619D01*
X138391915Y-85034528D01*
X138375195Y-85054739D01*
X138363724Y-85068605D01*
X138355734Y-85077384D01*
X137936023Y-85497095D01*
X137873711Y-85531121D01*
X137846928Y-85534000D01*
X135572000Y-85534000D01*
X135503879Y-85513998D01*
X135457386Y-85460342D01*
X135446000Y-85408000D01*
X135446000Y-85152000D01*
X135466002Y-85083879D01*
X135519658Y-85037386D01*
X135572000Y-85026000D01*
X137839884Y-85026000D01*
X137855123Y-85021525D01*
X137856328Y-85020135D01*
X137857999Y-85012452D01*
X137857999Y-84664989D01*
X137878001Y-84596868D01*
X137931657Y-84550375D01*
X137983999Y-84538989D01*
X138355177Y-84538989D01*
X138423298Y-84558991D01*
G37*
%TD.AperFunction*%
%TD*%
M02*
