%TF.GenerationSoftware,KiCad,Pcbnew,(6.0.4-0)*%
%TF.CreationDate,2023-08-08T13:47:07-06:00*%
%TF.ProjectId,usb_pd,7573625f-7064-42e6-9b69-6361645f7063,rev?*%
%TF.SameCoordinates,Original*%
%TF.FileFunction,Copper,L2,Bot*%
%TF.FilePolarity,Positive*%
%FSLAX46Y46*%
G04 Gerber Fmt 4.6, Leading zero omitted, Abs format (unit mm)*
G04 Created by KiCad (PCBNEW (6.0.4-0)) date 2023-08-08 13:47:07*
%MOMM*%
%LPD*%
G01*
G04 APERTURE LIST*
G04 Aperture macros list*
%AMRoundRect*
0 Rectangle with rounded corners*
0 $1 Rounding radius*
0 $2 $3 $4 $5 $6 $7 $8 $9 X,Y pos of 4 corners*
0 Add a 4 corners polygon primitive as box body*
4,1,4,$2,$3,$4,$5,$6,$7,$8,$9,$2,$3,0*
0 Add four circle primitives for the rounded corners*
1,1,$1+$1,$2,$3*
1,1,$1+$1,$4,$5*
1,1,$1+$1,$6,$7*
1,1,$1+$1,$8,$9*
0 Add four rect primitives between the rounded corners*
20,1,$1+$1,$2,$3,$4,$5,0*
20,1,$1+$1,$4,$5,$6,$7,0*
20,1,$1+$1,$6,$7,$8,$9,0*
20,1,$1+$1,$8,$9,$2,$3,0*%
G04 Aperture macros list end*
%TA.AperFunction,ComponentPad*%
%ADD10O,2.100000X1.000000*%
%TD*%
%TA.AperFunction,ComponentPad*%
%ADD11O,1.800000X1.000000*%
%TD*%
%TA.AperFunction,ComponentPad*%
%ADD12RoundRect,0.250000X0.625000X-0.350000X0.625000X0.350000X-0.625000X0.350000X-0.625000X-0.350000X0*%
%TD*%
%TA.AperFunction,ComponentPad*%
%ADD13O,1.750000X1.200000*%
%TD*%
%TA.AperFunction,ViaPad*%
%ADD14C,0.800000*%
%TD*%
%TA.AperFunction,Conductor*%
%ADD15C,0.250000*%
%TD*%
%TA.AperFunction,Conductor*%
%ADD16C,0.254000*%
%TD*%
G04 APERTURE END LIST*
D10*
%TO.P,J1,S1,SHIELD*%
%TO.N,GNDPWR*%
X129880000Y-82380000D03*
%TO.P,J1,S2,SHIELD*%
X129880000Y-91020000D03*
D11*
%TO.P,J1,S3,SHIELD*%
X125700000Y-91020000D03*
%TO.P,J1,S4,SHIELD*%
X125700000Y-82380000D03*
%TD*%
D12*
%TO.P,J2,1,+*%
%TO.N,/power2/10V*%
X162350000Y-87500000D03*
D13*
%TO.P,J2,2,-*%
%TO.N,GND*%
X162350000Y-85500000D03*
%TD*%
D14*
%TO.N,GND*%
X147700000Y-82200000D03*
%TO.N,VBUS*%
X149200000Y-84500000D03*
X149200000Y-86500000D03*
%TO.N,Net-(D1-Pad1)*%
X143399843Y-92062988D03*
X138600000Y-88300000D03*
%TO.N,GND*%
X144700000Y-85900000D03*
X135700000Y-85200000D03*
X136900000Y-84800000D03*
X134500000Y-84700000D03*
X139300000Y-86800000D03*
X134500000Y-85800000D03*
X136900000Y-85900000D03*
X131700000Y-90700000D03*
X131800000Y-82700000D03*
%TO.N,Net-(J1-PadA5)*%
X134700000Y-87100000D03*
X131972797Y-84372797D03*
%TO.N,Net-(R5-Pad1)*%
X142200000Y-85500000D03*
X142200000Y-83200000D03*
%TD*%
D15*
%TO.N,GND*%
X144700000Y-85200000D02*
X144700000Y-85900000D01*
X147700000Y-82200000D02*
X144700000Y-85200000D01*
%TO.N,VBUS*%
X149200000Y-86500000D02*
X149200000Y-84500000D01*
%TO.N,Net-(D1-Pad1)*%
X143399843Y-92062988D02*
X142600569Y-91263714D01*
X138600000Y-88300000D02*
X141563714Y-91263714D01*
X142600569Y-91263714D02*
X141563714Y-91263714D01*
%TO.N,GND*%
X138400000Y-85900000D02*
X136900000Y-85900000D01*
X139300000Y-86800000D02*
X138400000Y-85900000D01*
D16*
%TO.N,Net-(J1-PadA5)*%
X134700000Y-87100000D02*
X131972797Y-84372797D01*
D15*
%TO.N,GNDPWR*%
X125700000Y-82380000D02*
X125700000Y-91020000D01*
X129880000Y-91020000D02*
X125700000Y-91020000D01*
X129880000Y-82380000D02*
X125700000Y-82380000D01*
%TO.N,Net-(R5-Pad1)*%
X142200000Y-85500000D02*
X142200000Y-83200000D01*
%TD*%
%TA.AperFunction,Conductor*%
%TO.N,GND*%
G36*
X168433621Y-75528502D02*
G01*
X168480114Y-75582158D01*
X168491500Y-75634500D01*
X168491500Y-95365500D01*
X168471498Y-95433621D01*
X168417842Y-95480114D01*
X168365500Y-95491500D01*
X124634500Y-95491500D01*
X124566379Y-95471498D01*
X124519886Y-95417842D01*
X124508500Y-95365500D01*
X124508500Y-91942620D01*
X124528502Y-91874499D01*
X124582158Y-91828006D01*
X124652432Y-91817902D01*
X124715490Y-91846098D01*
X124727474Y-91856154D01*
X124732872Y-91859121D01*
X124732877Y-91859125D01*
X124838546Y-91917216D01*
X124900787Y-91951433D01*
X124906654Y-91953294D01*
X124906656Y-91953295D01*
X125083436Y-92009373D01*
X125089306Y-92011235D01*
X125243227Y-92028500D01*
X126149769Y-92028500D01*
X126152825Y-92028200D01*
X126152832Y-92028200D01*
X126211340Y-92022463D01*
X126296833Y-92014080D01*
X126302734Y-92012298D01*
X126302736Y-92012298D01*
X126376053Y-91990162D01*
X126486169Y-91956916D01*
X126660796Y-91864066D01*
X126770157Y-91774873D01*
X126809287Y-91742960D01*
X126809290Y-91742957D01*
X126814062Y-91739065D01*
X126832008Y-91717372D01*
X126847055Y-91699184D01*
X126905889Y-91659446D01*
X126944139Y-91653500D01*
X128484876Y-91653500D01*
X128552997Y-91673502D01*
X128583069Y-91700544D01*
X128605968Y-91729025D01*
X128610692Y-91732989D01*
X128621760Y-91742276D01*
X128757474Y-91856154D01*
X128762872Y-91859121D01*
X128762877Y-91859125D01*
X128868546Y-91917216D01*
X128930787Y-91951433D01*
X128936654Y-91953294D01*
X128936656Y-91953295D01*
X129113436Y-92009373D01*
X129119306Y-92011235D01*
X129273227Y-92028500D01*
X130479769Y-92028500D01*
X130482825Y-92028200D01*
X130482832Y-92028200D01*
X130541340Y-92022463D01*
X130626833Y-92014080D01*
X130632734Y-92012298D01*
X130632736Y-92012298D01*
X130706053Y-91990162D01*
X130816169Y-91956916D01*
X130990796Y-91864066D01*
X131100157Y-91774873D01*
X131139287Y-91742960D01*
X131139290Y-91742957D01*
X131144062Y-91739065D01*
X131175926Y-91700548D01*
X131266201Y-91591425D01*
X131266203Y-91591421D01*
X131270130Y-91586675D01*
X131364198Y-91412701D01*
X131422682Y-91223768D01*
X131432066Y-91134486D01*
X131442711Y-91033204D01*
X131442711Y-91033202D01*
X131443355Y-91027075D01*
X131428394Y-90862682D01*
X131425989Y-90836251D01*
X131425988Y-90836248D01*
X131425430Y-90830112D01*
X131413738Y-90790383D01*
X131371330Y-90646294D01*
X131369590Y-90640381D01*
X131362456Y-90626734D01*
X131280813Y-90470568D01*
X131277960Y-90465110D01*
X131154032Y-90310975D01*
X131147727Y-90305684D01*
X131081230Y-90249887D01*
X131002526Y-90183846D01*
X130997128Y-90180879D01*
X130997123Y-90180875D01*
X130834608Y-90091533D01*
X130834609Y-90091533D01*
X130829213Y-90088567D01*
X130823346Y-90086706D01*
X130823344Y-90086705D01*
X130646564Y-90030627D01*
X130646563Y-90030627D01*
X130640694Y-90028765D01*
X130486773Y-90011500D01*
X130295223Y-90011500D01*
X130227102Y-89991498D01*
X130180609Y-89937842D01*
X130170505Y-89867568D01*
X130178234Y-89838708D01*
X130184995Y-89821803D01*
X130187530Y-89815466D01*
X130188644Y-89808738D01*
X130188645Y-89808734D01*
X130215993Y-89643539D01*
X130215993Y-89643536D01*
X130217108Y-89636802D01*
X130212203Y-89543198D01*
X130207987Y-89462766D01*
X130207630Y-89455953D01*
X130184304Y-89371266D01*
X130161352Y-89287941D01*
X130159539Y-89281359D01*
X130075078Y-89121164D01*
X130070673Y-89115951D01*
X130070670Y-89115947D01*
X129962594Y-88988057D01*
X129962590Y-88988053D01*
X129958187Y-88982843D01*
X129946562Y-88973955D01*
X129819743Y-88876994D01*
X129819739Y-88876991D01*
X129814322Y-88872850D01*
X129709186Y-88823825D01*
X129656369Y-88799195D01*
X129656366Y-88799194D01*
X129650192Y-88796315D01*
X129643544Y-88794829D01*
X129643541Y-88794828D01*
X129478494Y-88757936D01*
X129478495Y-88757936D01*
X129473457Y-88756810D01*
X129467912Y-88756500D01*
X129334756Y-88756500D01*
X129199963Y-88771143D01*
X129116609Y-88799195D01*
X129034796Y-88826728D01*
X129034794Y-88826729D01*
X129028325Y-88828906D01*
X128873095Y-88922177D01*
X128868138Y-88926865D01*
X128868135Y-88926867D01*
X128809042Y-88982749D01*
X128741515Y-89046607D01*
X128737683Y-89052245D01*
X128737680Y-89052249D01*
X128686740Y-89127205D01*
X128639723Y-89196388D01*
X128572470Y-89364534D01*
X128571356Y-89371262D01*
X128571355Y-89371266D01*
X128544007Y-89536461D01*
X128542892Y-89543198D01*
X128543249Y-89550015D01*
X128543249Y-89550019D01*
X128548151Y-89643539D01*
X128552370Y-89724047D01*
X128554181Y-89730620D01*
X128554181Y-89730623D01*
X128577551Y-89815466D01*
X128600461Y-89898641D01*
X128684922Y-90058836D01*
X128689331Y-90064053D01*
X128695129Y-90070914D01*
X128723822Y-90135853D01*
X128712852Y-90205997D01*
X128678529Y-90249887D01*
X128620713Y-90297040D01*
X128620710Y-90297043D01*
X128615938Y-90300935D01*
X128612010Y-90305683D01*
X128612009Y-90305684D01*
X128582945Y-90340816D01*
X128524111Y-90380554D01*
X128485861Y-90386500D01*
X126945124Y-90386500D01*
X126877003Y-90366498D01*
X126846931Y-90339456D01*
X126824032Y-90310975D01*
X126817727Y-90305684D01*
X126751230Y-90249887D01*
X126672526Y-90183846D01*
X126667128Y-90180879D01*
X126667123Y-90180875D01*
X126504610Y-90091534D01*
X126504608Y-90091533D01*
X126499213Y-90088567D01*
X126421402Y-90063884D01*
X126362517Y-90024221D01*
X126334425Y-89959019D01*
X126333500Y-89943782D01*
X126333500Y-88300000D01*
X137686496Y-88300000D01*
X137687186Y-88306565D01*
X137702507Y-88452332D01*
X137706458Y-88489928D01*
X137765473Y-88671556D01*
X137860960Y-88836944D01*
X137988747Y-88978866D01*
X138143248Y-89091118D01*
X138149276Y-89093802D01*
X138149278Y-89093803D01*
X138224301Y-89127205D01*
X138317712Y-89168794D01*
X138411113Y-89188647D01*
X138498056Y-89207128D01*
X138498061Y-89207128D01*
X138504513Y-89208500D01*
X138560406Y-89208500D01*
X138628527Y-89228502D01*
X138649501Y-89245405D01*
X141060057Y-91655961D01*
X141067601Y-91664251D01*
X141071714Y-91670732D01*
X141077491Y-91676157D01*
X141121381Y-91717372D01*
X141124223Y-91720127D01*
X141143945Y-91739849D01*
X141147069Y-91742272D01*
X141147073Y-91742276D01*
X141147138Y-91742326D01*
X141156159Y-91750031D01*
X141188393Y-91780300D01*
X141195341Y-91784119D01*
X141195343Y-91784121D01*
X141206146Y-91790060D01*
X141222673Y-91800916D01*
X141232412Y-91808471D01*
X141232414Y-91808472D01*
X141238674Y-91813328D01*
X141279254Y-91830888D01*
X141289902Y-91836105D01*
X141319163Y-91852191D01*
X141328654Y-91857409D01*
X141336330Y-91859380D01*
X141336333Y-91859381D01*
X141348276Y-91862447D01*
X141366980Y-91868851D01*
X141376707Y-91873060D01*
X141385569Y-91876895D01*
X141393392Y-91878134D01*
X141393402Y-91878137D01*
X141429238Y-91883813D01*
X141440858Y-91886219D01*
X141476003Y-91895242D01*
X141483684Y-91897214D01*
X141503938Y-91897214D01*
X141523648Y-91898765D01*
X141543657Y-91901934D01*
X141551549Y-91901188D01*
X141587675Y-91897773D01*
X141599533Y-91897214D01*
X142285975Y-91897214D01*
X142354096Y-91917216D01*
X142375070Y-91934119D01*
X142452721Y-92011770D01*
X142486747Y-92074082D01*
X142488935Y-92087691D01*
X142506301Y-92252916D01*
X142565316Y-92434544D01*
X142660803Y-92599932D01*
X142788590Y-92741854D01*
X142943091Y-92854106D01*
X142949119Y-92856790D01*
X142949121Y-92856791D01*
X143111524Y-92929097D01*
X143117555Y-92931782D01*
X143210955Y-92951635D01*
X143297899Y-92970116D01*
X143297904Y-92970116D01*
X143304356Y-92971488D01*
X143495330Y-92971488D01*
X143501782Y-92970116D01*
X143501787Y-92970116D01*
X143588731Y-92951635D01*
X143682131Y-92931782D01*
X143688162Y-92929097D01*
X143850565Y-92856791D01*
X143850567Y-92856790D01*
X143856595Y-92854106D01*
X144011096Y-92741854D01*
X144138883Y-92599932D01*
X144234370Y-92434544D01*
X144293385Y-92252916D01*
X144313347Y-92062988D01*
X144300696Y-91942620D01*
X144294075Y-91879623D01*
X144294075Y-91879621D01*
X144293385Y-91873060D01*
X144234370Y-91691432D01*
X144138883Y-91526044D01*
X144011096Y-91384122D01*
X143856595Y-91271870D01*
X143850567Y-91269186D01*
X143850565Y-91269185D01*
X143688162Y-91196879D01*
X143688161Y-91196879D01*
X143682131Y-91194194D01*
X143588730Y-91174341D01*
X143501787Y-91155860D01*
X143501782Y-91155860D01*
X143495330Y-91154488D01*
X143439438Y-91154488D01*
X143371317Y-91134486D01*
X143350343Y-91117583D01*
X143104221Y-90871461D01*
X143096681Y-90863175D01*
X143092569Y-90856696D01*
X143042917Y-90810070D01*
X143040076Y-90807316D01*
X143020339Y-90787579D01*
X143017142Y-90785099D01*
X143008120Y-90777394D01*
X142981669Y-90752555D01*
X142975890Y-90747128D01*
X142968944Y-90743309D01*
X142968941Y-90743307D01*
X142958135Y-90737366D01*
X142941616Y-90726515D01*
X142941152Y-90726155D01*
X142925610Y-90714100D01*
X142918341Y-90710955D01*
X142918337Y-90710952D01*
X142885032Y-90696540D01*
X142874382Y-90691323D01*
X142835629Y-90670019D01*
X142816006Y-90664981D01*
X142797303Y-90658577D01*
X142785989Y-90653681D01*
X142785988Y-90653681D01*
X142778714Y-90650533D01*
X142770891Y-90649294D01*
X142770881Y-90649291D01*
X142735045Y-90643615D01*
X142723425Y-90641209D01*
X142688280Y-90632186D01*
X142688279Y-90632186D01*
X142680599Y-90630214D01*
X142660345Y-90630214D01*
X142640634Y-90628663D01*
X142628455Y-90626734D01*
X142620626Y-90625494D01*
X142612734Y-90626240D01*
X142576608Y-90629655D01*
X142564750Y-90630214D01*
X141878308Y-90630214D01*
X141810187Y-90610212D01*
X141789213Y-90593309D01*
X139547122Y-88351217D01*
X139513096Y-88288905D01*
X139510907Y-88275292D01*
X139494232Y-88116635D01*
X139494232Y-88116633D01*
X139493542Y-88110072D01*
X139434527Y-87928444D01*
X139418336Y-87900400D01*
X160966500Y-87900400D01*
X160966837Y-87903646D01*
X160966837Y-87903650D01*
X160973739Y-87970166D01*
X160977474Y-88006166D01*
X161033450Y-88173946D01*
X161126522Y-88324348D01*
X161251697Y-88449305D01*
X161257927Y-88453145D01*
X161257928Y-88453146D01*
X161395090Y-88537694D01*
X161402262Y-88542115D01*
X161482005Y-88568564D01*
X161563611Y-88595632D01*
X161563613Y-88595632D01*
X161570139Y-88597797D01*
X161576975Y-88598497D01*
X161576978Y-88598498D01*
X161620031Y-88602909D01*
X161674600Y-88608500D01*
X163025400Y-88608500D01*
X163028646Y-88608163D01*
X163028650Y-88608163D01*
X163124308Y-88598238D01*
X163124312Y-88598237D01*
X163131166Y-88597526D01*
X163137702Y-88595345D01*
X163137704Y-88595345D01*
X163269806Y-88551272D01*
X163298946Y-88541550D01*
X163449348Y-88448478D01*
X163574305Y-88323303D01*
X163578853Y-88315925D01*
X163663275Y-88178968D01*
X163663276Y-88178966D01*
X163667115Y-88172738D01*
X163722797Y-88004861D01*
X163733500Y-87900400D01*
X163733500Y-87099600D01*
X163733163Y-87096350D01*
X163723238Y-87000692D01*
X163723237Y-87000688D01*
X163722526Y-86993834D01*
X163666550Y-86826054D01*
X163573478Y-86675652D01*
X163448303Y-86550695D01*
X163442069Y-86546852D01*
X163396310Y-86518645D01*
X163348817Y-86465873D01*
X163337395Y-86395801D01*
X163365669Y-86330677D01*
X163384597Y-86312298D01*
X163387856Y-86309738D01*
X163396506Y-86301501D01*
X163527212Y-86150877D01*
X163534147Y-86141153D01*
X163634010Y-85968533D01*
X163638984Y-85957669D01*
X163704407Y-85769273D01*
X163704648Y-85768284D01*
X163703180Y-85757992D01*
X163689615Y-85754000D01*
X161014598Y-85754000D01*
X161001067Y-85757973D01*
X160999712Y-85767399D01*
X161021194Y-85856537D01*
X161025083Y-85867832D01*
X161107629Y-86049382D01*
X161113576Y-86059724D01*
X161228968Y-86222397D01*
X161236761Y-86231425D01*
X161327757Y-86318535D01*
X161363133Y-86380090D01*
X161359614Y-86451000D01*
X161318317Y-86508750D01*
X161306947Y-86516685D01*
X161250652Y-86551522D01*
X161125695Y-86676697D01*
X161121855Y-86682927D01*
X161121854Y-86682928D01*
X161093798Y-86728444D01*
X161032885Y-86827262D01*
X160977203Y-86995139D01*
X160976503Y-87001975D01*
X160976502Y-87001978D01*
X160972920Y-87036944D01*
X160966500Y-87099600D01*
X160966500Y-87900400D01*
X139418336Y-87900400D01*
X139416479Y-87897183D01*
X139348168Y-87778866D01*
X139339040Y-87763056D01*
X139211253Y-87621134D01*
X139056752Y-87508882D01*
X139050724Y-87506198D01*
X139050722Y-87506197D01*
X138888319Y-87433891D01*
X138888318Y-87433891D01*
X138882288Y-87431206D01*
X138788887Y-87411353D01*
X138701944Y-87392872D01*
X138701939Y-87392872D01*
X138695487Y-87391500D01*
X138504513Y-87391500D01*
X138498061Y-87392872D01*
X138498056Y-87392872D01*
X138411112Y-87411353D01*
X138317712Y-87431206D01*
X138311682Y-87433891D01*
X138311681Y-87433891D01*
X138149278Y-87506197D01*
X138149276Y-87506198D01*
X138143248Y-87508882D01*
X137988747Y-87621134D01*
X137860960Y-87763056D01*
X137851832Y-87778866D01*
X137783522Y-87897183D01*
X137765473Y-87928444D01*
X137706458Y-88110072D01*
X137705768Y-88116633D01*
X137705768Y-88116635D01*
X137699745Y-88173946D01*
X137686496Y-88300000D01*
X126333500Y-88300000D01*
X126333500Y-83456585D01*
X126353502Y-83388464D01*
X126407158Y-83341971D01*
X126423078Y-83335964D01*
X126486169Y-83316916D01*
X126660796Y-83224066D01*
X126752670Y-83149135D01*
X126809287Y-83102960D01*
X126809290Y-83102957D01*
X126814062Y-83099065D01*
X126826339Y-83084225D01*
X126847055Y-83059184D01*
X126905889Y-83019446D01*
X126944139Y-83013500D01*
X128484876Y-83013500D01*
X128552997Y-83033502D01*
X128583069Y-83060544D01*
X128605968Y-83089025D01*
X128610692Y-83092989D01*
X128677604Y-83149135D01*
X128716931Y-83208244D01*
X128718057Y-83279232D01*
X128700825Y-83316478D01*
X128643560Y-83400740D01*
X128643555Y-83400750D01*
X128639723Y-83406388D01*
X128572470Y-83574534D01*
X128571356Y-83581262D01*
X128571355Y-83581266D01*
X128549586Y-83712763D01*
X128542892Y-83753198D01*
X128543249Y-83760015D01*
X128543249Y-83760019D01*
X128548151Y-83853539D01*
X128552370Y-83934047D01*
X128554181Y-83940620D01*
X128554181Y-83940623D01*
X128577551Y-84025466D01*
X128600461Y-84108641D01*
X128684922Y-84268836D01*
X128689327Y-84274049D01*
X128689330Y-84274053D01*
X128797406Y-84401943D01*
X128797410Y-84401947D01*
X128801813Y-84407157D01*
X128807237Y-84411304D01*
X128807238Y-84411305D01*
X128940257Y-84513006D01*
X128940261Y-84513009D01*
X128945678Y-84517150D01*
X129029340Y-84556162D01*
X129103631Y-84590805D01*
X129103634Y-84590806D01*
X129109808Y-84593685D01*
X129116456Y-84595171D01*
X129116459Y-84595172D01*
X129222421Y-84618857D01*
X129286543Y-84633190D01*
X129292088Y-84633500D01*
X129425244Y-84633500D01*
X129560037Y-84618857D01*
X129678190Y-84579094D01*
X129725204Y-84563272D01*
X129725206Y-84563271D01*
X129731675Y-84561094D01*
X129886905Y-84467823D01*
X129891862Y-84463135D01*
X129891865Y-84463133D01*
X129987392Y-84372797D01*
X131059293Y-84372797D01*
X131059983Y-84379362D01*
X131073670Y-84509583D01*
X131079255Y-84562725D01*
X131138270Y-84744353D01*
X131141573Y-84750075D01*
X131141574Y-84750076D01*
X131157467Y-84777603D01*
X131233757Y-84909741D01*
X131361544Y-85051663D01*
X131453142Y-85118213D01*
X131502616Y-85154158D01*
X131516045Y-85163915D01*
X131522073Y-85166599D01*
X131522075Y-85166600D01*
X131666108Y-85230727D01*
X131690509Y-85241591D01*
X131783910Y-85261444D01*
X131870853Y-85279925D01*
X131870858Y-85279925D01*
X131877310Y-85281297D01*
X131930375Y-85281297D01*
X131998496Y-85301299D01*
X132019470Y-85318202D01*
X133753210Y-87051942D01*
X133787236Y-87114254D01*
X133789425Y-87127865D01*
X133806458Y-87289928D01*
X133865473Y-87471556D01*
X133960960Y-87636944D01*
X134088747Y-87778866D01*
X134243248Y-87891118D01*
X134249276Y-87893802D01*
X134249278Y-87893803D01*
X134341200Y-87934729D01*
X134417712Y-87968794D01*
X134511113Y-87988647D01*
X134598056Y-88007128D01*
X134598061Y-88007128D01*
X134604513Y-88008500D01*
X134795487Y-88008500D01*
X134801939Y-88007128D01*
X134801944Y-88007128D01*
X134888888Y-87988647D01*
X134982288Y-87968794D01*
X135058800Y-87934729D01*
X135150722Y-87893803D01*
X135150724Y-87893802D01*
X135156752Y-87891118D01*
X135311253Y-87778866D01*
X135439040Y-87636944D01*
X135534527Y-87471556D01*
X135593542Y-87289928D01*
X135613504Y-87100000D01*
X135608453Y-87051942D01*
X135594232Y-86916635D01*
X135594232Y-86916633D01*
X135593542Y-86910072D01*
X135534527Y-86728444D01*
X135439040Y-86563056D01*
X135382265Y-86500000D01*
X148286496Y-86500000D01*
X148287186Y-86506565D01*
X148304958Y-86675652D01*
X148306458Y-86689928D01*
X148365473Y-86871556D01*
X148460960Y-87036944D01*
X148465378Y-87041851D01*
X148465379Y-87041852D01*
X148517736Y-87100000D01*
X148588747Y-87178866D01*
X148743248Y-87291118D01*
X148749276Y-87293802D01*
X148749278Y-87293803D01*
X148911681Y-87366109D01*
X148917712Y-87368794D01*
X149011112Y-87388647D01*
X149098056Y-87407128D01*
X149098061Y-87407128D01*
X149104513Y-87408500D01*
X149295487Y-87408500D01*
X149301939Y-87407128D01*
X149301944Y-87407128D01*
X149388888Y-87388647D01*
X149482288Y-87368794D01*
X149488319Y-87366109D01*
X149650722Y-87293803D01*
X149650724Y-87293802D01*
X149656752Y-87291118D01*
X149811253Y-87178866D01*
X149882264Y-87100000D01*
X149934621Y-87041852D01*
X149934622Y-87041851D01*
X149939040Y-87036944D01*
X150034527Y-86871556D01*
X150093542Y-86689928D01*
X150095043Y-86675652D01*
X150112814Y-86506565D01*
X150113504Y-86500000D01*
X150095708Y-86330677D01*
X150094232Y-86316635D01*
X150094232Y-86316633D01*
X150093542Y-86310072D01*
X150034527Y-86128444D01*
X149939040Y-85963056D01*
X149865863Y-85881785D01*
X149835147Y-85817779D01*
X149833500Y-85797476D01*
X149833500Y-85231716D01*
X160995352Y-85231716D01*
X160996820Y-85242008D01*
X161010385Y-85246000D01*
X162077885Y-85246000D01*
X162093124Y-85241525D01*
X162094329Y-85240135D01*
X162096000Y-85232452D01*
X162096000Y-85227885D01*
X162604000Y-85227885D01*
X162608475Y-85243124D01*
X162609865Y-85244329D01*
X162617548Y-85246000D01*
X163685402Y-85246000D01*
X163698933Y-85242027D01*
X163700288Y-85232601D01*
X163678806Y-85143463D01*
X163674917Y-85132168D01*
X163592371Y-84950618D01*
X163586424Y-84940276D01*
X163471032Y-84777603D01*
X163463239Y-84768575D01*
X163319169Y-84630658D01*
X163309804Y-84623262D01*
X163142259Y-84515079D01*
X163131655Y-84509583D01*
X162946688Y-84435039D01*
X162935230Y-84431645D01*
X162738072Y-84393143D01*
X162729209Y-84392066D01*
X162726500Y-84392000D01*
X162622115Y-84392000D01*
X162606876Y-84396475D01*
X162605671Y-84397865D01*
X162604000Y-84405548D01*
X162604000Y-85227885D01*
X162096000Y-85227885D01*
X162096000Y-84410115D01*
X162091525Y-84394876D01*
X162090135Y-84393671D01*
X162082452Y-84392000D01*
X162025168Y-84392000D01*
X162019192Y-84392285D01*
X161870506Y-84406471D01*
X161858772Y-84408730D01*
X161667401Y-84464872D01*
X161656325Y-84469302D01*
X161479022Y-84560619D01*
X161468976Y-84567069D01*
X161312143Y-84690262D01*
X161303494Y-84698499D01*
X161172788Y-84849123D01*
X161165853Y-84858847D01*
X161065990Y-85031467D01*
X161061016Y-85042331D01*
X160995593Y-85230727D01*
X160995352Y-85231716D01*
X149833500Y-85231716D01*
X149833500Y-85202524D01*
X149853502Y-85134403D01*
X149865858Y-85118221D01*
X149939040Y-85036944D01*
X150034527Y-84871556D01*
X150093542Y-84689928D01*
X150099772Y-84630658D01*
X150112814Y-84506565D01*
X150113504Y-84500000D01*
X150102153Y-84392000D01*
X150094232Y-84316635D01*
X150094232Y-84316633D01*
X150093542Y-84310072D01*
X150034527Y-84128444D01*
X149939040Y-83963056D01*
X149823201Y-83834403D01*
X149815675Y-83826045D01*
X149815674Y-83826044D01*
X149811253Y-83821134D01*
X149656752Y-83708882D01*
X149650724Y-83706198D01*
X149650722Y-83706197D01*
X149488319Y-83633891D01*
X149488318Y-83633891D01*
X149482288Y-83631206D01*
X149388887Y-83611353D01*
X149301944Y-83592872D01*
X149301939Y-83592872D01*
X149295487Y-83591500D01*
X149104513Y-83591500D01*
X149098061Y-83592872D01*
X149098056Y-83592872D01*
X149011113Y-83611353D01*
X148917712Y-83631206D01*
X148911682Y-83633891D01*
X148911681Y-83633891D01*
X148749278Y-83706197D01*
X148749276Y-83706198D01*
X148743248Y-83708882D01*
X148588747Y-83821134D01*
X148584326Y-83826044D01*
X148584325Y-83826045D01*
X148576800Y-83834403D01*
X148460960Y-83963056D01*
X148365473Y-84128444D01*
X148306458Y-84310072D01*
X148305768Y-84316633D01*
X148305768Y-84316635D01*
X148297847Y-84392000D01*
X148286496Y-84500000D01*
X148287186Y-84506565D01*
X148300229Y-84630658D01*
X148306458Y-84689928D01*
X148365473Y-84871556D01*
X148460960Y-85036944D01*
X148534137Y-85118215D01*
X148564853Y-85182221D01*
X148566500Y-85202524D01*
X148566500Y-85797476D01*
X148546498Y-85865597D01*
X148534142Y-85881779D01*
X148460960Y-85963056D01*
X148365473Y-86128444D01*
X148306458Y-86310072D01*
X148305768Y-86316633D01*
X148305768Y-86316635D01*
X148304292Y-86330677D01*
X148286496Y-86500000D01*
X135382265Y-86500000D01*
X135344853Y-86458450D01*
X135315675Y-86426045D01*
X135315674Y-86426044D01*
X135311253Y-86421134D01*
X135156752Y-86308882D01*
X135150724Y-86306198D01*
X135150722Y-86306197D01*
X134988319Y-86233891D01*
X134988318Y-86233891D01*
X134982288Y-86231206D01*
X134888888Y-86211353D01*
X134801944Y-86192872D01*
X134801939Y-86192872D01*
X134795487Y-86191500D01*
X134742423Y-86191500D01*
X134674302Y-86171498D01*
X134653328Y-86154595D01*
X133998733Y-85500000D01*
X141286496Y-85500000D01*
X141306458Y-85689928D01*
X141365473Y-85871556D01*
X141460960Y-86036944D01*
X141465378Y-86041851D01*
X141465379Y-86041852D01*
X141566893Y-86154595D01*
X141588747Y-86178866D01*
X141743248Y-86291118D01*
X141749276Y-86293802D01*
X141749278Y-86293803D01*
X141832099Y-86330677D01*
X141917712Y-86368794D01*
X142011113Y-86388647D01*
X142098056Y-86407128D01*
X142098061Y-86407128D01*
X142104513Y-86408500D01*
X142295487Y-86408500D01*
X142301939Y-86407128D01*
X142301944Y-86407128D01*
X142388887Y-86388647D01*
X142482288Y-86368794D01*
X142567901Y-86330677D01*
X142650722Y-86293803D01*
X142650724Y-86293802D01*
X142656752Y-86291118D01*
X142811253Y-86178866D01*
X142833107Y-86154595D01*
X142934621Y-86041852D01*
X142934622Y-86041851D01*
X142939040Y-86036944D01*
X143034527Y-85871556D01*
X143093542Y-85689928D01*
X143113504Y-85500000D01*
X143112814Y-85493435D01*
X143094232Y-85316635D01*
X143094232Y-85316633D01*
X143093542Y-85310072D01*
X143034527Y-85128444D01*
X142939040Y-84963056D01*
X142865863Y-84881785D01*
X142835147Y-84817779D01*
X142833500Y-84797476D01*
X142833500Y-83902524D01*
X142853502Y-83834403D01*
X142865858Y-83818221D01*
X142939040Y-83736944D01*
X143026442Y-83585560D01*
X143031223Y-83577279D01*
X143031224Y-83577278D01*
X143034527Y-83571556D01*
X143093542Y-83389928D01*
X143098583Y-83341971D01*
X143112814Y-83206565D01*
X143113504Y-83200000D01*
X143103305Y-83102960D01*
X143094232Y-83016635D01*
X143094232Y-83016633D01*
X143093542Y-83010072D01*
X143034527Y-82828444D01*
X142939040Y-82663056D01*
X142811253Y-82521134D01*
X142656752Y-82408882D01*
X142650724Y-82406198D01*
X142650722Y-82406197D01*
X142488319Y-82333891D01*
X142488318Y-82333891D01*
X142482288Y-82331206D01*
X142388887Y-82311353D01*
X142301944Y-82292872D01*
X142301939Y-82292872D01*
X142295487Y-82291500D01*
X142104513Y-82291500D01*
X142098061Y-82292872D01*
X142098056Y-82292872D01*
X142011113Y-82311353D01*
X141917712Y-82331206D01*
X141911682Y-82333891D01*
X141911681Y-82333891D01*
X141749278Y-82406197D01*
X141749276Y-82406198D01*
X141743248Y-82408882D01*
X141588747Y-82521134D01*
X141460960Y-82663056D01*
X141365473Y-82828444D01*
X141306458Y-83010072D01*
X141305768Y-83016633D01*
X141305768Y-83016635D01*
X141296695Y-83102960D01*
X141286496Y-83200000D01*
X141287186Y-83206565D01*
X141301418Y-83341971D01*
X141306458Y-83389928D01*
X141365473Y-83571556D01*
X141368776Y-83577278D01*
X141368777Y-83577279D01*
X141373558Y-83585560D01*
X141460960Y-83736944D01*
X141534137Y-83818215D01*
X141564853Y-83882221D01*
X141566500Y-83902524D01*
X141566500Y-84797476D01*
X141546498Y-84865597D01*
X141534142Y-84881779D01*
X141460960Y-84963056D01*
X141365473Y-85128444D01*
X141306458Y-85310072D01*
X141305768Y-85316633D01*
X141305768Y-85316635D01*
X141287186Y-85493435D01*
X141286496Y-85500000D01*
X133998733Y-85500000D01*
X132919587Y-84420854D01*
X132885561Y-84358542D01*
X132883372Y-84344929D01*
X132867029Y-84189432D01*
X132867029Y-84189430D01*
X132866339Y-84182869D01*
X132807324Y-84001241D01*
X132711837Y-83835853D01*
X132601007Y-83712763D01*
X132588472Y-83698842D01*
X132588471Y-83698841D01*
X132584050Y-83693931D01*
X132444955Y-83592872D01*
X132434891Y-83585560D01*
X132434890Y-83585559D01*
X132429549Y-83581679D01*
X132423521Y-83578995D01*
X132423519Y-83578994D01*
X132261116Y-83506688D01*
X132261115Y-83506688D01*
X132255085Y-83504003D01*
X132161684Y-83484150D01*
X132074741Y-83465669D01*
X132074736Y-83465669D01*
X132068284Y-83464297D01*
X131877310Y-83464297D01*
X131870858Y-83465669D01*
X131870853Y-83465669D01*
X131783910Y-83484150D01*
X131690509Y-83504003D01*
X131684479Y-83506688D01*
X131684478Y-83506688D01*
X131522075Y-83578994D01*
X131522073Y-83578995D01*
X131516045Y-83581679D01*
X131510704Y-83585559D01*
X131510703Y-83585560D01*
X131500639Y-83592872D01*
X131361544Y-83693931D01*
X131357123Y-83698841D01*
X131357122Y-83698842D01*
X131344588Y-83712763D01*
X131233757Y-83835853D01*
X131138270Y-84001241D01*
X131079255Y-84182869D01*
X131078565Y-84189430D01*
X131078565Y-84189432D01*
X131069671Y-84274053D01*
X131059293Y-84372797D01*
X129987392Y-84372797D01*
X130013527Y-84348082D01*
X130013529Y-84348080D01*
X130018485Y-84343393D01*
X130022317Y-84337755D01*
X130022320Y-84337751D01*
X130116442Y-84199255D01*
X130120277Y-84193612D01*
X130187530Y-84025466D01*
X130188644Y-84018738D01*
X130188645Y-84018734D01*
X130215993Y-83853539D01*
X130215993Y-83853536D01*
X130217108Y-83846802D01*
X130216535Y-83835853D01*
X130207987Y-83672766D01*
X130207630Y-83665953D01*
X130175129Y-83547958D01*
X130176323Y-83476974D01*
X130215705Y-83417902D01*
X130280773Y-83389499D01*
X130296605Y-83388500D01*
X130479769Y-83388500D01*
X130482825Y-83388200D01*
X130482832Y-83388200D01*
X130541340Y-83382463D01*
X130626833Y-83374080D01*
X130632734Y-83372298D01*
X130632736Y-83372298D01*
X130733183Y-83341971D01*
X130816169Y-83316916D01*
X130990796Y-83224066D01*
X131082670Y-83149135D01*
X131139287Y-83102960D01*
X131139290Y-83102957D01*
X131144062Y-83099065D01*
X131175926Y-83060548D01*
X131266201Y-82951425D01*
X131266203Y-82951421D01*
X131270130Y-82946675D01*
X131364198Y-82772701D01*
X131422682Y-82583768D01*
X131443355Y-82387075D01*
X131425430Y-82190112D01*
X131369590Y-82000381D01*
X131277960Y-81825110D01*
X131154032Y-81670975D01*
X131147727Y-81665684D01*
X131131334Y-81651929D01*
X131002526Y-81543846D01*
X130997128Y-81540879D01*
X130997123Y-81540875D01*
X130834608Y-81451533D01*
X130834609Y-81451533D01*
X130829213Y-81448567D01*
X130823346Y-81446706D01*
X130823344Y-81446705D01*
X130646564Y-81390627D01*
X130646563Y-81390627D01*
X130640694Y-81388765D01*
X130486773Y-81371500D01*
X129280231Y-81371500D01*
X129277175Y-81371800D01*
X129277168Y-81371800D01*
X129218660Y-81377537D01*
X129133167Y-81385920D01*
X129127266Y-81387702D01*
X129127264Y-81387702D01*
X129053947Y-81409838D01*
X128943831Y-81443084D01*
X128769204Y-81535934D01*
X128710352Y-81583933D01*
X128620713Y-81657040D01*
X128620710Y-81657043D01*
X128615938Y-81660935D01*
X128612010Y-81665683D01*
X128612009Y-81665684D01*
X128582945Y-81700816D01*
X128524111Y-81740554D01*
X128485861Y-81746500D01*
X126945124Y-81746500D01*
X126877003Y-81726498D01*
X126846931Y-81699456D01*
X126824032Y-81670975D01*
X126817727Y-81665684D01*
X126801334Y-81651929D01*
X126672526Y-81543846D01*
X126667128Y-81540879D01*
X126667123Y-81540875D01*
X126504608Y-81451533D01*
X126504609Y-81451533D01*
X126499213Y-81448567D01*
X126493346Y-81446706D01*
X126493344Y-81446705D01*
X126316564Y-81390627D01*
X126316563Y-81390627D01*
X126310694Y-81388765D01*
X126156773Y-81371500D01*
X125250231Y-81371500D01*
X125247175Y-81371800D01*
X125247168Y-81371800D01*
X125188660Y-81377537D01*
X125103167Y-81385920D01*
X125097266Y-81387702D01*
X125097264Y-81387702D01*
X125023947Y-81409838D01*
X124913831Y-81443084D01*
X124739204Y-81535934D01*
X124724639Y-81547813D01*
X124714136Y-81556379D01*
X124648704Y-81583933D01*
X124578763Y-81571738D01*
X124526518Y-81523665D01*
X124508500Y-81458736D01*
X124508500Y-75634500D01*
X124528502Y-75566379D01*
X124582158Y-75519886D01*
X124634500Y-75508500D01*
X168365500Y-75508500D01*
X168433621Y-75528502D01*
G37*
%TD.AperFunction*%
%TD*%
M02*
